<?xml version="1.0" encoding="utf-8"?>
<!-- Generator: Adobe Illustrator 26.4.1, SVG Export Plug-In . SVG Version: 6.00 Build 0)  -->
<svg version="1.1" id="Layer_1" xmlns="http://www.w3.org/2000/svg" xmlns:xlink="http://www.w3.org/1999/xlink" x="0px" y="0px"
	 viewBox="0 0 1440 359.2" style="enable-background:new 0 0 1440 359.2;" xml:space="preserve">
<style type="text/css">
	.st0{fill:none;stroke:#000000;stroke-dasharray:8,8;}
</style>
<path class="st0" d="M-5,12V4h0.5V1.6c0.3,0.5,0.8,1.1,1.3,1.8l0.4-0.3C-1.7,4.8-0.1,7,1.9,9.7L1.5,10c1.4,1.9,3,4,4.8,6.3L6.7,16
	c1.5,1.9,3.2,4,5,6.2l-0.4,0.3c1.6,2,3.3,4,5.1,6.2l0.4-0.3c1.6,1.9,3.3,3.9,5.2,6l-0.4,0.3c1.7,1.9,3.5,3.9,5.3,5.9l0.4-0.3
	c1.7,1.9,3.6,3.9,5.4,5.9l-0.4,0.3c1.8,1.9,3.6,3.8,5.5,5.8l0.4-0.3c1.8,1.9,3.7,3.7,5.6,5.6L43.4,58c1.9,1.9,3.8,3.7,5.8,5.6
	l0.3-0.4c1.9,1.8,3.8,3.6,5.7,5.5l-0.3,0.4c1.9,1.8,3.9,3.6,5.9,5.4l0.3-0.4c1.9,1.8,3.9,3.5,6,5.3l-0.3,0.4c2,1.7,4,3.5,6.1,5.2
	l0.3-0.4c2,1.7,4.1,3.4,6.2,5.1L79,90.2c2,1.7,4.1,3.3,6.2,5l0.3-0.4c2.1,1.6,4.2,3.3,6.3,4.9l-0.3,0.4c2.1,1.6,4.2,3.2,6.4,4.8
	l0.3-0.4c2.1,1.6,4.3,3.1,6.5,4.7l-0.3,0.4c2.2,1.5,4.3,3,6.6,4.5l0.3-0.4c2.2,1.5,4.4,3,6.6,4.4l-0.3,0.4c2.2,1.4,4.5,2.9,6.7,4.3
	l0.3-0.4c2.2,1.4,4.5,2.8,6.8,4.2l-0.3,0.4c2.3,1.4,4.6,2.7,6.9,4.1l0.2-0.4c2.3,1.3,4.6,2.6,6.9,3.9L145,135
	c2.3,1.3,4.7,2.6,7.1,3.8l0.2-0.4c2.3,1.2,4.7,2.4,7,3.6l-0.2,0.4c2.4,1.2,4.8,2.4,7.2,3.5l0.2-0.5c2.4,1.1,4.8,2.3,7.2,3.4
	l-0.2,0.5c2.4,1.1,4.8,2.2,7.3,3.2l0.2-0.5c2.4,1,4.9,2.1,7.4,3.1l-0.2,0.5c2.4,1,4.9,2,7.4,2.9l0.2-0.5c2.5,0.9,5,1.9,7.5,2.8
	l-0.2,0.5c2.5,0.9,5,1.8,7.5,2.6l0.2-0.5c2.5,0.8,5,1.7,7.6,2.4l-0.1,0.5c2.5,0.8,5.1,1.5,7.7,2.3l0.1-0.5c2.5,0.7,5.1,1.4,7.7,2.1
	l-0.1,0.5c2.6,0.7,5.2,1.3,7.8,2l0.1-0.5c2.6,0.6,5.1,1.2,7.7,1.8l-0.1,0.5c2.6,0.6,5.2,1.1,7.8,1.6l0.1-0.5c2.6,0.5,5.2,1,7.9,1.4
	l-0.1,0.5c2.6,0.4,5.2,0.9,7.8,1.3l0.1-0.5c2.6,0.4,5.3,0.8,7.9,1.1l-0.1,0.5c2.6,0.3,5.3,0.6,7.9,0.9l0.1-0.5
	c2.6,0.3,5.3,0.5,7.9,0.8v0.5c2.7,0.2,5.3,0.4,8,0.6v-0.5c2.6,0.2,5.3,0.3,7.9,0.4v0.5c2.6,0.1,5.3,0.2,8,0.2v-0.5
	c2.7,0.1,5.4,0.1,8.1,0.1v0.5c2.6,0,5.3,0,7.9-0.1v-0.5c2.6-0.1,5.3-0.1,8-0.3v0.5c2.7-0.1,5.4-0.3,8.1-0.4v-0.5
	c2.6-0.2,5.2-0.4,7.9-0.6v0.5c2.6-0.2,5.3-0.5,7.9-0.8l-0.1-0.5c2.7-0.3,5.3-0.6,8-0.9l0.1,0.5c2.6-0.3,5.2-0.7,7.8-1.1l-0.1-0.5
	c2.6-0.4,5.2-0.8,7.9-1.2l0.1,0.5c2.6-0.4,5.3-0.9,8-1.4l-0.1-0.5c2.6-0.5,5.2-1,7.8-1.5l0.1,0.5c2.6-0.5,5.2-1.1,7.8-1.7l-0.1-0.5
	c2.6-0.6,5.2-1.2,7.8-1.8l0.1,0.5c1.3-0.3,2.6-0.6,3.9-1c1.3-0.3,2.6-0.6,3.9-1l-0.1-0.5c2.6-0.6,5.2-1.2,7.7-1.8l0.1,0.5
	c2.6-0.6,5.1-1.2,7.7-1.7l-0.1-0.5c2.6-0.6,5.1-1.1,7.7-1.6l0.1,0.5c2.6-0.5,5.2-1.1,7.8-1.6l-0.1-0.5c2.6-0.5,5.2-1,7.8-1.5
	l0.1,0.5c2.6-0.5,5.2-0.9,7.7-1.4l-0.1-0.5c2.6-0.4,5.2-0.9,7.8-1.3l0.1,0.5c2.6-0.4,5.2-0.8,7.8-1.2l-0.1-0.5
	c2.6-0.4,5.2-0.8,7.8-1.1l0.1,0.5c2.6-0.4,5.2-0.7,7.9-1l-0.1-0.5c2.6-0.3,5.3-0.6,7.9-0.9l0.1,0.5c2.6-0.3,5.2-0.6,7.8-0.8v-0.5
	c2.6-0.3,5.3-0.5,7.9-0.7v0.5c2.6-0.2,5.3-0.5,7.9-0.7v-0.5c2.6-0.2,5.3-0.4,7.9-0.6v0.5c2.6-0.2,5.3-0.3,7.9-0.5v-0.5
	c2.7-0.1,5.3-0.3,7.9-0.4v0.5c2.6-0.1,5.3-0.2,7.9-0.3v-0.5c2.6-0.1,5.3-0.2,7.9-0.2v0.5c2.7-0.1,5.3-0.1,7.9-0.1v-0.5
	c2.6,0,5.3,0,7.9,0v0.5c2.6,0,5.3,0,7.9,0.1v-0.5c2.7,0,5.3,0.1,7.9,0.1v0.5c2.6,0.1,5.3,0.1,7.9,0.2v-0.5c2.6,0.1,5.3,0.2,7.9,0.3
	v0.5c2.7,0.1,5.3,0.3,7.9,0.4v-0.5c2.6,0.1,5.3,0.3,7.9,0.5v0.5c2.6,0.2,5.3,0.4,7.9,0.6v-0.5c2.6,0.2,5.3,0.4,7.9,0.7v0.5
	c2.6,0.2,5.2,0.5,7.8,0.7v-0.5c2.7,0.3,5.3,0.5,7.9,0.8l-0.1,0.5c2.6,0.3,5.2,0.6,7.9,0.9l0.1-0.5c2.6,0.3,5.2,0.6,7.8,1l-0.1,0.5
	c2.6,0.3,5.3,0.7,7.9,1.1l0.1-0.5c2.6,0.4,5.2,0.8,7.8,1.1l-0.1,0.5c2.6,0.4,5.2,0.8,7.8,1.2l0.1-0.5c2.6,0.4,5.2,0.9,7.8,1.3
	l-0.1,0.5c2.6,0.4,5.2,0.9,7.7,1.4l0.1-0.5c2.6,0.5,5.3,1,7.9,1.5l-0.1,0.5c2.6,0.5,5.2,1,7.7,1.5l0.1-0.5c2.6,0.5,5.2,1.1,7.8,1.6
	l-0.1,0.5c2.6,0.6,5.2,1.1,7.7,1.7l0.1-0.5c2.6,0.6,5.1,1.2,7.7,1.8l-0.1,0.5c2.6,0.6,5.2,1.2,7.8,1.9l0.1-0.5
	c2.6,0.6,5.1,1.3,7.6,1.9l-0.1,0.5c2.6,0.7,5.2,1.3,7.7,2l0.1-0.5c2.6,0.7,5.1,1.4,7.6,2.1l-0.1,0.5c2.6,0.7,5.1,1.4,7.6,2.2
	l0.1-0.5c2.6,0.7,5.1,1.5,7.6,2.2l-0.1,0.5c2.6,0.8,5.1,1.5,7.6,2.3l0.1-0.5c2.6,0.8,5.1,1.6,7.5,2.4l-0.2,0.5
	c2.5,0.8,5.1,1.6,7.5,2.5l0.2-0.5c2.5,0.8,5,1.7,7.5,2.5l-0.2,0.5c2.5,0.9,5,1.7,7.5,2.6l0.2-0.5c2.5,0.9,5,1.8,7.4,2.7l-0.2,0.5
	c2.5,0.9,5,1.9,7.5,2.8l0.2-0.5c2.5,0.9,4.9,1.9,7.3,2.8l-0.2,0.5c2.5,1,5,2,7.4,2.9l0.2-0.5c2.5,1,5,2,7.3,3l-0.2,0.5
	c2.5,1,4.9,2.1,7.2,3.1l0.2-0.5c2.5,1.1,4.9,2.1,7.2,3.2l-0.2,0.5c2.6,1.1,5,2.2,7.2,3.3l0.2-0.5c2.6,1.2,5,2.3,7.2,3.4l-0.2,0.4
	c2.6,1.3,5,2.4,7,3.4l0.2-0.4c3,1.5,5.4,2.8,7.2,3.7l-0.2,0.4c1.1,0.6,1.9,1,2.5,1.3c0.3,0.2,0.5,0.3,0.6,0.3s0.1,0.1,0.2,0.1l0,0
	l0,0l0,0l0,0l0.2-0.4l-0.2,0.4l0,0l0,0l0,0l0,0l0,0l0,0l0.2,0.1c0.2,0.1,0.4,0.2,0.7,0.3c0.6,0.3,1.5,0.6,2.6,1.1l0.2-0.5
	c1.8,0.8,4.3,1.8,7.4,3.1l-0.2,0.5c2.2,0.9,4.7,1.9,7.4,3l0.2-0.5c2.3,0.9,4.8,1.9,7.5,3l-0.2,0.5c2.3,0.9,4.8,1.9,7.4,2.9l0.2-0.5
	c2.4,0.9,4.8,1.9,7.4,2.9l-0.2,0.5c2.4,1,5,1.9,7.6,3l0.2-0.5c2.4,0.9,4.8,1.9,7.4,2.8l-0.2,0.5c2.5,0.9,5,1.9,7.6,2.9l0.2-0.5
	c2.4,0.9,4.9,1.8,7.4,2.8l-0.2,0.5c2.5,0.9,5,1.9,7.6,2.8l0.2-0.5c2.5,0.9,4.9,1.8,7.5,2.7l-0.2,0.5c2.5,0.9,5,1.8,7.6,2.8l0.2-0.5
	c2.5,0.9,4.9,1.8,7.5,2.7l-0.2,0.5c2.5,0.9,5.1,1.8,7.7,2.7l0.2-0.5c2.5,0.9,4.9,1.7,7.5,2.6l-0.2,0.5c2.5,0.9,5,1.8,7.6,2.7
	l0.2-0.5c2.5,0.9,5,1.7,7.6,2.6l-0.2,0.5c2.5,0.9,5,1.7,7.6,2.6l0.2-0.5c2.5,0.9,5.1,1.7,7.7,2.6l-0.2,0.5c2.5,0.8,5,1.7,7.6,2.5
	l0.2-0.5c2.5,0.8,5.1,1.7,7.6,2.5l-0.1,0.5c2.5,0.8,5.1,1.6,7.6,2.5l0.2-0.5c2.5,0.8,5.1,1.6,7.6,2.4l-0.1,0.5
	c2.5,0.8,5.1,1.6,7.7,2.4l0.2-0.5c2.5,0.8,5.1,1.6,7.6,2.4l-0.1,0.5c2.5,0.8,5.1,1.6,7.7,2.3l0.1-0.5c2.6,0.8,5.1,1.5,7.7,2.3
	l-0.2,0.5c2.6,0.8,5.1,1.5,7.7,2.3l0.1-0.5c2.6,0.8,5.1,1.5,7.7,2.2l-0.1,0.5c2.6,0.7,5.1,1.5,7.7,2.2l0.1-0.5
	c2.6,0.7,5.1,1.4,7.7,2.2l-0.1,0.5c2.6,0.7,5.2,1.4,7.7,2.1l0.1-0.5c2.6,0.7,5.2,1.4,7.8,2.1l-0.1,0.5c2.6,0.7,5.2,1.4,7.8,2
	l0.1-0.5c2.6,0.7,5.2,1.3,7.8,2l-0.1,0.5c2.6,0.7,5.2,1.3,7.8,1.9l0.1-0.5c2.6,0.6,5.2,1.3,7.8,1.9l-0.1,0.5
	c2.6,0.6,5.2,1.2,7.8,1.8l0.1-0.5c2.6,0.6,5.2,1.2,7.8,1.8l-0.1,0.5c2.6,0.6,5.2,1.2,7.8,1.7l0.1-0.5c2.6,0.6,5.2,1.1,7.8,1.7
	l-0.1,0.5c2.6,0.5,5.3,1.1,7.9,1.6l0.1-0.5c2.6,0.5,5.2,1,7.8,1.5l-0.1,0.5c2.6,0.5,5.3,1,7.9,1.5l0.1-0.5c2.6,0.5,5.3,0.9,7.9,1.4
	l-0.1,0.5c2.6,0.5,5.3,0.9,7.9,1.3l0.1-0.5c2.7,0.4,5.3,0.8,8,1.2l-0.1,0.5c2.7,0.4,5.3,0.8,7.9,1.1l0.1-0.5c2.7,0.4,5.3,0.7,8,1
	l-0.1,0.5c2.7,0.3,5.3,0.6,8,0.9l0.1-0.5c2.7,0.3,5.3,0.6,7.9,0.8v0.5c2.7,0.3,5.4,0.5,8.1,0.7l0.1-0.5c2.7,0.2,5.3,0.4,7.9,0.6v0.5
	c2.7,0.2,5.4,0.3,8,0.4v-0.5c2.7,0.1,5.4,0.2,8,0.3v0.5c2.7,0.1,5.4,0.1,8,0.1v-0.5c2.7,0,5.4,0,8.1-0.1v0.5
	c2.7-0.1,5.3-0.1,7.9-0.3v-0.5c2.7-0.1,5.4-0.3,8.1-0.5v0.5c2.7-0.2,5.3-0.5,7.9-0.8l-0.1-0.5c2.7-0.3,5.4-0.7,8.1-1.1l0.1,0.5
	c2.7-0.4,5.3-0.9,7.8-1.4l-0.1-0.5c2.7-0.5,5.3-1.1,7.9-1.8l0.1,0.5c2.6-0.7,5.2-1.4,7.7-2.1l-0.2-0.5c2.6-0.8,5.2-1.7,7.6-2.6
	l0.2,0.5c1-0.4,2-0.8,2.9-1.2v3.2h0.5v8h-0.5v8h0.5v8h-0.5v8h0.5v8h-0.5v8h0.5v8h-0.5v8h0.5v8h-0.5v8h0.5v8h-0.5v8h0.5v8h-0.5v8h0.5
	v8h-0.5v8h0.5v8h-0.5v8h0.5v8h-0.5v8h0.5v8h-0.5v8h0.5v8h-0.5v8h0.5v8h-0.5v8h0.5v8h-0.5v8h0.5v8h-0.5v8h0.5v8h-0.5v8h0.5v8h-0.5v8
	h0.5v8h-0.5v8h0.5v8h-0.5v8h0.5v8h-0.5v8h0.5v8h-0.5v8h0.5v8h-0.5v8h0.5v8h-0.5v8h0.5v8h-0.5v8h0.5v8h-0.5v8h0.5v8h-0.5v8h0.5v8
	h-0.5v8h0.5v8h-0.5v8h0.5v8h-0.5v8h0.5v8h-0.5v8h0.5v8h-0.5v8h0.5v8h-0.5v8h0.5v8h-0.5v8h0.5v8h-0.5v8h0.5v8h-0.5v8h0.5v8h-0.5v8
	h0.5v8h-0.5v8h0.5v8h-0.5v8h0.5v8h-0.5v8h0.5v8h-0.5v8h0.5v8h-0.5v8h0.5v8h-0.5v8h0.5v8h-0.5v8h0.5v8h-0.5v8h0.5v8h-0.5v8h0.5v8
	h-0.5v8h0.5v8h-0.5v8h0.5v8h-0.5v8h0.5v8h-0.5v8h0.5v8h-0.5v8h0.5v8h-0.5v8h0.5v8h-0.5v8h0.5v8h-0.5v8h0.5v8h-0.5v8h0.5v8h-0.5v8
	h0.5v8h-0.5v8h0.5v8h-0.5v8h0.5v8h-0.5v8h0.5v8h-0.5v8h0.5v8h-0.5v8h0.5v8h-0.5v8h0.5v8h-0.5v8h0.5v8h-0.5v8h0.5v8h-0.5v8h0.5v8
	h-0.5v8h0.5v8h-0.5v8h0.5v8h-0.5v8h0.5v8h-0.5v8h0.5v8h-0.5v8h0.5v8h-0.5v8h0.5v8h-0.5v8h0.5v8h-0.5v8h0.5v8h-0.5v8h0.5v8h-0.5v8
	h0.5v8h-0.5v3.5c-0.1,0-0.3,0-0.5,0c-0.7,0-1.6,0.1-2.9,0.2v0.5c-1.9,0.1-4.6,0.3-7.9,0.5v-0.5c-2.3,0.2-5,0.4-8,0.6v0.5
	c-2.4,0.2-5.1,0.4-7.9,0.6v-0.5c-2.5,0.2-5.1,0.4-7.8,0.7v0.5c-2.5,0.2-5.2,0.5-7.9,0.7l-0.1-0.5c-2.6,0.2-5.2,0.5-8,0.8l0.1,0.5
	c-2.5,0.3-5.1,0.5-7.8,0.8l-0.1-0.5c-2.6,0.3-5.2,0.6-7.9,0.9v0.5c-2.6,0.3-5.2,0.6-7.9,0.9l-0.1-0.5c-2.6,0.3-5.2,0.6-7.8,1
	l0.1,0.5c-2.6,0.3-5.2,0.6-7.9,1l-0.1-0.5c-2.5,0.3-5.1,0.7-7.8,1l0.1,0.5c-2.6,0.4-5.2,0.7-7.9,1.1l-0.1-0.5
	c-0.9,0.1-1.9,0.3-2.8,0.4c-1.6,0.2-3.3,0.5-5,0.7l0.1,0.5c-2.6,0.4-5.2,0.8-7.9,1.2l-0.1-0.5c-2.6,0.4-5.2,0.8-7.8,1.2l0.1,0.5
	c-2.6,0.4-5.2,0.8-7.8,1.2l-0.1-0.5c-2.6,0.4-5.2,0.8-7.9,1.3l0.1,0.5c-2.6,0.4-5.2,0.8-7.8,1.3l-0.1-0.5c-2.6,0.4-5.2,0.9-7.9,1.4
	l0.1,0.5c-2.6,0.4-5.1,0.9-7.7,1.3l-0.1-0.5c-2,0.3-4,0.7-6,1.1c-0.6,0.1-1.2,0.2-1.8,0.3l0.1,0.5c-2.6,0.5-5.2,0.9-7.8,1.4
	l-0.1-0.5c-2.6,0.5-5.2,1-7.8,1.5l0.1,0.5c-2.6,0.5-5.2,1-7.9,1.5l-0.1-0.5c-2.6,0.5-5.1,1-7.7,1.5l0.1,0.5c-2.6,0.5-5.2,1-7.8,1.6
	l-0.1-0.5c-2.6,0.5-5.2,1.1-7.8,1.6l0.1,0.5c-2.6,0.5-5.1,1.1-7.7,1.7l-0.1-0.5c-1,0.2-2,0.4-3,0.6c-1.6,0.3-3.2,0.7-4.8,1.1
	l0.1,0.5c-2.6,0.6-5.2,1.2-7.8,1.7l-0.1-0.5c-2.6,0.6-5.1,1.2-7.7,1.8l0.1,0.5c-2.6,0.6-5.2,1.2-7.8,1.8l-0.1-0.5
	c-2.6,0.6-5.1,1.2-7.7,1.9l0.1,0.5c-2.6,0.6-5.1,1.2-7.7,1.9l-0.1-0.5c-2.6,0.6-5.2,1.3-7.7,1.9l0.1,0.5c-2.6,0.6-5.1,1.3-7.7,2
	l-0.1-0.5c-2.5,0.7-5.1,1.3-7.7,2l0.1,0.5c-2.6,0.7-5.1,1.4-7.7,2.1l-0.1-0.5c-2.6,0.7-5.1,1.4-7.7,2.1l0.1,0.5
	c-2.5,0.7-5.1,1.4-7.6,2.1l-0.1-0.5c-2.5,0.7-5.1,1.4-7.7,2.2l0.1,0.5c-2.5,0.7-5.1,1.5-7.6,2.2l-0.2-0.5c-2.5,0.8-5,1.5-7.6,2.3
	l0.1,0.5c-2.5,0.8-5.1,1.5-7.6,2.3l-0.2-0.5c-2.5,0.8-5.1,1.6-7.6,2.3l0.1,0.5c-2.5,0.8-5,1.6-7.5,2.4l-0.2-0.5
	c-2.5,0.8-5,1.6-7.6,2.4l0.1,0.5c-2.5,0.8-5,1.7-7.5,2.5l-0.2-0.5c-0.7,0.2-1.4,0.5-2.2,0.7c-1.8,0.6-3.6,1.2-5.3,1.8l0.2,0.5
	c-2.5,0.8-5,1.7-7.5,2.6l-0.2-0.5c-2.5,0.9-5,1.8-7.5,2.6l0.2,0.5c-2.5,0.9-5,1.8-7.5,2.7l-0.2-0.5c-2.5,0.9-5,1.8-7.5,2.7l0.2,0.5
	c-2.5,0.9-5,1.8-7.5,2.8l-0.2-0.5c-2.5,0.9-4.9,1.9-7.4,2.8l0.2,0.5c-2.5,0.9-4.9,1.9-7.4,2.9l-0.2-0.5c-0.4,0.2-0.8,0.3-1.2,0.5
	c-2.1,0.8-4.1,1.6-6.2,2.5l0.2,0.5c-2.5,1-4.9,2-7.4,3l-0.2-0.5c-2.4,1-4.9,2-7.3,3l0.2,0.5c-2.4,1-4.9,2-7.3,3.1l-0.2-0.5
	c-2.4,1-4.9,2.1-7.3,3.1l0.2,0.5c-2.4,1-4.8,2.1-7.3,3.2l-0.2-0.5c-2.4,1.1-4.8,2.1-7.3,3.2l0.2,0.5c-2.4,1.1-4.8,2.2-7.2,3.3
	l-0.2-0.5c-2.4,1.1-4.8,2.2-7.2,3.3l0.2,0.4c-2.4,1.1-4.8,2.3-7.2,3.4l-0.2-0.4c-2.4,1.1-4.8,2.3-7.2,3.5l0.2,0.5
	c-2.4,1.2-4.7,2.3-7.1,3.5l-0.2-0.4c-2.4,1.2-4.7,2.4-7.1,3.6l0.2,0.4c-2.4,1.2-4.7,2.4-7.1,3.6l-0.2-0.5c-1.2,0.6-2.3,1.2-3.5,1.8
	c-1.2,0.6-2.4,1.2-3.6,1.9l0.2,0.4c-2.4,1.2-4.8,2.5-7.2,3.6l-0.2-0.4c-2.4,1.2-4.8,2.4-7.1,3.5l0.2,0.4c-2.4,1.2-4.8,2.3-7.2,3.4
	l-0.2-0.5c-2.4,1.1-4.9,2.2-7.3,3.4l0.2,0.4c-2.4,1.1-4.9,2.2-7.3,3.2l-0.2-0.5c-2.4,1-4.9,2.1-7.3,3.1l0.2,0.5
	c-2.5,1-5,2.1-7.4,3.1l-0.2-0.5c-2.5,1-4.9,2-7.4,2.9l0.2,0.5c-2.5,1-4.9,1.9-7.4,2.8l-0.2-0.5c-2.5,0.9-5,1.8-7.6,2.7l0.2,0.5
	c-2.5,0.9-5,1.8-7.5,2.6l-0.2-0.5c-2.5,0.8-5,1.7-7.5,2.5l0.2,0.5c-2.6,0.8-5.1,1.6-7.7,2.4l-0.1-0.5c-2.6,0.8-5.1,1.5-7.6,2.3
	l0.1,0.5c-2.5,0.8-5.1,1.5-7.6,2.2l-0.1-0.5c-2.6,0.7-5.2,1.4-7.8,2.1l0.1,0.5c-2.6,0.7-5.2,1.3-7.7,2l-0.1-0.5
	c-2.6,0.6-5.1,1.3-7.7,1.9l0.1,0.5c-2.6,0.6-5.2,1.2-7.8,1.8l-0.1-0.5c-2.6,0.6-5.2,1.1-7.8,1.7l0.1,0.5c-2.6,0.5-5.2,1.1-7.8,1.6
	l-0.1-0.5c-2.6,0.5-5.3,1-7.9,1.5l0.1,0.5c-2.6,0.5-5.2,0.9-7.8,1.3l-0.1-0.5c-2.6,0.4-5.3,0.8-7.9,1.2l0.1,0.5
	c-2.6,0.4-5.3,0.8-7.9,1.1l-0.1-0.5c-2.6,0.4-5.2,0.7-7.9,1l0.1,0.5c-2.7,0.3-5.3,0.6-8,0.9l-0.1-0.5c-2.7,0.3-5.3,0.5-7.9,0.8v0.5
	c-2.7,0.2-5.3,0.5-7.9,0.7v-0.5c-2.7,0.2-5.3,0.4-8,0.6v0.5c-2.7,0.2-5.3,0.3-7.9,0.5v-0.5c-2.7,0.1-5.4,0.3-8,0.4v0.5
	c-2.7,0.1-5.3,0.2-8,0.3v-0.5c-2.7,0.1-5.3,0.1-8,0.2v0.5c-2.7,0-5.4,0.1-8,0.1v-0.5c-2.7,0-5.3,0-7.9,0v0.5c-2.7,0-5.4-0.1-8.1-0.2
	v-0.5c-2.7-0.1-5.3-0.2-7.9-0.2v0.5c-2.7-0.1-5.4-0.2-8-0.4v-0.5c-2.7-0.1-5.3-0.3-7.9-0.5v0.5c-2.7-0.2-5.3-0.4-8-0.6v-0.5
	c-2.7-0.2-5.3-0.4-8-0.7v0.5c-2.7-0.2-5.3-0.5-7.9-0.8l0.1-0.5c-2.7-0.3-5.3-0.6-7.9-0.9l-0.1,0.5c-2.7-0.3-5.3-0.6-7.9-1l0.1-0.5
	c-2.7-0.3-5.3-0.7-7.9-1.1l-0.1,0.5c-2.7-0.4-5.3-0.8-7.9-1.2l0.1-0.5c-2.7-0.4-5.3-0.8-7.9-1.3l-0.1,0.5c-2.7-0.4-5.3-0.9-7.9-1.4
	l0.1-0.5c-2.6-0.5-5.2-1-7.8-1.5l-0.1,0.5c-2.7-0.5-5.3-1.1-7.9-1.6l0.1-0.5c-2.6-0.6-5.2-1.1-7.7-1.7l-0.1,0.5
	c-2.7-0.6-5.3-1.2-7.8-1.8l0.1-0.5c-2.7-0.6-5.2-1.3-7.8-1.9l-0.1,0.5c-2.6-0.7-5.2-1.3-7.7-2l0.1-0.5c-2.7-0.7-5.2-1.4-7.7-2.1
	l-0.1,0.5c-2.7-0.8-5.3-1.5-7.7-2.2l0.1-0.5c-2.7-0.8-5.2-1.6-7.6-2.4l-0.2,0.5c-2.7-0.9-5.3-1.7-7.6-2.5l0.2-0.5
	c-2.8-1-5.3-1.8-7.5-2.6l-0.2,0.5c-3.2-1.2-5.7-2.1-7.5-2.8l0.2-0.5c-1.2-0.5-2.1-0.8-2.7-1.1c-0.3-0.1-0.5-0.2-0.7-0.3l-0.2-0.1
	l0,0l0,0c0,0-0.1-0.1-0.2-0.1c-0.1-0.1-0.4-0.2-0.6-0.4c-0.6-0.3-1.4-0.8-2.5-1.4l-0.2,0.5c-1.8-0.9-4.2-2.1-7.2-3.4l0.2-0.5
	c-2.2-0.9-4.7-1.9-7.5-3l-0.2,0.5c-2.3-0.9-4.8-1.8-7.6-2.6l0.2-0.5c-2.4-0.8-4.9-1.6-7.6-2.3l-0.1,0.5c-2.4-0.7-5-1.4-7.7-2
	l0.1-0.5c-2.5-0.6-5.1-1.2-7.8-1.7l-0.1,0.5c-2.5-0.5-5.1-1-7.8-1.4l0.1-0.5c-2.6-0.4-5.2-0.8-7.9-1.1l-0.1,0.5
	c-2.6-0.3-5.3-0.6-8-0.9v-0.5c-2.6-0.2-5.2-0.4-7.9-0.6v0.5c-2.6-0.2-5.2-0.3-7.9-0.3v-0.5c-2.6-0.1-5.3-0.1-8.1-0.1v0.5
	c-2.6,0-5.2,0.1-7.9,0.2v-0.5c-2.6,0.1-5.3,0.2-8,0.5v0.5c-2.6,0.2-5.3,0.4-8,0.7l-0.1-0.5c-2.6,0.3-5.2,0.6-7.9,0.9l0.1,0.5
	c-2.6,0.3-5.3,0.7-7.9,1.2l-0.1-0.5c-2.6,0.4-5.2,0.9-7.8,1.4l0.1,0.5c-2.6,0.5-5.2,1.1-7.9,1.7l-0.1-0.5c-2.5,0.6-5.1,1.2-7.7,1.8
	l0.1,0.5c-2.6,0.7-5.2,1.3-7.8,2.1l-0.1-0.5c-2.5,0.7-5,1.5-7.6,2.3l0.1,0.5c-2.5,0.8-5.1,1.6-7.6,2.5l-0.2-0.5
	c-2.5,0.8-5,1.7-7.5,2.7l0.2,0.5c-2.5,0.9-4.9,1.9-7.4,2.8l-0.2-0.5c-2.5,1-4.9,2-7.4,3l0.2,0.5c-2.4,1-4.8,2.1-7.2,3.2l-0.2-0.4
	c-2.4,1.1-4.9,2.2-7.3,3.4l0.2,0.4c-2.3,1.1-4.7,2.3-7,3.5l-0.2-0.4c-2.4,1.2-4.7,2.4-7.1,3.7l0.2,0.4c-2.3,1.2-4.7,2.5-7,3.8
	l-0.2-0.4c-2.3,1.3-4.6,2.6-6.9,3.9l0.3,0.4c-2.3,1.3-4.6,2.7-6.9,4.1l-0.3-0.4c-2.2,1.4-4.5,2.8-6.7,4.2l0.3,0.4
	c-2.2,1.4-4.4,2.8-6.7,4.3l-0.3-0.4c-2.2,1.5-4.5,3-6.7,4.5l0.3,0.4c-2.1,1.5-4.3,3-6.4,4.5l-0.3-0.4c-2.1,1.5-4.3,3.1-6.4,4.7
	l0.3,0.4c-2.2,1.6-4.3,3.2-6.5,4.9l-0.3-0.4c-2.1,1.6-4.1,3.2-6.2,4.8l0.3,0.4c-2.1,1.6-4.1,3.3-6.2,4.9l-0.3-0.4
	c-2.1,1.7-4.2,3.4-6.2,5.1l0.3,0.4c-2,1.7-4,3.4-6,5.1l-0.3-0.4c-2,1.7-4,3.4-6,5.2l0.3,0.4c-2,1.8-4,3.6-6,5.4l-0.3-0.4
	c-2,1.8-4,3.6-5.9,5.5l0.3,0.4c-1.9,1.8-3.8,3.6-5.7,5.4l-0.3-0.4c-1.9,1.8-3.8,3.7-5.7,5.5l0.3,0.4c-1.9,1.9-3.8,3.8-5.8,5.7
	l-0.4-0.3c-1.9,1.9-3.7,3.7-5.6,5.6l0.4,0.3c-1.8,1.9-3.6,3.8-5.5,5.7l-0.4-0.3c-1.8,1.9-3.7,3.8-5.5,5.8l0.4,0.3
	c-1.8,2-3.7,4-5.5,6l-0.4-0.3c-1.8,1.9-3.5,3.9-5.3,5.8l0.4,0.3c-1.7,1.9-3.5,3.9-5.2,5.9l-0.4-0.3c-1.8,2-3.5,4-5.3,6l0.4,0.3
	c-1.8,2-3.5,4.1-5.3,6.2l-0.4-0.3c-1.7,2-3.4,4-5.1,6l0.4,0.3c-1.7,2-3.3,4-5,6.1l-0.4-0.3c-1.7,2-3.3,4.1-5,6.2l0.4,0.3
	c-1.7,2.1-3.4,4.2-5,6.3l-0.4-0.3c-0.5,0.7-1.1,1.4-1.6,2.1v-2.6h-0.5v-8h0.5v-8h-0.5v-8h0.5v-8h-0.5v-8h0.5v-8h-0.5v-8h0.5v-8h-0.5
	v-8h0.5v-8h-0.5v-8h0.5v-8h-0.5v-8h0.5v-8h-0.5v-8h0.5v-8h-0.5v-8h0.5v-8H-3v-8h0.5v-8H-3v-8h0.5v-8H-3v-8h0.5v-8H-3v-8h0.5v-8H-3
	v-8h0.5v-8H-3v-8h0.5v-8H-3v-8h0.5v-8H-3v-8h0.5v-8H-3v-8h0.5v-8H-3v-8h0.5v-8H-3v-8h0.5v-8H-3v-8h0.5v-8H-3v-8h0.5v-8H-3v-8h0.5v-8
	H-3v-8h0.5v-8H-3v-8h0.5v-8H-3v-8h0.5v-8H-3v-8h0.5v-8H-3v-8h0.5v-8H-3v-8h0.5v-8H-3v-8h0.5v-8H-3v-8h0.5v-8H-3v-8h0.5v-8H-3v-8h0.5
	v-8H-3v-8h0.5v-8H-3v-8h0.5v-8H-3v-8l0,0v-8h-0.5v-8H-3v-8h-0.5v-8H-3v-8h-0.5v-8H-3v-8h-0.5v-8H-3v-8h-0.5v-8H-3v-8h-0.5v-8H-3v-8
	h-0.5v-8H-3v-8h-0.5v-8H-3v-8h-0.5v-8H-3v-8h-0.5v-8H-3v-8h-0.5v-8H-3v-8h-0.5v-8H-3v-8h-0.5v-8H-3v-8h-0.5v-8H-3v-8h-0.5v-8H-3v-8
	h-0.5v-8H-3v-8h-0.5v-8H-3v-8h-0.5v-8H-3v-8h-0.5v-8H-3v-8h-0.5v-8H-3v-8h-0.5v-8H-3v-8h-0.5v-8H-3v-8h-0.5v-8H-3v-8h-0.5v-8H-3v-8
	h-0.5v-8H-3v-8h-0.5v-8H-3v-8h-1v-8h0.5v-8H-4v-8h0.5v-8H-4v-8h0.5v-8H-4v-8h0.5v-8H-4v-8h0.5v-8H-4v-8h0.5v-8H-4v-8h0.5v-8H-4v-8
	h0.5v-8H-4v-8h0.5v-8H-4v-8h0.5v-8H-4v-8h0.5v-8H-4v-8h0.5v-8H-4v-8h0.5v-8H-4v-8h0.5v-8H-4v-8h0.5v-8H-4v-8h0.5v-8H-4v-8h0.5v-8H-4
	v-8h0.5v-8H-4v-8h0.5v-8H-4v-8h0.5v-8H-4v-8h0.5v-8H-4v-8h0.5v-8H-4v-8h0.5v-8H-4v-8h0.5v-8H-4v-8h0.5v-8H-4v-8h0.5v-8H-4v-8l0,0v-8
	h-0.5v-8H-4v-8h-0.5v-8H-4v-8h-0.5v-8H-4v-8h-0.5v-8H-4v-8h-0.5v-8H-4v-8h-0.5v-8H-4v-8h-0.5v-8H-4v-8h-0.5v-8H-4v-8h-0.5v-8H-4v-8
	h-0.5v-8H-4v-8h-0.5v-8H-4v-8h-0.5v-8H-4v-8h-0.5v-8H-4v-8h-0.5v-8H-4v-8h-0.5v-8H-4v-8h-0.5v-8H-4v-8h-0.5v-8H-4v-8h-0.5v-8H-4v-8
	h-0.5v-8H-4v-8h-0.5v-8H-4v-8h-0.5v-8H-4v-8h-0.5v-8H-4v-8h-0.5v-8H-4v-8h-0.5v-8H-4v-8h-0.5v-8H-4v-8h-0.5v-8H-4v-8h-0.5v-8H-4v-8
	h-0.5v-8H-4v-8L-5,12z"/>
</svg>
