<?xml version="1.0" encoding="utf-8"?>
<!-- Generator: Adobe Illustrator 24.1.3, SVG Export Plug-In . SVG Version: 6.00 Build 0)  -->
<svg version="1.1" id="Layer_1" xmlns="http://www.w3.org/2000/svg" xmlns:xlink="http://www.w3.org/1999/xlink" x="0px" y="0px"
	 viewBox="0 0 1440 75.5" style="enable-background:new 0 0 1440 75.5;" xml:space="preserve">
<style type="text/css">
	.st0{fill:#F8F1EC;stroke:#000000;stroke-dasharray:8,8;}
</style>
<path class="st0" d="M-9.5-485.8c0.1,0,0.2,0.1,0.4,0.1c0.7,0.2,1.6,0.4,2.9,0.7l0.1-0.5c1.9,0.4,4.5,1,7.9,1.7l-0.1,0.5
	c2.3,0.5,4.9,1,7.9,1.6l0.1-0.5c2.4,0.5,5.1,1,8,1.5l-0.1,0.5c2.5,0.5,5.1,0.9,8,1.4l0.1-0.5c2.5,0.4,5.2,0.9,7.9,1.3l-0.1,0.5
	c2.5,0.4,5.2,0.8,7.9,1.2l0.1-0.5c2.6,0.4,5.2,0.8,8,1.2l-0.1,0.5c2.6,0.4,5.3,0.7,8,1.1l0.1-0.5c2.6,0.4,5.3,0.7,8.1,1.1l-0.1,0.5
	c2.6,0.3,5.2,0.7,8,1l0.1-0.5c2.6,0.3,5.3,0.6,8,0.9l-0.1,0.5c2.6,0.3,5.3,0.6,8.1,0.9l0.1-0.5c2.6,0.3,5.3,0.5,7.9,0.8l0,0.5
	c2.6,0.3,5.3,0.5,8,0.8l0-0.5c2.6,0.2,5.3,0.5,8,0.7l0,0.5c2.6,0.2,5.3,0.5,8,0.7l0-0.5c2.7,0.2,5.4,0.4,8.1,0.6l0,0.5
	c2.6,0.2,5.3,0.4,8,0.6l0-0.5c2.7,0.2,5.4,0.4,8.1,0.5l0,0.5c2.6,0.2,5.3,0.3,8,0.5l0-0.5c2.7,0.2,5.4,0.3,8.1,0.4l0,0.5
	c2.6,0.1,5.3,0.3,8,0.4l0-0.5c2.7,0.1,5.4,0.2,8.1,0.4l0,0.5c2.7,0.1,5.3,0.2,8,0.3l0-0.5c2.7,0.1,5.3,0.2,8.1,0.3l0,0.5
	c2.7,0.1,5.4,0.2,8.1,0.2l0-0.5c2.6,0.1,5.3,0.1,8,0.2l0,0.5c2.7,0.1,5.4,0.1,8.2,0.2l0-0.5c2.6,0,5.3,0.1,8,0.1l0,0.5
	c2.7,0,5.4,0.1,8.1,0.1l0-0.5c2.7,0,5.4,0,8.1,0l0,0.5c2.7,0,5.3,0,8,0v-0.5c2.7,0,5.4,0,8.2,0l0,0.5c2.6,0,5.3,0,8-0.1l0-0.5
	c2.7,0,5.4-0.1,8.1-0.1l0,0.5c2.7,0,5.4-0.1,8.1-0.1l0-0.5c2.7,0,5.3-0.1,8-0.2l0,0.5c2.7-0.1,5.4-0.1,8.1-0.2l0-0.5
	c2.7-0.1,5.3-0.1,8-0.2l0,0.5c2.7-0.1,5.3-0.2,8-0.3l0-0.5c2.7-0.1,5.4-0.2,8.1-0.3l0,0.5c2.7-0.1,5.3-0.2,8-0.3l0-0.5
	c2.7-0.1,5.3-0.2,8-0.4l0,0.5c2.7-0.1,5.4-0.3,8.1-0.4l0-0.5c2.7-0.1,5.3-0.3,8-0.4l0,0.5c2.7-0.1,5.3-0.3,8-0.5l0-0.5
	c2.7-0.2,5.4-0.3,8.1-0.5l0,0.5c2.7-0.2,5.3-0.3,8-0.5l0-0.5c2.7-0.2,5.3-0.4,8-0.6l0,0.5c2.7-0.2,5.4-0.4,8.1-0.6l0-0.5
	c2.7-0.2,5.3-0.4,8-0.6l0,0.5c2.7-0.2,5.3-0.4,8-0.6l0-0.5c2.7-0.2,5.4-0.4,8.1-0.7l0,0.5c1.4-0.1,2.7-0.2,4.1-0.4
	c1.3-0.1,2.7-0.2,4-0.4l0-0.5c2.7-0.2,5.4-0.5,8-0.7l0,0.5c2.7-0.2,5.3-0.4,8-0.6l0-0.5c2.7-0.2,5.3-0.4,8-0.6l0,0.5
	c2.7-0.2,5.4-0.4,8-0.6l0-0.5c2.7-0.2,5.3-0.4,8-0.5l0,0.5c2.7-0.2,5.3-0.3,8-0.5l0-0.5c2.7-0.2,5.4-0.3,8.1-0.5l0,0.5
	c2.7-0.1,5.4-0.3,8-0.4l0-0.5c2.7-0.1,5.3-0.3,8-0.4l0,0.5c2.7-0.1,5.4-0.2,8.1-0.4l0-0.5c2.7-0.1,5.4-0.2,8-0.3l0,0.5
	c2.7-0.1,5.3-0.2,8-0.3l0-0.5c2.7-0.1,5.4-0.2,8.1-0.3l0,0.5c2.7-0.1,5.4-0.2,8-0.2l0-0.5c2.7-0.1,5.3-0.1,8-0.2l0,0.5
	c2.7-0.1,5.4-0.1,8-0.2l0-0.5c2.7,0,5.4-0.1,8-0.1l0,0.5c2.7,0,5.3-0.1,8-0.1l0-0.5c2.7,0,5.4,0,8.1-0.1l0,0.5c2.7,0,5.4,0,8,0
	l0-0.5c2.7,0,5.3,0,8,0l0,0.5c2.7,0,5.4,0,8.1,0l0-0.5c2.7,0,5.4,0,8,0.1l0,0.5c2.7,0,5.3,0.1,8,0.1l0-0.5c2.7,0,5.4,0.1,8.1,0.1
	l0,0.5c2.7,0,5.4,0.1,8,0.2l0-0.5c2.7,0.1,5.3,0.1,8,0.2l0,0.5c2.7,0.1,5.4,0.1,8.1,0.2l0-0.5c2.7,0.1,5.4,0.2,8,0.2l0,0.5
	c2.7,0.1,5.3,0.2,8,0.3l0-0.5c2.7,0.1,5.4,0.2,8.1,0.3l0,0.5c2.7,0.1,5.3,0.2,8,0.3l0-0.5c2.7,0.1,5.4,0.2,8,0.4l0,0.5
	c2.7,0.1,5.4,0.3,8,0.4l0-0.5c2.7,0.1,5.3,0.3,7.9,0.4l0,0.5c2.7,0.1,5.4,0.3,8.1,0.5l0-0.5c2.7,0.2,5.3,0.3,8,0.5l0,0.5
	c2.7,0.2,5.4,0.3,8,0.5l0-0.5c2.7,0.2,5.4,0.4,8,0.5l0,0.5c2.7,0.2,5.3,0.4,7.9,0.6l0-0.5c2.7,0.2,5.4,0.4,8.1,0.6l0,0.5
	c2.7,0.2,5.3,0.4,7.9,0.6l0-0.5c2.7,0.2,5.4,0.4,8.1,0.7l0,0.5c2.7,0.2,5.3,0.5,8,0.7l0-0.5c2.7,0.2,5.4,0.5,8,0.7l0,0.5
	c2.7,0.3,5.4,0.5,8,0.8l0-0.5c2.7,0.3,5.3,0.5,8,0.8l0,0.5c2.7,0.3,5.4,0.5,8,0.8l0.1-0.5c2.7,0.3,5.3,0.6,8,0.8l-0.1,0.5
	c2.7,0.3,5.4,0.6,8,0.9l0.1-0.5c2.7,0.3,5.4,0.6,8,0.9l-0.1,0.5c2.7,0.3,5.4,0.6,8,0.9l0.1-0.5c2.7,0.3,5.4,0.7,8,1l-0.1,0.5
	c2.7,0.3,5.3,0.7,7.9,1l0.1-0.5c2.8,0.4,5.4,0.7,8.1,1.1l-0.1,0.5c2.7,0.4,5.4,0.7,7.9,1.1l0.1-0.5c2.7,0.4,5.3,0.7,7.9,1.1
	l-0.1,0.5c2.8,0.4,5.5,0.8,8,1.2l0.1-0.5c2.8,0.4,5.4,0.8,8,1.2l-0.1,0.5c2.8,0.4,5.4,0.8,7.9,1.2l0.1-0.5c2.9,0.5,5.5,0.9,7.9,1.3
	l-0.1,0.5c2.9,0.5,5.6,0.9,7.9,1.3l0.1-0.5c3.4,0.6,6,1.1,8,1.4l-0.1,0.5c1.3,0.2,2.2,0.4,2.8,0.5c0.3,0.1,0.6,0.1,0.7,0.1l0.2,0
	l0,0l0,0l0,0v0l0.1-0.5l-0.1,0.5l0,0l0,0l0,0l0,0l0,0l0,0l0.2,0l0.3,0l0.5,0.1c0.7,0.1,1.6,0.2,2.9,0.4l0.1-0.5
	c1.9,0.3,4.6,0.7,7.9,1.1l-0.1,0.5c2.3,0.3,5,0.7,8,1.1l0.1-0.5c2.5,0.3,5.2,0.7,8.1,1.1l-0.1,0.5c2.6,0.4,5.3,0.7,8.1,1.1l0.1-0.5
	c2.5,0.3,5.1,0.7,7.8,1.1l-0.1,0.5c2.6,0.4,5.3,0.7,8,1.1l0.1-0.5c2.6,0.4,5.3,0.7,8.1,1.1l-0.1,0.5c2.6,0.3,5.2,0.7,7.9,1l0.1-0.5
	c2.7,0.3,5.4,0.7,8.1,1.1l-0.1,0.5c2.6,0.3,5.2,0.7,7.9,1l0.1-0.5c2.7,0.3,5.4,0.7,8.1,1l-0.1,0.5c2.6,0.3,5.2,0.7,7.9,1l0.1-0.5
	c2.7,0.3,5.4,0.7,8.1,1l-0.1,0.5c2.6,0.3,5.3,0.7,7.9,1l0.1-0.5c2.7,0.3,5.3,0.7,8,1l-0.1,0.5c2.7,0.3,5.3,0.6,8,1l0.1-0.5
	c2.6,0.3,5.3,0.6,8,1l-0.1,0.5c2.7,0.3,5.4,0.6,8.1,1l0.1-0.5c2.6,0.3,5.3,0.6,8,0.9l-0.1,0.5c2.7,0.3,5.4,0.6,8.1,0.9l0-0.5
	c2.7,0.3,5.3,0.6,8,0.9l-0.1,0.5c2.7,0.3,5.3,0.6,8,0.9l0-0.5c2.7,0.3,5.4,0.6,8.1,0.9l-0.1,0.5c2.7,0.3,5.3,0.6,8,0.9l0.1-0.5
	c2.7,0.3,5.4,0.6,8,0.9l0,0.5c2.7,0.3,5.3,0.6,8,0.8l0-0.5c2.7,0.3,5.3,0.6,8,0.8l-0.1,0.5c2.7,0.3,5.4,0.5,8.1,0.8l0-0.5
	c2.7,0.3,5.3,0.5,8,0.8l0,0.5c2.7,0.3,5.4,0.5,8,0.8l0.1-0.5c2.7,0.3,5.4,0.5,8.1,0.8l0,0.5c2.7,0.3,5.3,0.5,8,0.7l0-0.5
	c2.7,0.2,5.4,0.5,8.1,0.7l0,0.5c2.7,0.2,5.4,0.5,8.1,0.7l0-0.5c2.7,0.2,5.4,0.5,8,0.7l0,0.5c2.7,0.2,5.4,0.5,8,0.7l0-0.5
	c2.7,0.2,5.4,0.4,8.1,0.7l0,0.5c2.7,0.2,5.4,0.4,8,0.6l0-0.5c2.7,0.2,5.4,0.4,8,0.6l0,0.5c2.7,0.2,5.4,0.4,8.1,0.6l0-0.5
	c2.7,0.2,5.4,0.4,8,0.6l0,0.5c2.7,0.2,5.4,0.4,8.1,0.5l0-0.5c2.7,0.2,5.4,0.3,8.1,0.5l0,0.5c2.7,0.2,5.3,0.3,8,0.5l0-0.5
	c2.7,0.2,5.4,0.3,8.1,0.4l0,0.5c2.7,0.1,5.4,0.3,8,0.4l0-0.5c2.7,0.1,5.4,0.3,8.1,0.4l0,0.5c2.7,0.1,5.4,0.2,8.1,0.3l0-0.5
	c2.7,0.1,5.3,0.2,8,0.3l0,0.5c2.7,0.1,5.4,0.2,8.2,0.3l0-0.5c2.7,0.1,5.4,0.1,8,0.2l0,0.5c2.7,0.1,5.4,0.1,8.1,0.2v-0.5
	c2.7,0,5.4,0.1,8.1,0.1v0.5c2.7,0,5.4,0,8,0.1l0-0.5c2.7,0,5.5,0,8.2,0v0.5c2.7,0,5.3,0,8-0.1l0-0.5c2.8,0,5.5-0.1,8.2-0.2l0,0.5
	c2.7-0.1,5.3-0.2,8-0.3l0-0.5c2.8-0.1,5.5-0.2,8.2-0.4l0,0.5c2.7-0.1,5.3-0.3,7.9-0.5l0-0.5c2.8-0.2,5.5-0.4,8.2-0.6l0,0.5
	c2.7-0.2,5.4-0.5,7.9-0.8l0-0.5c2.8-0.3,5.5-0.6,8.1-1l0.1,0.5c1.1-0.2,2.2-0.3,3.3-0.5v3.4h0.5v7.9h-0.5v7.9h0.5v7.9h-0.5v7.9h0.5
	v7.9h-0.5v7.9h0.5v7.9h-0.5v7.9h0.5v7.9h-0.5v7.9h0.5v7.9h-0.5v7.9h0.5v7.9h-0.5v7.9h0.5v7.9h-0.5v7.9h0.5v7.9h-0.5v7.9h0.5v7.9
	h-0.5v7.9h0.5v7.9h-0.5v7.9h0.5v7.9h-0.5v7.9h0.5v7.9h-0.5v7.9h0.5v7.9h-0.5v7.9h0.5v7.9h-0.5v7.9h0.5v7.9h-0.5v7.9h0.5v7.9h-0.5
	v7.9h0.5v7.9h-0.5v7.9h0.5v7.9h-0.5v7.9h0.5v7.9h-0.5v7.9h0.5v7.9h-0.5v7.9h0.5v7.9h-0.5v7.9h0.5v7.9h-0.5v7.9h0.5v7.9h-0.5v7.9h0.5
	v7.9h-0.5v7.9h0.5v7.9h-0.5v7.9h0.5v7.9h-0.5v3.1c0,0,0,0,0,0c-0.6-0.3-1.5-0.7-3-1.1l-0.1,0.5c-1.8-0.5-4.3-1-7.9-1.4l0-0.5
	c-2.2-0.3-4.9-0.5-8.1-0.7l0,0.5c-2.4-0.1-5-0.2-8-0.3l0-0.5c-2.5,0-5.2,0-8.1,0l0,0.5c-2.5,0-5.2,0.1-8,0.2l0-0.5
	c-2.5,0.1-5.2,0.2-8,0.3l0,0.5c-2.5,0.1-5.2,0.3-8,0.5l0-0.5c-2.6,0.2-5.3,0.4-8.1,0.6l0,0.5c-2.6,0.2-5.3,0.4-8.1,0.7l-0.1-0.5
	c-2.6,0.2-5.2,0.5-8,0.7l0.1,0.5c-2.6,0.2-5.2,0.5-8,0.8l0-0.5c-2.6,0.3-5.3,0.6-8.1,0.9l0.1,0.5c-2.6,0.3-5.3,0.6-8,0.9l-0.1-0.5
	c-2.6,0.3-5.2,0.6-7.9,0.9l0.1,0.5c-2.6,0.3-5.3,0.7-8.1,1l-0.1-0.5c-2.6,0.3-5.2,0.7-7.9,1l0.1,0.5c-2.6,0.3-5.3,0.7-8,1.1
	l-0.1-0.5c-2.6,0.4-5.2,0.7-7.9,1.1l0.1,0.5c-2.6,0.4-5.3,0.8-8,1.1l-0.1-0.5c-2.6,0.4-5.2,0.8-7.9,1.2l0.1,0.5
	c-2.6,0.4-5.3,0.8-8,1.2l-0.1-0.5c-2.6,0.4-5.2,0.8-7.9,1.2l0.1,0.5c-2.7,0.4-5.4,0.8-8.1,1.3l-0.1-0.5c-2.6,0.4-5.2,0.8-7.8,1.3
	l0.1,0.5c-2.6,0.4-5.3,0.9-8,1.3l-0.1-0.5c-2.6,0.4-5.2,0.9-7.9,1.3l0.1,0.5c-2.6,0.4-5.2,0.9-7.9,1.3l-0.1-0.5
	c-2.7,0.5-5.3,0.9-8.1,1.4l0.1,0.5c-2.6,0.4-5.2,0.9-7.8,1.4l-0.1-0.5c-0.9,0.1-1.7,0.3-2.6,0.4c-1.8,0.3-3.6,0.6-5.4,1l0.1,0.5
	c-2.6,0.5-5.3,0.9-8,1.4l-0.1-0.5c-2.6,0.5-5.2,0.9-7.8,1.4l0.1,0.5c-2.6,0.5-5.3,1-8,1.5l-0.1-0.5c-1.3,0.2-2.7,0.5-4.1,0.7
	c-0.8,0.1-1.6,0.3-2.4,0.4c-0.5,0.1-1,0.2-1.5,0.3l0.1,0.5c-2.6,0.5-5.2,0.9-7.8,1.4l-0.1-0.5c-2.6,0.4-5.2,0.9-7.9,1.3l0.1,0.5
	c-2.6,0.4-5.2,0.8-7.9,1.2l-0.1-0.5c-2.6,0.4-5.2,0.8-7.8,1.1l0.1,0.5c-2.6,0.4-5.3,0.7-7.9,1.1l-0.1-0.5c-2.6,0.4-5.3,0.7-7.9,1
	l0.1,0.5c-2.6,0.3-5.2,0.7-7.8,1l-0.1-0.5c-2.6,0.3-5.3,0.6-7.9,0.9l0.1,0.5c-2.7,0.3-5.3,0.6-8,0.9l-0.1-0.5
	c-2.6,0.3-5.2,0.5-7.8,0.8l0,0.5c-2.6,0.3-5.3,0.5-7.9,0.8l-0.1-0.5c-2.7,0.3-5.3,0.5-8,0.7l0,0.5c-2.6,0.2-5.3,0.5-7.9,0.7l0-0.5
	c-2.6,0.2-5.3,0.4-7.9,0.6l0,0.5c-2.6,0.2-5.3,0.4-7.9,0.6l0-0.5c-2.7,0.2-5.3,0.4-8,0.6l0,0.5c-2.6,0.2-5.3,0.4-7.9,0.5l0-0.5
	c-2.6,0.2-5.3,0.3-7.9,0.5l0,0.5c-2.7,0.2-5.3,0.3-8,0.5l0-0.5c-2.6,0.1-5.3,0.3-7.9,0.4l0,0.5c-2.6,0.1-5.3,0.3-7.9,0.4l0-0.5
	c-2.6,0.1-5.3,0.2-8,0.4l0,0.5c-2.7,0.1-5.3,0.2-8,0.3l0-0.5c-2.6,0.1-5.3,0.2-7.9,0.3l0,0.5c-2.6,0.1-5.3,0.2-7.9,0.3l0-0.5
	c-2.7,0.1-5.3,0.2-8,0.3l0,0.5c-2.7,0.1-5.3,0.2-8,0.2l0-0.5c-2.6,0.1-5.3,0.1-7.9,0.2l0,0.5c-2.7,0.1-5.3,0.1-8,0.2l0-0.5
	c-2.7,0.1-5.3,0.1-8,0.2l0,0.5c-2.7,0-5.3,0.1-8,0.1l0-0.5c-2.7,0-5.3,0.1-8,0.1l0,0.5c-2.7,0-5.3,0.1-8,0.1l0-0.5
	c-2.7,0-5.3,0-8,0.1l0,0.5c-2.7,0-5.3,0-8,0l0-0.5c-2.7,0-5.3,0-8,0v0.5c-2.7,0-5.3,0-8,0l0-0.5c-1.4,0-2.9,0-4.3,0
	c-1.2,0-2.4,0-3.6,0l0,0.5c-2.7,0-5.3,0-8,0l0-0.5c-2.7,0-5.3,0-8-0.1l0,0.5c-2.6,0-5.3,0-7.9-0.1l0-0.5c-2.7,0-5.3-0.1-8-0.1l0,0.5
	c-2.7,0-5.3-0.1-8-0.1l0-0.5c-2.7,0-5.3-0.1-7.9-0.1l0,0.5c-2.6,0-5.3-0.1-7.9-0.1l0-0.5c-2.7-0.1-5.3-0.1-8-0.2l0,0.5
	c-2.7-0.1-5.3-0.1-8-0.2l0-0.5c-2.6-0.1-5.3-0.1-7.9-0.2l0,0.5c-2.7-0.1-5.3-0.1-8-0.2l0-0.5c-2.7-0.1-5.3-0.2-8-0.2l0,0.5
	c-2.7-0.1-5.3-0.2-7.9-0.2l0-0.5c-2.6-0.1-5.3-0.2-7.9-0.3l0,0.5c-2.7-0.1-5.4-0.2-8-0.3l0-0.5c-2.7-0.1-5.3-0.2-8-0.3l0,0.5
	c-2.6-0.1-5.3-0.2-7.9-0.3l0-0.5c-2.7-0.1-5.3-0.2-8-0.3l0,0.5c-2.7-0.1-5.3-0.2-8-0.3l0-0.5c-2.7-0.1-5.3-0.2-7.9-0.4l0,0.5
	c-2.7-0.1-5.3-0.2-7.9-0.4l0-0.5c-2.7-0.1-5.4-0.3-8-0.4l0,0.5c-2.7-0.1-5.3-0.3-7.9-0.4l0-0.5c-2.6-0.1-5.3-0.3-7.9-0.4l0,0.5
	c-2.7-0.1-5.4-0.3-8-0.4l0-0.5c-2.7-0.1-5.3-0.3-7.9-0.4l0,0.5c-2.6-0.1-5.2-0.3-7.8-0.4l0-0.5c-2.7-0.2-5.4-0.3-8.1-0.5l0,0.5
	c-2.7-0.2-5.3-0.3-7.9-0.5l0-0.5c-2.6-0.2-5.2-0.3-7.8-0.5l0,0.5c-2.7-0.2-5.4-0.3-8.1-0.5l0-0.5c-2.7-0.2-5.3-0.3-7.9-0.5l0,0.5
	c-2.6-0.2-5.3-0.3-7.9-0.5l0-0.5c-2.7-0.2-5.4-0.4-8.1-0.5l0,0.5c-2.7-0.2-5.3-0.4-7.9-0.5l0-0.5c-2.7-0.2-5.4-0.4-8-0.6l0,0.5
	c-2.7-0.2-5.4-0.4-8-0.6l0-0.5c-2.6-0.2-5.2-0.4-7.8-0.6l0,0.5c-2.8-0.2-5.5-0.4-8.1-0.6l0-0.5c-2.6-0.2-5.2-0.4-7.8-0.6l0,0.5
	c-2.8-0.2-5.5-0.4-8.1-0.6l0-0.5c-2.7-0.2-5.3-0.4-7.8-0.6l0,0.5c-2.8-0.2-5.5-0.4-8.1-0.7l0-0.5c-2.7-0.2-5.3-0.4-7.7-0.7l0,0.5
	c-2.8-0.2-5.5-0.5-8.1-0.7l0-0.5c-2.8-0.2-5.4-0.5-7.9-0.7l0,0.5c-2.8-0.2-5.4-0.5-7.7-0.7l0-0.5c-3-0.3-5.6-0.5-8-0.7l0,0.5
	c-3.4-0.3-6.1-0.6-8.1-0.8l0-0.5c-1.2-0.1-2.1-0.2-2.8-0.3c-0.3,0-0.5-0.1-0.7-0.1l-0.2,0l0,0l0,0h0l0,0l-0.1,0.5l0.1-0.5h0h0h0l0,0
	l0,0l-0.2,0c-0.2,0-0.4,0-0.7-0.1c-0.6-0.1-1.6-0.1-2.9-0.3l0,0.5c-2-0.2-4.6-0.4-8-0.6l0-0.5c-2.3-0.2-5-0.4-8-0.6l0,0.5
	c-2.5-0.2-5.1-0.4-8-0.5l0-0.5c-2.5-0.2-5.1-0.3-7.9-0.5l0,0.5c-2.5-0.1-5.2-0.3-7.9-0.5l0-0.5c-2.6-0.1-5.2-0.3-8-0.4l0,0.5
	c-2.6-0.1-5.3-0.3-8.1-0.4l0-0.5c-2.5-0.1-5.2-0.2-7.9-0.3l0,0.5c-2.6-0.1-5.3-0.2-8-0.3l0-0.5c-2.6-0.1-5.3-0.2-8-0.3l0,0.5
	c-2.6-0.1-5.2-0.2-7.9-0.2l0-0.5c-2.6-0.1-5.3-0.1-8-0.2l0,0.5c-2.6-0.1-5.2-0.1-7.9-0.2l0-0.5c-2.6-0.1-5.3-0.1-8-0.2l0,0.5
	c-2.6,0-5.2-0.1-7.9-0.1l0-0.5c-2.6,0-5.3-0.1-8-0.1l0,0.5c-2.6,0-5.3,0-7.9-0.1l0-0.5c-2.6,0-5.3,0-8,0v0.5c-2.6,0-5.3,0-8,0l0-0.5
	c-2.6,0-5.3,0-8,0l0,0.5c-2.6,0-5.3,0-8,0.1l0-0.5c-2.6,0-5.3,0.1-7.9,0.1l0,0.5c-2.7,0-5.3,0.1-8,0.2l0-0.5
	c-2.6,0.1-5.3,0.1-7.9,0.2l0,0.5c-2.7,0.1-5.3,0.1-8,0.2l0-0.5c-2.6,0.1-5.3,0.2-8,0.3l0,0.5c-2.6,0.1-5.3,0.2-8,0.3l0-0.5
	c-2.7,0.1-5.3,0.2-8,0.3l0,0.5c-2.6,0.1-5.3,0.2-7.9,0.4l0-0.5c-2.7,0.1-5.3,0.3-8,0.4l0,0.5c-2.6,0.1-5.3,0.3-7.9,0.4l0-0.5
	c-2.6,0.2-5.3,0.3-8,0.5l0,0.5c-2.7,0.2-5.3,0.3-8,0.5l0-0.5c-2.6,0.2-5.3,0.4-7.9,0.6l0,0.5c-2.6,0.2-5.3,0.4-8,0.6l0-0.5
	c-2.6,0.2-5.3,0.4-7.9,0.7l0,0.5c-2.6,0.2-5.3,0.5-7.9,0.7l0-0.5c-2.6,0.2-5.3,0.5-8,0.8l0,0.5c-2.6,0.3-5.3,0.5-7.9,0.8l-0.1-0.5
	c-2.6,0.3-5.3,0.6-7.9,0.8l0.1,0.5c-2.6,0.3-5.3,0.6-7.9,0.9l-0.1-0.5c-2.6,0.3-5.3,0.6-7.9,0.9l0.1,0.5c-2.6,0.3-5.3,0.7-7.9,1
	l-0.1-0.5c-2.6,0.3-5.3,0.7-7.9,1.1l0.1,0.5c-2.6,0.4-5.3,0.7-7.9,1.1l-0.1-0.5c-2.6,0.4-5.3,0.8-7.9,1.2l0.1,0.5
	c-2.6,0.4-5.3,0.8-7.9,1.2l-0.1-0.5c-2.6,0.4-5.3,0.8-7.9,1.3l0.1,0.5c-2.6,0.4-5.2,0.9-7.9,1.3l-0.1-0.5c-2.6,0.5-5.2,0.9-7.9,1.4
	l0.1,0.5c-2.6,0.5-5.2,1-7.8,1.5l-0.1-0.5c-2.6,0.5-5.2,1-7.8,1.5l0.1,0.5c-2.6,0.5-5.2,1.1-7.8,1.6l-0.1-0.5
	c-2.6,0.5-5.2,1.1-7.8,1.7l0.1,0.5c-2.6,0.6-5.2,1.2-7.8,1.8l-0.1-0.5c-2.6,0.6-5.2,1.2-7.8,1.8l0.1,0.5c-2.6,0.6-5.2,1.3-7.8,1.9
	l-0.1-0.5c-2.6,0.7-5.2,1.3-7.7,2l0.1,0.5c-2.6,0.7-5.1,1.4-7.7,2.1L9,69.5c-2.6,0.7-5.2,1.4-7.7,2.2l0.1,0.5
	c-2.6,0.7-5.1,1.5-7.6,2.2l-0.1-0.5c-1.1,0.3-2.1,0.6-3.1,1v-3.3H-10v-8h0.5v-8H-10v-8h0.5v-8H-10v-8h0.5v-8H-10v-8h0.5v-8H-10v-8
	h0.5v-8H-10v-8h0.5v-8H-10v-8h0.5v-8H-10v-8h0.5v-8H-10v-8h0.5v-8H-10v-8h0.5v-8H-10v-8h0.5v-8H-10v-8h0.5v-8H-10v-8h0.5v-8H-10v-8
	h0.5v-8H-10v-8h0.5v-8H-10v-8h0.5v-8H-10v-8h0.5v-8H-10v-8h0.5v-8H-10v-8h0.5v-8H-10v-8h0.5v-8H-10v-8h0.5v-8H-10v-8h0.5v-8H-10v-8
	h0.5v-8H-10v-8h0.5v-8H-10v-8h0.5v-8H-10v-8h0.5v-8H-10v-8h0.5v-8H-10v-8h0.5v-8H-10v-8h0.5v-8H-10v-8h0.5v-8H-10v-8h0.5v-8H-10v-8
	h0.5v-8H-10v-8h0.5v-8H-10v-8h0.5v-8H-10v-8h0.5V-485.8z"/>
</svg>
