<?xml version="1.0" encoding="utf-8"?>
<!-- Generator: Adobe Illustrator 24.1.3, SVG Export Plug-In . SVG Version: 6.00 Build 0)  -->
<svg version="1.1" id="Layer_1" xmlns="http://www.w3.org/2000/svg" xmlns:xlink="http://www.w3.org/1999/xlink" x="0px" y="0px"
	 viewBox="0 0 1440 137.3" style="enable-background:new 0 0 1440 137.3;" xml:space="preserve">
<style type="text/css">
	.st0{fill:#F8F1EB;stroke:#000000;stroke-dasharray:8,8;}
</style>
<path class="st0" d="M-10-549l0-7.9l0.5,0l0-3.1c0,0,0.1,0,0.1,0.1c0.6,0.3,1.4,0.8,2.6,1.3l0.2-0.4c1.7,0.9,4.1,2.1,7.1,3.5
	l-0.2,0.5c2.1,1,4.5,2.1,7.2,3.3l0.2-0.5c2.2,1,4.6,2,7.2,3.2l-0.2,0.5c2.3,1,4.7,2,7.3,3l0.2-0.5c2.3,0.9,4.8,1.9,7.3,2.9l-0.2,0.5
	c2.4,0.9,4.8,1.9,7.4,2.8l0.2-0.5c2.4,0.9,4.9,1.8,7.5,2.7l-0.2,0.5c2.4,0.9,4.9,1.7,7.4,2.6l0.2-0.5c2.4,0.8,4.9,1.7,7.5,2.5
	l-0.2,0.5c2.5,0.8,5,1.6,7.6,2.4l0.1-0.5c2.5,0.8,5,1.5,7.5,2.3l-0.1,0.5c2.5,0.7,5,1.5,7.5,2.2l0.1-0.5c2.5,0.7,5.1,1.4,7.7,2.2
	l-0.1,0.5c2.5,0.7,5,1.4,7.5,2l0.1-0.5c2.5,0.7,5.1,1.3,7.7,2l-0.1,0.5c2.5,0.6,5.1,1.3,7.6,1.9l0.1-0.5c2.5,0.6,5.1,1.2,7.7,1.8
	l-0.1,0.5c2.5,0.6,5.1,1.2,7.7,1.7l0.1-0.5c2.5,0.6,5.1,1.1,7.7,1.7l-0.1,0.5c2.5,0.5,5.1,1.1,7.7,1.6l0.1-0.5
	c2.6,0.5,5.1,1,7.8,1.5l-0.1,0.5c2.6,0.5,5.1,1,7.8,1.4l0.1-0.5c2.6,0.5,5.2,0.9,7.8,1.4l-0.1,0.5c2.6,0.4,5.1,0.9,7.8,1.3l0.1-0.5
	c2.6,0.4,5.2,0.8,7.9,1.2l-0.1,0.5c2.6,0.4,5.1,0.8,7.7,1.1l0.1-0.5c2.6,0.4,5.2,0.7,7.9,1.1l-0.1,0.5c2.6,0.3,5.2,0.7,7.8,1
	l0.1-0.5c2.6,0.3,5.2,0.6,7.8,0.9l-0.1,0.5c2.6,0.3,5.2,0.6,7.9,0.9l0.1-0.5c2.6,0.3,5.2,0.5,7.8,0.8l0,0.5c2.6,0.3,5.3,0.5,7.9,0.7
	l0-0.5c2.6,0.2,5.2,0.4,7.8,0.7l0,0.5c2.6,0.2,5.2,0.4,7.9,0.6l0-0.5c2.6,0.2,5.3,0.4,7.9,0.5l0,0.5c2.6,0.2,5.2,0.3,7.8,0.5l0-0.5
	c2.6,0.1,5.3,0.3,7.9,0.4l0,0.5c2.6,0.1,5.2,0.2,7.9,0.3l0-0.5c2.6,0.1,5.2,0.2,7.9,0.3l0,0.5c2.6,0.1,5.3,0.2,8,0.2l0-0.5
	c2.6,0.1,5.2,0.1,7.8,0.1l0,0.5c2.6,0,5.2,0.1,7.9,0.1l0-0.5c2.6,0,5.3,0,8,0l0,0.5c2.6,0,5.2,0,7.8,0l0-0.5c2.6,0,5.2-0.1,7.9-0.1
	l0,0.5c2.6,0,5.3-0.1,8-0.2l0-0.5c2.6-0.1,5.2-0.1,7.8-0.2l0,0.5c2.6-0.1,5.2-0.2,7.9-0.3l0-0.5c2.6-0.1,5.3-0.2,8-0.3l0,0.5
	c2.6-0.1,5.2-0.2,7.8-0.4l0-0.5c2.6-0.1,5.2-0.3,7.9-0.4l0,0.5c2.6-0.2,5.3-0.3,7.9-0.5l0-0.5c2.6-0.2,5.2-0.4,7.8-0.6l0,0.5
	c2.6-0.2,5.2-0.4,7.8-0.6l0-0.5c2.6-0.2,5.3-0.4,7.9-0.7l0,0.5c1.3-0.1,2.7-0.2,4-0.4c1.3-0.1,2.7-0.2,4-0.4l0-0.5
	c2.7-0.2,5.3-0.5,8-0.7l0,0.5c2.6-0.2,5.3-0.4,7.9-0.7l0-0.5c2.6-0.2,5.3-0.4,7.9-0.6l0,0.5c2.7-0.2,5.3-0.4,8-0.6l0-0.5
	c2.7-0.2,5.3-0.4,7.9-0.6l0,0.5c2.6-0.2,5.3-0.3,7.9-0.5l0-0.5c2.7-0.2,5.3-0.3,8-0.5l0,0.5c2.7-0.2,5.3-0.3,8-0.4l0-0.5
	c2.6-0.1,5.3-0.3,7.9-0.4l0,0.5c2.7-0.1,5.3-0.3,8-0.4l0-0.5c2.7-0.1,5.3-0.2,8-0.3l0,0.5c2.6-0.1,5.3-0.2,7.9-0.3l0-0.5
	c2.7-0.1,5.3-0.2,8-0.3l0,0.5c2.7-0.1,5.3-0.2,8-0.2l0-0.5c2.7-0.1,5.3-0.1,7.9-0.2l0,0.5c2.7-0.1,5.3-0.1,8-0.2l0-0.5
	c2.7,0,5.3-0.1,8-0.1l0,0.5c2.7,0,5.3-0.1,7.9-0.1l0-0.5c2.7,0,5.3,0,8-0.1l0,0.5c2.7,0,5.3,0,8,0l0-0.5c2.7,0,5.3,0,7.9,0l0,0.5
	c2.7,0,5.3,0,8,0l0-0.5c2.7,0,5.3,0,8,0.1l0,0.5c2.6,0,5.3,0.1,7.9,0.1l0-0.5c2.7,0,5.4,0.1,8,0.1l0,0.5c2.7,0,5.3,0.1,8,0.2l0-0.5
	c2.6,0.1,5.3,0.1,7.9,0.2l0,0.5c2.7,0.1,5.4,0.1,8,0.2l0-0.5c2.7,0.1,5.3,0.2,7.9,0.3l0,0.5c2.7,0.1,5.3,0.2,7.9,0.3l0-0.5
	c2.7,0.1,5.4,0.2,8,0.3l0,0.5c2.7,0.1,5.3,0.2,7.9,0.4l0-0.5c2.7,0.1,5.3,0.3,8,0.4l0,0.5c2.7,0.1,5.3,0.3,8,0.4l0-0.5
	c2.6,0.1,5.3,0.3,7.9,0.4l0,0.5c2.7,0.2,5.4,0.3,8,0.5l0-0.5c2.7,0.2,5.3,0.3,7.9,0.5l0,0.5c2.7,0.2,5.3,0.4,8,0.5l0-0.5
	c2.7,0.2,5.3,0.4,8,0.6l0,0.5c2.6,0.2,5.3,0.4,7.9,0.6l0-0.5c2.7,0.2,5.4,0.4,8,0.6l0,0.5c2.6,0.2,5.3,0.4,7.9,0.7l0-0.5
	c2.7,0.2,5.4,0.5,8,0.7l0,0.5c2.7,0.2,5.3,0.5,7.9,0.7l0-0.5c2.7,0.3,5.3,0.5,7.9,0.8l0,0.5c2.7,0.3,5.3,0.5,7.9,0.8l0.1-0.5
	c2.7,0.3,5.3,0.5,7.9,0.8l-0.1,0.5c2.7,0.3,5.3,0.6,7.9,0.9l0.1-0.5c2.7,0.3,5.3,0.6,7.9,0.9l-0.1,0.5c2.7,0.3,5.3,0.6,7.9,0.9
	l0.1-0.5c2.7,0.3,5.3,0.6,7.9,1l-0.1,0.5c2.7,0.3,5.3,0.7,7.9,1l0.1-0.5c2.7,0.3,5.3,0.7,7.9,1l-0.1,0.5c2.7,0.3,5.3,0.7,7.8,1
	l0.1-0.5c2.7,0.4,5.4,0.7,8,1.1l-0.1,0.5c2.7,0.4,5.3,0.8,7.9,1.1l0.1-0.5c2.7,0.4,5.3,0.8,7.8,1.2l-0.1,0.5c2.8,0.4,5.4,0.8,8,1.2
	l0.1-0.5c2.8,0.4,5.4,0.9,7.9,1.3l-0.1,0.5c2.8,0.5,5.4,0.9,7.9,1.3l0.1-0.5c2.8,0.5,5.4,0.9,7.9,1.3l-0.1,0.5
	c2.9,0.5,5.5,1,7.8,1.4l0.1-0.5c3.3,0.6,6,1.1,7.9,1.5l-0.1,0.5c1.2,0.2,2.2,0.4,2.8,0.6c0.3,0.1,0.6,0.1,0.7,0.1l0.2,0l0,0l0,0l0,0
	v0l0.1-0.5l-0.1,0.5l0,0l0,0l0,0l0,0l0,0l0,0l0.2,0c0.2,0,0.4,0.1,0.7,0.1c0.7,0.1,1.6,0.3,2.9,0.4l0.1-0.5c1.9,0.3,4.5,0.7,7.8,1.2
	l-0.1,0.5c2.3,0.4,5,0.7,7.9,1.2l0.1-0.5c2.5,0.4,5.1,0.8,8,1.2l-0.1,0.5c2.5,0.4,5.2,0.8,8.1,1.2l0.1-0.5c2.5,0.4,5.1,0.7,7.8,1.1
	l-0.1,0.5c2.6,0.4,5.2,0.7,8,1.1l0.1-0.5c2.6,0.4,5.3,0.7,8,1.1l-0.1,0.5c2.6,0.4,5.2,0.7,7.9,1.1l0.1-0.5c2.6,0.4,5.3,0.7,8.1,1.1
	l-0.1,0.5c2.5,0.4,5.2,0.7,7.8,1.1l0.1-0.5c2.6,0.4,5.3,0.7,8.1,1.1l-0.1,0.5c2.6,0.3,5.2,0.7,7.8,1l0.1-0.5c2.6,0.3,5.3,0.7,8,1.1
	l-0.1,0.5c2.6,0.3,5.2,0.7,7.9,1l0.1-0.5c2.6,0.3,5.3,0.7,8,1l-0.1,0.5c2.6,0.3,5.3,0.7,8,1l0.1-0.5c2.6,0.3,5.3,0.7,7.9,1l-0.1,0.5
	c2.7,0.3,5.3,0.7,8,1l0.1-0.5c2.6,0.3,5.2,0.6,7.9,1l-0.1,0.5c2.7,0.3,5.3,0.6,8,1l0.1-0.5c2.6,0.3,5.3,0.6,7.9,0.9l-0.1,0.5
	c2.6,0.3,5.3,0.6,7.9,0.9l0.1-0.5c2.7,0.3,5.3,0.6,8,0.9l-0.1,0.5c2.6,0.3,5.3,0.6,7.9,0.9l0.1-0.5c2.7,0.3,5.3,0.6,8,0.9l-0.1,0.5
	c2.6,0.3,5.3,0.6,8,0.9l0.1-0.5c2.6,0.3,5.3,0.6,8,0.9l-0.1,0.5c2.7,0.3,5.3,0.6,8,0.9l0.1-0.5c2.6,0.3,5.3,0.6,7.9,0.8l0,0.5
	c2.7,0.3,5.3,0.5,8,0.8l0.1-0.5c2.6,0.3,5.3,0.5,8,0.8l-0.1,0.5c2.7,0.3,5.3,0.5,8,0.8l0.1-0.5c2.7,0.3,5.3,0.5,8,0.8l-0.1,0.5
	c2.7,0.2,5.3,0.5,8,0.7l0-0.5c2.7,0.2,5.3,0.5,8,0.7l0,0.5c2.7,0.2,5.3,0.5,8,0.7l0-0.5c2.7,0.2,5.3,0.5,8,0.7l0,0.5
	c2.7,0.2,5.3,0.4,8,0.7l0-0.5c2.7,0.2,5.3,0.4,8,0.6l0,0.5c2.7,0.2,5.3,0.4,8,0.6l0-0.5c2.7,0.2,5.3,0.4,8,0.6l0,0.5
	c2.7,0.2,5.3,0.4,8,0.6l0-0.5c2.7,0.2,5.3,0.4,8,0.5l0,0.5c2.7,0.2,5.3,0.3,8,0.5l0-0.5c2.7,0.2,5.4,0.3,8.1,0.5l0,0.5
	c2.7,0.2,5.3,0.3,8,0.4l0-0.5c2.7,0.1,5.3,0.3,8,0.4l0,0.5c2.7,0.1,5.4,0.2,8,0.4l0-0.5c2.7,0.1,5.3,0.2,7.9,0.3l0,0.5
	c2.7,0.1,5.4,0.2,8.1,0.3l0-0.5c2.7,0.1,5.3,0.2,8,0.2l0,0.5c2.7,0.1,5.4,0.1,8,0.2l0-0.5c2.7,0,5.4,0.1,8,0.1v0.5
	c2.7,0,5.3,0,8,0.1v-0.5c2.7,0,5.4,0,8.1,0v0.5c2.7,0,5.3,0,7.9-0.1l0-0.5c2.8,0,5.5-0.1,8.1-0.2l0,0.5c2.7-0.1,5.3-0.2,7.9-0.3
	l0-0.5c2.8-0.1,5.5-0.2,8.1-0.4l0,0.5c2.7-0.1,5.3-0.3,7.9-0.5l0-0.5c2.8-0.2,5.5-0.4,8.1-0.6l0,0.5c2.7-0.2,5.3-0.5,7.9-0.8
	l-0.1-0.5c2.8-0.3,5.4-0.7,8-1l0.1,0.5c1.1-0.2,2.2-0.3,3.2-0.5v3.4h0.5v7.9h-0.5v7.9h0.5v7.9h-0.5v7.9h0.5v7.9h-0.5v7.9h0.5v7.9
	h-0.5v7.9h0.5v7.9h-0.5v7.9h0.5v7.9h-0.5v7.9h0.5v7.9h-0.5v7.9h0.5v7.9h-0.5v7.9h0.5v7.9h-0.5v7.9h0.5v7.9h-0.5v7.9h0.5v7.9h-0.5
	v7.9h0.5v7.9h-0.5v7.9h0.5v7.9h-0.5v7.9h0.5v7.9h-0.5v7.9h0.5v7.9h-0.5v7.9h0.5v7.9h-0.5v7.9h0.5v7.9h-0.5v7.9h0.5v7.9h-0.5v7.9h0.5
	v7.9h-0.5v7.9h0.5v7.9h-0.5v7.9h0.5v7.9h-0.5v7.9h0.5v7.9h-0.5v7.9h0.5v7.9h-0.5v7.9h0.5v7.9h-0.5v7.9h0.5v7.9h-0.5v7.9h0.5v7.9
	h-0.5v7.9h0.5v7.9h-0.5v7.9h0.5v7.9h-0.5v3.5l-0.5,0c-0.7,0-1.7,0-3,0.1l0,0.5c-2,0-4.7,0.1-8.1,0.2l0-0.5c-1.3,0-2.7,0.1-4.2,0.1
	c-1.3,0-2.6,0.1-4,0.1l0,0.5c-2.5,0.1-5.2,0.2-8.1,0.2l0-0.5c-2.5,0.1-5.2,0.2-8,0.3l0,0.5c-2.6,0.1-5.3,0.2-8.1,0.3l0-0.5
	c-2.6,0.1-5.4,0.2-8.2,0.3l0,0.5c-2.6,0.1-5.3,0.2-8.1,0.3l0-0.5c-2.6,0.1-5.3,0.2-8.1,0.3l0,0.5c-2.7,0.1-5.4,0.2-8.2,0.4l0-0.5
	c-2.6,0.1-5.3,0.2-8,0.4l0,0.5c-2.7,0.1-5.4,0.3-8.2,0.4l0-0.5c-2.6,0.1-5.3,0.3-8,0.4l0,0.5c-2.7,0.1-5.4,0.3-8.2,0.4l0-0.5
	c-2.6,0.1-5.3,0.3-8,0.4l0,0.5c-2.7,0.1-5.4,0.3-8.2,0.4l0-0.5c-0.9,0.1-1.8,0.1-2.8,0.2c-1.7,0.1-3.5,0.2-5.3,0.3l0,0.5
	c-2.7,0.2-5.4,0.3-8.2,0.5l0-0.5c-2.6,0.2-5.3,0.3-8,0.5l0,0.5c-2.7,0.2-5.4,0.3-8.1,0.5l0-0.5c-2.7,0.2-5.4,0.3-8.1,0.5l0,0.5
	c-2.7,0.2-5.4,0.4-8.1,0.5l0-0.5c-2.7,0.2-5.4,0.4-8.2,0.6l0,0.5c-2.7,0.2-5.3,0.4-8,0.6l0-0.5c-2.7,0.2-5.4,0.4-8.1,0.6l0,0.5
	c-2.7,0.2-5.4,0.4-8.1,0.6l0-0.5c-2.7,0.2-5.4,0.4-8.1,0.6l0,0.5c-2.7,0.2-5.4,0.4-8.2,0.6l0-0.5c-2.7,0.2-5.3,0.4-8,0.6l0,0.5
	c-2.7,0.2-5.4,0.4-8.1,0.7l0-0.5c-2.7,0.2-5.4,0.4-8.1,0.7l0,0.5c-2.7,0.2-5.4,0.5-8.1,0.7l0-0.5c-1.1,0.1-2.1,0.2-3.2,0.3
	c-1.6,0.1-3.3,0.3-4.9,0.4l0.1,0.5c-2.7,0.2-5.4,0.5-8.1,0.7l0-0.5c-2.7,0.2-5.4,0.5-8.1,0.7l0.1,0.5c-2.7,0.2-5.4,0.5-8.1,0.8
	l-0.1-0.5c-2.7,0.3-5.3,0.5-8,0.8l0,0.5c-2.7,0.3-5.4,0.5-8.1,0.8l0-0.5c-2.7,0.3-5.4,0.5-8.1,0.8l0.1,0.5c-2.7,0.3-5.4,0.5-8,0.8
	l-0.1-0.5c-2.7,0.3-5.4,0.6-8.1,0.8l0.1,0.5c-2.7,0.3-5.4,0.6-8.1,0.9l0-0.5c-2.7,0.3-5.4,0.6-8.1,0.9l0.1,0.5
	c-2.7,0.3-5.4,0.6-8.1,0.9l0-0.5c-2.7,0.3-5.4,0.6-8.1,0.9l0.1,0.5c-2.7,0.3-5.4,0.6-8.1,0.9l0-0.5c-2.7,0.3-5.4,0.6-8.1,1l0.1,0.5
	c-2.7,0.3-5.4,0.7-8.1,1l-0.1-0.5c-1.2,0.1-2.3,0.3-3.5,0.4c-1.5,0.2-3,0.4-4.5,0.6l0.1,0.5c-2.7,0.3-5.4,0.7-8.1,1l-0.1-0.5
	c-2.7,0.3-5.4,0.7-8.1,1l0.1,0.5c-2.7,0.4-5.4,0.7-8,1.1l-0.1-0.5c-2.7,0.4-5.4,0.7-8,1.1l0.1,0.5c-2.7,0.4-5.4,0.7-8,1.1l-0.1-0.5
	c-2.7,0.4-5.4,0.8-8,1.1l0.1,0.5c-2.7,0.4-5.4,0.8-8,1.2l-0.1-0.5c-2.7,0.4-5.4,0.8-8,1.2l0.1,0.5c-2.7,0.4-5.4,0.8-8,1.2l-0.1-0.5
	c-2.7,0.4-5.3,0.8-8,1.2l0.1,0.5c-2.7,0.4-5.3,0.8-8,1.3l-0.1-0.5c-2.7,0.4-5.4,0.9-8,1.3l0.1,0.5c-2.7,0.4-5.3,0.9-8,1.3l-0.1-0.5
	c-2.7,0.4-5.3,0.9-8,1.4l0.1,0.5c-2.7,0.5-5.3,0.9-8,1.4l-0.1-0.5c-2.7,0.5-5.3,0.9-8,1.4l0.1,0.5c-2.7,0.5-5.3,1-8,1.4l-0.1-0.5
	c-2.7,0.5-5.3,1-8,1.5l0.1,0.5c-2.7,0.5-5.3,1-8,1.5L895,58c-1.3,0.3-2.6,0.5-4,0.8c-0.6,0.1-1.2,0.2-1.8,0.4
	c-0.7,0.1-1.4,0.3-2.1,0.4l0.1,0.5c-2.6,0.5-5.3,1-7.9,1.5l-0.1-0.5c-2.6,0.5-5.3,1-7.9,1.4l0.1,0.5c-2.6,0.5-5.3,0.9-7.9,1.4
	l-0.1-0.5c-2.6,0.5-5.3,0.9-7.9,1.3l0.1,0.5c-2.6,0.4-5.3,0.9-7.9,1.3l-0.1-0.5c-2.7,0.4-5.3,0.8-7.9,1.2l0.1,0.5
	c-2.7,0.4-5.3,0.8-8,1.2l-0.1-0.5c-2.6,0.4-5.3,0.8-7.9,1.1l0.1,0.5c-2.7,0.4-5.3,0.7-8,1.1l-0.1-0.5c-2.7,0.4-5.3,0.7-8,1l0.1,0.5
	c-2.7,0.3-5.3,0.7-7.9,1l-0.1-0.5c-2.7,0.3-5.3,0.6-8,0.9l0.1,0.5c-2.7,0.3-5.3,0.6-8,0.9l-0.1-0.5c-2.7,0.3-5.3,0.6-8,0.8l0.1,0.5
	c-2.7,0.3-5.4,0.5-8,0.8l0-0.5c-2.7,0.3-5.3,0.5-8,0.8l0,0.5c-2.7,0.2-5.3,0.5-8,0.7l0-0.5c-2.7,0.2-5.4,0.5-8,0.7l0,0.5
	c-2.7,0.2-5.3,0.4-8,0.6l0-0.5c-2.7,0.2-5.4,0.4-8,0.6l0,0.5c-2.7,0.2-5.4,0.4-8,0.5l0-0.5c-2.7,0.2-5.3,0.3-8,0.5l0,0.5
	c-2.7,0.2-5.4,0.3-8.1,0.5l0-0.5c-2.7,0.1-5.4,0.3-8,0.4l0,0.5c-2.7,0.1-5.3,0.3-8,0.4l0-0.5c-2.7,0.1-5.4,0.2-8.1,0.3l0,0.5
	c-2.7,0.1-5.3,0.2-8,0.3l0-0.5c-2.7,0.1-5.4,0.2-8.1,0.2l0,0.5c-2.7,0.1-5.4,0.1-8,0.2l0-0.5c-2.7,0.1-5.3,0.1-8,0.2l0,0.5
	c-2.7,0-5.4,0.1-8.1,0.1l0-0.5c-2.7,0-5.3,0.1-8,0.1l0,0.5c-2.7,0-5.4,0-8.1,0l0-0.5c-2.7,0-5.4,0-8,0v0.5c-2.7,0-5.4,0-8,0l0-0.5
	c-2.7,0-5.4,0-8.1-0.1l0,0.5c-2.7,0-5.3-0.1-8-0.1l0-0.5c-2.7,0-5.4-0.1-8.1-0.1l0,0.5c-2.7-0.1-5.3-0.1-8-0.2l0-0.5
	c-2.7-0.1-5.4-0.1-8.1-0.2l0,0.5c-2.7-0.1-5.3-0.2-8-0.3l0-0.5c-2.7-0.1-5.4-0.2-8.1-0.3l0,0.5c-2.7-0.1-5.3-0.2-8-0.3l0-0.5
	c-2.7-0.1-5.4-0.3-8.1-0.4l0,0.5c-2.7-0.1-5.3-0.3-8-0.4l0-0.5c-2.7-0.2-5.4-0.3-8.1-0.5l0,0.5c-2.7-0.2-5.3-0.3-7.9-0.5l0-0.5
	c-2.7-0.2-5.5-0.4-8.1-0.5l0,0.5c-2.7-0.2-5.4-0.4-8-0.6l0-0.5c-2.7-0.2-5.4-0.4-8-0.6l0,0.5c-2.7-0.2-5.4-0.4-8-0.7l0-0.5
	c-2.7-0.2-5.4-0.5-7.9-0.7l0,0.5c-2.8-0.3-5.4-0.5-8-0.8l0-0.5c-2.8-0.3-5.5-0.5-8-0.8l-0.1,0.5c-2.8-0.3-5.5-0.6-8-0.8l0.1-0.5
	c-2.8-0.3-5.5-0.6-8-0.9l-0.1,0.5c-2.9-0.3-5.5-0.7-8-1l0.1-0.5c-3-0.4-5.6-0.7-7.9-1l-0.1,0.5c-3.4-0.4-6-0.8-8-1.1l0.1-0.5
	c-1.3-0.2-2.2-0.3-2.9-0.4c-0.3,0-0.6-0.1-0.7-0.1l-0.2,0l0,0l0,0l0,0h0l0,0h0h0l0,0c0,0-0.1,0-0.2,0c-0.2,0-0.4-0.1-0.7-0.2
	c-0.6-0.1-1.6-0.3-2.8-0.6l-0.1,0.5c-1.9-0.4-4.6-0.8-7.9-1.3l0.1-0.5c-2.3-0.4-5-0.8-8-1.2l-0.1,0.5c-2.4-0.3-5-0.7-7.9-1l0.1-0.5
	c-2.5-0.3-5.1-0.6-7.9-0.9l0,0.5c-2.5-0.3-5.2-0.5-8-0.7l0-0.5c-2.6-0.2-5.2-0.4-8-0.6l0,0.5c-2.6-0.2-5.2-0.3-7.9-0.5l0-0.5
	c-2.6-0.1-5.2-0.3-7.9-0.4l0,0.5c-2.6-0.1-5.3-0.2-8-0.3l0-0.5c-2.6-0.1-5.3-0.1-8.1-0.2l0,0.5c-2.6,0-5.2-0.1-7.9-0.1l0-0.5
	c-2.6,0-5.3,0-8,0l0,0.5c-2.6,0-5.3,0.1-8,0.1l0-0.5c-2.6,0.1-5.3,0.1-7.9,0.2l0,0.5c-2.6,0.1-5.3,0.2-8.1,0.3l0-0.5
	c-2.6,0.1-5.2,0.2-7.9,0.4l0,0.5c-2.6,0.1-5.3,0.3-8,0.5l0-0.5c-2.6,0.2-5.3,0.4-7.9,0.6l0,0.5c-2.6,0.2-5.3,0.4-8,0.7l0-0.5
	c-2.6,0.2-5.3,0.5-7.9,0.7l0,0.5c-2.6,0.3-5.3,0.5-8,0.8l-0.1-0.5c-2.6,0.3-5.2,0.6-7.9,0.9l0.1,0.5c-2.6,0.3-5.3,0.7-8,1l-0.1-0.5
	c-2.6,0.3-5.2,0.7-7.9,1.1l0.1,0.5c-2.6,0.4-5.3,0.8-8,1.2l-0.1-0.5c-2.6,0.4-5.2,0.8-7.8,1.2l0.1,0.5c-2.6,0.4-5.3,0.9-7.9,1.3
	l-0.1-0.5c-2.6,0.5-5.2,0.9-7.8,1.4l0.1,0.5c-2.6,0.5-5.2,1-7.9,1.5l-0.1-0.5c-2.6,0.5-5.2,1-7.8,1.6l0.1,0.5
	c-2.6,0.5-5.2,1.1-7.8,1.7l-0.1-0.5c-2.6,0.6-5.2,1.2-7.8,1.8l0.1,0.5c-2.6,0.6-5.1,1.2-7.7,1.8l-0.1-0.5c-2.6,0.6-5.2,1.3-7.8,1.9
	l0.1,0.5c-2.6,0.6-5.1,1.3-7.7,2l-0.1-0.5c-2.6,0.7-5.1,1.4-7.7,2.1l0.1,0.5c-2.6,0.7-5.1,1.4-7.7,2.2l-0.1-0.5
	c-2.5,0.7-5.1,1.5-7.6,2.2l0.1,0.5c-2.5,0.8-5.1,1.5-7.7,2.3l-0.1-0.5c-2.5,0.8-5.1,1.6-7.6,2.4l0.2,0.5c-2.5,0.8-5,1.6-7.6,2.5
	l-0.2-0.5c-2.5,0.8-5.1,1.7-7.6,2.6l0.2,0.5c-2.5,0.8-5,1.7-7.5,2.6l-0.2-0.5c-2.5,0.9-5,1.8-7.5,2.7l0.2,0.5
	c-2.5,0.9-5,1.8-7.5,2.8l-0.2-0.5c-2.5,0.9-4.9,1.9-7.4,2.8l0.2,0.5c-2.5,1-5,1.9-7.5,2.9l-0.2-0.5c-2.5,1-4.9,2-7.4,3l0.2,0.5
	c-2.4,1-4.9,2-7.3,3l-0.2-0.5c-2.5,1-4.9,2.1-7.4,3.1l0.2,0.5c-2.4,1-4.9,2.1-7.3,3.2l-0.2-0.5c-2.4,1.1-4.8,2.2-7.3,3.3l0.2,0.5
	c-2.4,1.1-4.8,2.2-7.3,3.4l-0.2-0.5c-1,0.5-2,0.9-2.9,1.4l0-3.2l-0.5,0l0-7.9l0.5,0l0-7.9l-0.5,0l0-7.9l0.5,0l0-7.9l-0.5,0l0-7.9
	l0.5,0l0-7.9l-0.5,0l0-7.9l0.5,0l0-7.9l-0.5,0l0-7.9l0.5,0l0-7.9l-0.5,0l0-7.9l0.5,0l0-7.9l-0.5,0l0-7.9l0.5,0l0-7.9l-0.5,0l0-7.9
	l0.5,0l0-7.9l-0.5,0l0-7.9l0.5,0l0-7.9l-0.5,0l0-7.9l0.5,0l0-7.9l-0.5,0l0-7.9l0.5,0l0-7.9l-0.5,0l0-7.9l0.5,0l0-7.9l-0.5,0l0-7.9
	l0.5,0l0-7.9l-0.5,0l0-7.9l0.5,0l0-7.9l-0.5,0l0-7.9l0.5,0l0-7.9l-0.5,0l0-7.9l0.5,0l0-7.9l-0.5,0l0-7.9l0.5,0l0-7.9l-0.5,0l0-7.9
	l0.5,0l0-7.9l-0.5,0l0-7.9l0.5,0l0-7.9l-0.5,0l0-7.9l0.5,0l0-7.9l-0.5,0l0-7.9l0.5,0l0-7.9l-0.5,0l0-7.9l0.5,0l0-7.9l-0.5,0l0-7.9
	l0.5,0l0-7.9l-0.5,0l0-7.9l0.5,0l0-7.9l-0.5,0l0-7.9l0.5,0l0-7.9l-0.5,0l0-7.9l0.5,0l0-7.9l-0.5,0l0-7.9l0.5,0l0-7.9l-0.5,0l0-7.9
	l0.5,0l0-7.9l-0.5,0l0-7.9l0.5,0l0-7.9l-0.5,0l0-7.9l0.5,0l0-7.9l-0.5,0l0-7.9l0.5,0l0-7.9l-0.5,0l0-7.9l0.5,0l0-7.9l-0.5,0l0-7.9
	l0.5,0l0-7.9l-0.5,0l0-7.9l0.5,0l0-7.9l-0.5,0l0-7.9l0.5,0l0-7.9l-0.5,0l0-7.9l0.5,0l0-7.9l-0.5,0l0-7.9l0.5,0l0-7.9l-0.5,0l0-7.9
	l0.5,0l0-7.9l-0.5,0l0-7.9l0.5,0l0-7.9l-0.5,0l0-7.9l0.5,0l0-7.9l-0.5,0l0-7.9l0.5,0l0-7.9l-0.5,0l0-7.9l0.5,0l0-7.9l-0.5,0l0-7.9
	l0.5,0l0-7.9L-10-549z"/>
</svg>
