<?xml version="1.0" encoding="utf-8"?>
<!-- Generator: Adobe Illustrator 24.1.3, SVG Export Plug-In . SVG Version: 6.00 Build 0)  -->
<svg version="1.1" id="Layer_1" xmlns="http://www.w3.org/2000/svg" xmlns:xlink="http://www.w3.org/1999/xlink" x="0px" y="0px"
	 viewBox="0 0 1440 153.5" style="enable-background:new 0 0 1440 153.5;" xml:space="preserve">
<style type="text/css">
	.st0{fill:#DF7C6D;}
	.st1{fill:#F8F1EB;}
</style>
<rect x="-32.5" y="-17.6" class="st0" width="1498" height="192.9"/>
<path class="st1" d="M-29.5-1346.6c0,0,345.6-9,436.4-34.1c90.8-24.7,360.1-81.3,477.5-81.3c232.4,0,392.4,73.3,580.6-24.4V14.3
	c0,0-349.3-2.1-638.6,58.8S231.8-20.8-32,153.5"/>
<path d="M406.9-1380.7l-0.1-0.5l0,0L406.9-1380.7z M1465-1486.5h0.5v-0.8l-0.7,0.4L1465-1486.5z M1465,14.3v0.5h0.5v-0.5H1465z
	 M826.4,73.1l0.1,0.5L826.4,73.1z M-31.7,153.9c1.1-0.7,2.2-1.5,3.4-2.2l-0.5-0.8c-1.1,0.7-2.3,1.5-3.4,2.2L-31.7,153.9z
	 M-21.6,147.4c2.3-1.4,4.5-2.8,6.8-4.2l-0.5-0.8c-2.3,1.4-4.5,2.8-6.8,4.2L-21.6,147.4z M-8,139.2c2.3-1.3,4.6-2.7,6.9-4l-0.5-0.9
	c-2.3,1.3-4.6,2.6-7,4L-8,139.2z M5.9,131.4c2.3-1.3,4.7-2.5,7-3.7l-0.5-0.9c-2.3,1.2-4.7,2.5-7,3.7L5.9,131.4z M20,124.1
	c2.4-1.2,4.8-2.4,7.2-3.5l-0.4-0.9c-2.4,1.1-4.8,2.3-7.2,3.5L20,124.1z M34.4,117.2c2.4-1.1,4.8-2.2,7.2-3.2l-0.4-0.9
	c-2.4,1-4.8,2.1-7.2,3.2L34.4,117.2z M48.9,110.8c2.5-1,4.9-2,7.4-3l-0.4-0.9c-2.5,1-4.9,2-7.4,3L48.9,110.8z M63.7,104.9
	c2.5-1,5-1.9,7.4-2.8l-0.3-0.9c-2.5,0.9-5,1.8-7.5,2.8L63.7,104.9z M78.7,99.5c2.5-0.9,5-1.7,7.5-2.5l-0.3-1c-2.5,0.8-5,1.7-7.6,2.5
	L78.7,99.5z M93.8,94.6c2.5-0.8,5.1-1.6,7.6-2.3l-0.3-1c-2.6,0.8-5.1,1.5-7.7,2.3L93.8,94.6z M109.1,90.1c2.6-0.7,5.1-1.4,7.7-2.1
	l-0.3-1c-2.6,0.7-5.1,1.4-7.7,2.1L109.1,90.1z M124.5,86.1c2.6-0.6,5.2-1.2,7.8-1.8l-0.2-1c-2.6,0.6-5.2,1.2-7.8,1.8L124.5,86.1z
	 M140,82.5c2.6-0.6,5.2-1.1,7.8-1.6l-0.2-1c-2.6,0.5-5.2,1.1-7.8,1.6L140,82.5z M155.6,79.4c2.6-0.5,5.2-1,7.8-1.4l-0.2-1
	c-2.6,0.4-5.2,0.9-7.9,1.4L155.6,79.4z M171.3,76.7c2.6-0.4,5.2-0.8,7.9-1.2l-0.1-1c-2.6,0.4-5.3,0.8-7.9,1.2L171.3,76.7z
	 M187.1,74.4c2.6-0.3,5.3-0.7,7.9-1l-0.1-1c-2.6,0.3-5.3,0.7-7.9,1L187.1,74.4z M202.9,72.5c2.6-0.3,5.3-0.6,7.9-0.8l-0.1-1
	c-2.6,0.3-5.3,0.5-7.9,0.8L202.9,72.5z M218.7,71c2.6-0.2,5.3-0.4,7.9-0.6l-0.1-1c-2.7,0.2-5.3,0.4-8,0.6L218.7,71z M234.6,69.7
	c2.6-0.2,5.3-0.3,7.9-0.5l-0.1-1c-2.7,0.1-5.3,0.3-8,0.5L234.6,69.7z M250.5,68.9c2.6-0.1,5.3-0.2,8-0.3v-1c-2.7,0.1-5.3,0.2-8,0.3
	V68.9z M266.4,68.3c2.7-0.1,5.3-0.1,8-0.2v-1c-2.7,0.1-5.3,0.1-8,0.2V68.3z M282.3,68c2.7,0,5.3,0,8-0.1v-1c-2.7,0-5.3,0-8,0.1V68z
	 M298.2,67.9c2.7,0,5.3,0,8,0.1v-1c-2.7,0-5.3,0-8-0.1V67.9z M314.2,68.1c2.7,0.1,5.3,0.1,8,0.2v-1c-2.7-0.1-5.3-0.1-8-0.2V68.1z
	 M330.1,68.5c2.7,0.1,5.3,0.2,8,0.3v-1c-2.7-0.1-5.3-0.2-8-0.3V68.5z M346,69.1c2.7,0.1,5.3,0.2,8,0.3v-1c-2.7-0.1-5.3-0.2-8-0.3
	V69.1z M361.9,69.8c2.6,0.1,5.3,0.3,7.9,0.4l0.1-1c-2.7-0.1-5.3-0.3-7.9-0.4L361.9,69.8z M377.8,70.7c2.7,0.2,5.3,0.3,8,0.5l0.1-1
	c-2.7-0.2-5.3-0.3-8-0.5L377.8,70.7z M393.7,71.7c2.6,0.2,5.3,0.3,7.9,0.5l0.1-1c-2.6-0.2-5.3-0.4-7.9-0.5L393.7,71.7z M409.6,72.8
	c2.6,0.2,5.3,0.4,7.9,0.6l0.1-1c-2.7-0.2-5.3-0.4-8-0.6V72.8z M425.5,74c2.6,0.2,5.3,0.4,7.9,0.6l0.1-1c-2.6-0.2-5.3-0.4-7.9-0.6
	L425.5,74z M441.4,75.2c2.6,0.2,5.3,0.4,7.9,0.6l0.1-1c-2.6-0.2-5.3-0.4-7.9-0.7L441.4,75.2z M457.3,76.5c2.6,0.2,5.3,0.4,7.9,0.7
	l0.1-1c-2.6-0.2-5.3-0.4-7.9-0.7L457.3,76.5z M473.2,77.8c2.6,0.2,5.3,0.4,7.9,0.7l0.1-1c-2.6-0.2-5.3-0.4-7.9-0.7L473.2,77.8z
	 M489.1,79.2c2.6,0.2,5.3,0.4,7.9,0.7l0.1-1c-2.6-0.2-5.3-0.4-7.9-0.7L489.1,79.2z M504.9,80.5c2.6,0.2,5.3,0.4,7.9,0.7l0.1-1
	c-2.6-0.2-5.3-0.4-7.9-0.7L504.9,80.5z M520.8,81.8c2.6,0.2,5.3,0.4,7.9,0.6l0.1-1c-2.6-0.2-5.3-0.4-7.9-0.6L520.8,81.8z M536.7,83
	c2.6,0.2,5.3,0.4,7.9,0.6l0.1-1c-2.6-0.2-5.3-0.4-7.9-0.6L536.7,83z M552.6,84.2c2.7,0.2,5.3,0.4,8,0.5l0.1-1
	c-2.7-0.2-5.3-0.4-7.9-0.5L552.6,84.2z M568.5,85.2c2.7,0.2,5.3,0.3,8,0.5l0.1-1c-2.6-0.2-5.3-0.3-7.9-0.5L568.5,85.2z M584.4,86.2
	c2.7,0.2,5.3,0.3,8,0.4l0.1-1c-2.7-0.1-5.3-0.3-8-0.4L584.4,86.2z M600.3,87c2.7,0.1,5.3,0.2,8,0.4v-1c-2.7-0.1-5.3-0.2-8-0.4V87z
	 M616.3,87.7c2.7,0.1,5.3,0.2,8,0.3v-1c-2.7-0.1-5.3-0.2-8-0.3V87.7z M632.2,88.2c2.7,0.1,5.3,0.1,8,0.2v-1c-2.7-0.1-5.3-0.1-8-0.2
	V88.2z M648.1,88.6c2.7,0,5.3,0.1,8,0.1v-1c-2.7,0-5.3-0.1-8-0.1V88.6z M664.1,88.7c2.7,0,5.3,0,8,0v-1c-2.7,0-5.3,0-8,0V88.7z
	 M680,88.6c2.7,0,5.3-0.1,8-0.1v-1c-2.7,0.1-5.3,0.1-8,0.1V88.6z M696,88.3c2.7-0.1,5.3-0.2,8-0.3v-1c-2.7,0.1-5.3,0.2-8,0.3V88.3z
	 M711.9,87.7c2.7-0.1,5.3-0.3,8-0.4l-0.1-1c-2.6,0.2-5.3,0.3-8,0.4L711.9,87.7z M727.8,86.8c2.7-0.2,5.3-0.4,8-0.6l-0.1-1
	c-2.6,0.2-5.3,0.4-7.9,0.6V86.8z M743.7,85.6c2.6-0.2,5.3-0.5,7.9-0.7l-0.1-1c-2.6,0.2-5.3,0.5-7.9,0.7L743.7,85.6z M759.6,84.1
	c2.6-0.3,5.3-0.6,7.9-0.9l-0.1-1c-2.6,0.3-5.3,0.6-7.9,0.9L759.6,84.1z M775.4,82.2c2.6-0.3,5.3-0.7,7.9-1.1l-0.1-1
	c-2.6,0.4-5.3,0.7-7.9,1.1L775.4,82.2z M791.2,80c2.6-0.4,5.3-0.8,7.9-1.2l-0.2-1c-2.6,0.4-5.2,0.8-7.9,1.2L791.2,80z M806.9,77.4
	c2.6-0.5,5.2-0.9,7.8-1.4l-0.2-1c-2.6,0.5-5.2,1-7.8,1.4L806.9,77.4z M822.6,74.4c1.3-0.3,2.6-0.5,3.9-0.8l-0.2-1
	c-1.3,0.3-2.6,0.5-3.9,0.8L822.6,74.4z M826.5,73.6c1.3-0.3,2.6-0.5,3.9-0.8l-0.2-1c-1.3,0.3-2.6,0.5-3.9,0.8L826.5,73.6z
	 M838.3,71.2c2.6-0.5,5.2-1.1,7.9-1.6l-0.2-1c-2.6,0.5-5.3,1.1-7.9,1.6L838.3,71.2z M854.1,68c2.6-0.5,5.2-1,7.9-1.5l-0.2-1
	c-2.6,0.5-5.2,1-7.9,1.5L854.1,68z M869.8,65c2.6-0.5,5.3-1,7.9-1.5l-0.2-1c-2.6,0.5-5.3,1-7.9,1.5L869.8,65z M885.6,62.2
	c2.6-0.5,5.3-0.9,7.9-1.4l-0.2-1c-2.6,0.5-5.3,0.9-7.9,1.4L885.6,62.2z M901.4,59.4c2.6-0.5,5.3-0.9,7.9-1.3l-0.2-1
	c-2.6,0.4-5.3,0.9-7.9,1.3L901.4,59.4z M917.3,56.7c2.6-0.4,5.3-0.9,7.9-1.3l-0.2-1c-2.6,0.4-5.3,0.8-7.9,1.3L917.3,56.7z
	 M933.1,54.2c2.6-0.4,5.3-0.8,7.9-1.2l-0.2-1c-2.6,0.4-5.3,0.8-7.9,1.2L933.1,54.2z M949,51.8c2.6-0.4,5.3-0.8,7.9-1.2l-0.1-1
	c-2.6,0.4-5.3,0.8-7.9,1.2L949,51.8z M964.9,49.4c2.7-0.4,5.3-0.8,8-1.1l-0.1-1c-2.7,0.4-5.3,0.8-8,1.1L964.9,49.4z M980.8,47.2
	c2.7-0.4,5.3-0.7,7.9-1.1l-0.1-1c-2.6,0.4-5.3,0.7-8,1.1L980.8,47.2z M996.7,45.1c2.7-0.3,5.3-0.7,8-1l-0.1-1c-2.7,0.3-5.3,0.7-8,1
	L996.7,45.1z M1012.6,43c2.7-0.3,5.3-0.7,8-1l-0.1-1c-2.7,0.3-5.3,0.7-8,1L1012.6,43z M1028.6,41.1c2.7-0.3,5.3-0.6,8-1l-0.1-1
	c-2.7,0.3-5.3,0.6-8,1L1028.6,41.1z M1044.5,39.2c2.7-0.3,5.3-0.6,8-0.9l-0.1-1c-2.7,0.3-5.3,0.6-8,0.9L1044.5,39.2z M1060.5,37.4
	c2.7-0.3,5.3-0.6,8-0.9l-0.1-1c-2.7,0.3-5.3,0.6-8,0.9L1060.5,37.4z M1076.4,35.7c2.7-0.3,5.3-0.6,8-0.8l-0.1-1
	c-2.7,0.3-5.3,0.6-8,0.8L1076.4,35.7z M1092.4,34c2.7-0.3,5.3-0.5,8-0.8l-0.1-1c-2.7,0.3-5.3,0.5-8,0.8L1092.4,34z M1108.4,32.5
	c2.7-0.2,5.3-0.5,8-0.7l-0.1-1c-2.7,0.2-5.3,0.5-8,0.8L1108.4,32.5z M1124.4,31c2.7-0.2,5.3-0.5,8-0.7l-0.1-1
	c-2.7,0.2-5.3,0.5-8,0.7L1124.4,31z M1140.4,29.5c2.7-0.2,5.3-0.5,8-0.7l-0.1-1c-2.7,0.2-5.3,0.5-8,0.7L1140.4,29.5z M1156.3,28.2
	c2.7-0.2,5.4-0.4,8.1-0.6l-0.1-1c-2.7,0.2-5.4,0.4-8.1,0.7L1156.3,28.2z M1172.4,26.9c2.7-0.2,5.3-0.4,7.9-0.6l-0.1-1
	c-2.6,0.2-5.3,0.4-7.9,0.6L1172.4,26.9z M1188.4,25.7c2.7-0.2,5.3-0.4,8-0.6l-0.1-1c-2.7,0.2-5.3,0.4-8,0.6L1188.4,25.7z
	 M1204.4,24.6c2.7-0.2,5.4-0.4,8.1-0.6l-0.1-1c-2.7,0.2-5.3,0.4-8,0.6V24.6z M1220.4,23.5c2.7-0.2,5.3-0.3,8-0.5l-0.1-1
	c-2.6,0.2-5.3,0.3-7.9,0.5V23.5z M1236.5,22.4c2.7-0.2,5.4-0.3,8-0.5l-0.1-1c-2.7,0.2-5.3,0.3-8,0.5L1236.5,22.4z M1252.4,21.5
	c2.7-0.2,5.4-0.3,8.1-0.5l-0.1-1c-2.7,0.2-5.4,0.3-8.1,0.5L1252.4,21.5z M1268.5,20.6c2.7-0.1,5.3-0.3,7.9-0.4v-1
	c-2.6,0.1-5.3,0.3-7.9,0.4V20.6z M1284.6,19.8c2.7-0.1,5.4-0.3,8-0.4v-1c-2.7,0.1-5.3,0.3-8,0.4V19.8z M1300.6,19
	c2.7-0.1,5.4-0.2,8.1-0.4l-0.1-1c-2.7,0.1-5.4,0.2-8.1,0.4L1300.6,19z M1316.6,18.3c2.7-0.1,5.4-0.2,8.1-0.3v-1
	c-2.7,0.1-5.3,0.2-8.1,0.3V18.3z M1332.7,17.6c2.7-0.1,5.3-0.2,7.9-0.3v-1c-2.6,0.1-5.3,0.2-7.9,0.3V17.6z M1348.8,17
	c2.7-0.1,5.3-0.2,7.9-0.3v-1c-2.6,0.1-5.2,0.2-7.9,0.3V17z M1364.8,16.5c2.7-0.1,5.4-0.2,8-0.2v-1c-2.6,0.1-5.3,0.2-7.9,0.2
	L1364.8,16.5z M1380.9,16c2.7-0.1,5.4-0.1,8-0.2v-1c-2.6,0.1-5.2,0.1-8,0.2V16z M1396.9,15.6c2.7-0.1,5.4-0.1,7.9-0.2v-1
	c-2.6,0.1-5.2,0.1-7.9,0.2V15.6z M1413,15.3c2.8-0.1,5.4-0.1,7.9-0.1v-1c-2.5,0-5.2,0.1-7.9,0.1V15.3z M1429,15
	c2.9,0,5.6-0.1,8.1-0.1v-1c-2.5,0-5.2,0.1-8.1,0.1V15z M1445.2,14.9c3,0,5.7,0,8-0.1v-1c-2.4,0-5,0-8,0.1V14.9z M1461,14.8
	c1.3,0,2.3,0,3,0c0.3,0,0.6,0,0.8,0c0.1,0,0.2,0,0.2,0l0,0l0,0l0,0l0,0l0,0c0,0,0,0,0-0.5s0-0.5,0-0.5l0,0l0,0l0,0l0,0
	c0,0,0,0-0.1,0c0,0-0.1,0-0.2,0c-0.2,0-0.4,0-0.8,0c-0.7,0-1.7,0-3,0L1461,14.8L1461,14.8z M1465.5,14.3v-4h-1v4H1465.5z
	 M1465.5,2.3v-8h-1v8C1464.5,2.3,1465.5,2.3,1465.5,2.3z M1465.5-13.6v-8h-1v8H1465.5z M1465.5-29.6v-8h-1v8
	C1464.5-29.6,1465.5-29.6,1465.5-29.6z M1465.5-45.6v-8h-1v8H1465.5z M1465.5-61.5v-8h-1v8H1465.5z M1465.5-77.5v-8h-1v8H1465.5z
	 M1465.5-93.5v-8h-1v8H1465.5z M1465.5-109.4v-8h-1v8H1465.5z M1465.5-125.4v-8h-1v8C1464.5-125.4,1465.5-125.4,1465.5-125.4z
	 M1465.5-141.4v-8h-1v8H1465.5z M1465.5-157.3v-8h-1v8H1465.5z M1465.5-173.3v-8h-1v8H1465.5z M1465.5-189.3v-8h-1v8H1465.5z
	 M1465.5-205.2v-8h-1v8H1465.5z M1465.5-221.2v-8h-1v8H1465.5z M1465.5-237.1v-8h-1v8H1465.5z M1465.5-253.1v-8h-1v8H1465.5z
	 M1465.5-269.1v-8h-1v8H1465.5z M1465.5-285v-8h-1v8H1465.5z M1465.5-301v-8h-1v8H1465.5z M1465.5-317v-8h-1v8H1465.5z
	 M1465.5-332.9v-8h-1v8H1465.5z M1465.5-348.9v-8h-1v8H1465.5z M1465.5-364.9v-8h-1v8H1465.5z M1465.5-380.8v-8h-1v8H1465.5z
	 M1465.5-396.8v-8h-1v8H1465.5z M1465.5-412.8v-8h-1v8H1465.5z M1465.5-428.7v-8h-1v8H1465.5z M1465.5-444.7v-8h-1v8H1465.5z
	 M1465.5-460.7v-8h-1v8H1465.5z M1465.5-476.6v-8h-1v8H1465.5z M1465.5-492.6v-8h-1v8H1465.5z M1465.5-508.6v-8h-1v8L1465.5-508.6
	L1465.5-508.6z M1465.5-524.5v-8h-1v8H1465.5z M1465.5-540.5v-8h-1v8H1465.5z M1465.5-556.5v-8h-1v8H1465.5z M1465.5-572.4v-8h-1v8
	H1465.5z M1465.5-588.4v-8h-1v8H1465.5z M1465.5-604.4v-8h-1v8H1465.5z M1465.5-620.3v-8h-1v8H1465.5z M1465.5-636.3v-8h-1v8H1465.5
	z M1465.5-652.3v-8h-1v8H1465.5z M1465.5-668.2v-8h-1v8H1465.5z M1465.5-684.2v-8h-1v8H1465.5z M1465.5-700.2v-8h-1v8H1465.5z
	 M1465.5-716.1v-8h-1v8H1465.5z M1465.5-732.1v-8h-1v8H1465.5z M1465.5-748.1v-8h-1v8H1465.5z M1465.5-764v-8h-1v8H1465.5z
	 M1465.5-780v-8h-1v8H1465.5z M1465.5-796v-8h-1v8H1465.5z M1465.5-811.9v-8h-1v8H1465.5z M1465.5-827.9v-8h-1v8H1465.5z
	 M1465.5-843.9v-8h-1v8H1465.5z M1465.5-859.8v-8h-1v8H1465.5z M1465.5-875.8v-8h-1v8H1465.5z M1465.5-891.8v-8h-1v8H1465.5z
	 M1465.5-907.7v-8h-1v8H1465.5z M1465.5-923.7v-8h-1v8H1465.5z M1465.5-939.7v-8h-1v8H1465.5z M1465.5-955.6v-8h-1v8H1465.5z
	 M1465.5-971.6v-8h-1v8H1465.5z M1465.5-987.6v-8h-1v8H1465.5z M1465.5-1003.5v-8h-1v8H1465.5z M1465.5-1019.5v-8h-1v8H1465.5z
	 M1465.5-1035.4v-8h-1v8H1465.5z M1465.5-1051.4v-8h-1v8H1465.5z M1465.5-1067.4v-8h-1v8H1465.5z M1465.5-1083.3v-8h-1v8H1465.5z
	 M1465.5-1099.3v-8h-1v8H1465.5z M1465.5-1115.3v-8h-1v8H1465.5z M1465.5-1131.2v-8h-1v8H1465.5z M1465.5-1147.2v-8h-1v8H1465.5z
	 M1465.5-1163.2v-8h-1v8H1465.5z M1465.5-1179.1v-8h-1v8H1465.5z M1465.5-1195.1v-8h-1v8H1465.5z M1465.5-1211.1v-8h-1v8H1465.5z
	 M1465.5-1227v-8h-1v8H1465.5z M1465.5-1243v-8h-1v8H1465.5z M1465.5-1259v-8h-1v8H1465.5z M1465.5-1274.9v-8h-1v8H1465.5z
	 M1465.5-1290.9v-8h-1v8H1465.5z M1465.5-1306.9v-8h-1v8H1465.5z M1465.5-1322.8v-8h-1v8H1465.5z M1465.5-1338.8v-8h-1v8H1465.5z
	 M1465.5-1354.8v-8h-1v8H1465.5z M1465.5-1370.7v-8h-1v8H1465.5z M1465.5-1386.7v-8h-1v8H1465.5z M1465.5-1402.7v-8h-1v8H1465.5z
	 M1465.5-1418.6v-8h-1v8H1465.5z M1465.5-1434.6v-8h-1v8H1465.5z M1465.5-1450.6v-8h-1v8H1465.5z M1465.5-1466.5v-8h-1v8H1465.5z
	 M1465.5-1482.5v-4h-1v4H1465.5z M1464.8-1486.9c-1.2,0.6-2.4,1.2-3.6,1.8l0.5,0.9c1.2-0.6,2.4-1.2,3.6-1.8L1464.8-1486.9z
	 M1454-1481.5c-2.4,1.2-4.8,2.3-7.1,3.4l0.4,0.9c2.4-1.1,4.8-2.2,7.2-3.4L1454-1481.5z M1439.6-1474.8c-2.4,1.1-4.8,2.1-7.3,3.2
	l0.4,0.9c2.4-1,4.9-2.1,7.3-3.2L1439.6-1474.8z M1425-1468.6c-2.5,1-4.9,2-7.4,2.9l0.4,0.9c2.5-0.9,4.9-1.9,7.4-2.9L1425-1468.6z
	 M1410.1-1462.9c-2.5,0.9-5,1.8-7.5,2.7l0.3,0.9c2.5-0.9,5-1.7,7.5-2.7L1410.1-1462.9z M1395.1-1457.7c-2.5,0.8-5.1,1.6-7.6,2.4
	l0.3,1c2.6-0.8,5.1-1.6,7.7-2.4L1395.1-1457.7z M1379.8-1453.2c-2.6,0.7-5.1,1.4-7.7,2.1l0.2,1c2.6-0.7,5.2-1.4,7.7-2.1
	L1379.8-1453.2z M1364.4-1449.1c-2.6,0.6-5.2,1.2-7.8,1.8l0.2,1c2.6-0.6,5.2-1.2,7.8-1.8L1364.4-1449.1z M1348.8-1445.7
	c-2.6,0.5-5.2,1-7.8,1.5l0.2,1c2.6-0.5,5.2-1,7.8-1.5L1348.8-1445.7z M1333.2-1442.8c-2.6,0.4-5.2,0.8-7.9,1.2l0.1,1
	c2.6-0.4,5.2-0.8,7.9-1.2L1333.2-1442.8z M1317.4-1440.5c-2.6,0.3-5.3,0.7-7.9,1l0.1,1c2.6-0.3,5.3-0.6,7.9-1L1317.4-1440.5z
	 M1301.6-1438.7c-2.6,0.3-5.3,0.5-7.9,0.7l0.1,1c2.7-0.2,5.3-0.5,7.9-0.7L1301.6-1438.7z M1285.7-1437.4c-2.7,0.2-5.3,0.3-7.9,0.5v1
	c2.7-0.1,5.3-0.3,8-0.5L1285.7-1437.4z M1269.8-1436.6c-2.7,0.1-5.3,0.2-8,0.2v1c2.7-0.1,5.3-0.1,8-0.2V-1436.6z M1253.9-1436.2
	c-2.7,0-5.3,0-8,0v1c2.7,0,5.3,0,8,0V-1436.2z M1238-1436.2c-2.7,0-5.3-0.1-8-0.1v1c2.7,0.1,5.3,0.1,8,0.1V-1436.2z M1222.1-1436.6
	c-2.7-0.1-5.3-0.2-8-0.3v1c2.7,0.1,5.3,0.2,8,0.3V-1436.6z M1206.1-1437.2c-2.7-0.1-5.3-0.3-8-0.4l-0.1,1c2.7,0.2,5.3,0.3,8,0.4
	L1206.1-1437.2z M1190.2-1438.2c-2.6-0.2-5.3-0.4-7.9-0.6l-0.1,1c2.7,0.2,5.3,0.4,7.9,0.6L1190.2-1438.2z M1174.3-1439.4
	c-2.6-0.2-5.3-0.4-7.9-0.7l-0.1,1c2.7,0.2,5.3,0.4,7.9,0.7L1174.3-1439.4z M1158.5-1440.7c-2.6-0.2-5.3-0.5-7.9-0.7l-0.1,1
	c2.7,0.3,5.3,0.5,7.9,0.7L1158.5-1440.7z M1142.6-1442.2c-2.6-0.3-5.3-0.5-7.9-0.8l-0.1,1c2.7,0.3,5.3,0.5,7.9,0.8L1142.6-1442.2z
	 M1126.8-1443.9c-2.6-0.3-5.3-0.6-7.9-0.8l-0.1,1c2.7,0.3,5.3,0.6,7.9,0.8L1126.8-1443.9z M1110.9-1445.6c-2.6-0.3-5.3-0.6-8-0.9
	l-0.1,1c2.7,0.3,5.3,0.6,8,0.9L1110.9-1445.6z M1095.1-1447.3c-2.6-0.3-5.3-0.6-7.9-0.9l-0.1,1c2.7,0.3,5.3,0.6,7.9,0.9
	L1095.1-1447.3z M1079.2-1449.1c-2.6-0.3-5.3-0.6-7.9-0.9l-0.1,1c2.6,0.3,5.3,0.6,7.9,0.9L1079.2-1449.1z M1063.3-1450.8
	c-2.6-0.3-5.3-0.6-7.9-0.9l-0.1,1c2.7,0.3,5.3,0.6,7.9,0.9L1063.3-1450.8z M1047.5-1452.5c-2.6-0.3-5.3-0.6-7.9-0.8l-0.1,1
	c2.6,0.3,5.3,0.5,7.9,0.8L1047.5-1452.5z M1031.6-1454.2c-2.6-0.3-5.3-0.5-7.9-0.8l-0.1,1c2.7,0.3,5.3,0.5,7.9,0.8L1031.6-1454.2z
	 M1015.8-1455.7c-2.7-0.2-5.3-0.5-8-0.7l-0.1,1c2.7,0.2,5.3,0.5,8,0.7L1015.8-1455.7z M999.9-1457.2c-2.6-0.2-5.3-0.5-8-0.7l-0.1,1
	c2.7,0.2,5.3,0.4,8,0.7L999.9-1457.2z M984-1458.5c-2.6-0.2-5.3-0.4-7.9-0.6l-0.1,1c2.7,0.2,5.3,0.4,7.9,0.6L984-1458.5z
	 M968.1-1459.6c-2.6-0.2-5.3-0.3-7.9-0.5l-0.1,1c2.6,0.2,5.3,0.3,7.9,0.5L968.1-1459.6z M952.2-1460.6c-2.6-0.1-5.3-0.3-8-0.4v1
	c2.7,0.1,5.3,0.3,8,0.4V-1460.6z M936.3-1461.4c-2.7-0.1-5.3-0.2-8-0.3v1c2.7,0.1,5.3,0.2,8,0.3V-1461.4z M920.3-1462
	c-2.6-0.1-5.3-0.2-8-0.2v1c2.7,0.1,5.3,0.1,8,0.2V-1462z M904.3-1462.4c-2.6,0-5.3-0.1-7.9-0.1v1c2.7,0,5.3,0.1,7.9,0.1V-1462.4z
	 M888.4-1462.5c-1.3,0-2.7,0-4,0v1c1.3,0,2.7,0,4,0V-1462.5z M884.4-1462.6c-1.3,0-2.6,0-4,0v1c1.3,0,2.6,0,3.9,0L884.4-1462.6
	L884.4-1462.6z M872.3-1462.4c-2.6,0.1-5.3,0.2-8,0.3v1c2.7-0.1,5.4-0.2,8-0.3V-1462.4z M856.2-1461.7c-2.7,0.2-5.4,0.3-8.2,0.5
	l0.1,1c2.8-0.2,5.5-0.4,8.1-0.5L856.2-1461.7z M840-1460.6c-2.7,0.2-5.4,0.4-8.1,0.7l0.1,1c2.7-0.2,5.4-0.5,8.1-0.7L840-1460.6z
	 M823.9-1459.2c-2.7,0.3-5.3,0.5-8.1,0.8l0.1,1c2.7-0.3,5.4-0.5,8.1-0.8L823.9-1459.2z M807.8-1457.5c-2.7,0.3-5.3,0.6-8,0.9l0.1,1
	c2.7-0.3,5.4-0.6,8-0.9L807.8-1457.5z M791.7-1455.7c-2.7,0.3-5.3,0.6-8,1l0.1,1c2.7-0.3,5.4-0.7,8-1L791.7-1455.7z M775.6-1453.7
	c-2.7,0.3-5.3,0.7-8,1.1l0.1,1c2.7-0.4,5.4-0.7,8-1.1L775.6-1453.7z M759.6-1451.5c-2.7,0.4-5.3,0.7-8,1.1l0.1,1
	c2.7-0.4,5.3-0.8,8-1.1L759.6-1451.5z M743.6-1449.2c-2.7,0.4-5.3,0.8-8,1.2l0.1,1c2.7-0.4,5.3-0.8,8-1.2L743.6-1449.2z
	 M727.6-1446.8c-2.7,0.4-5.3,0.8-8,1.2l0.2,1c2.7-0.4,5.3-0.8,8-1.2L727.6-1446.8z M711.6-1444.3c-2.7,0.4-5.3,0.9-8,1.3l0.2,1
	c2.7-0.4,5.3-0.9,8-1.3L711.6-1444.3z M695.6-1441.7c-2.7,0.4-5.3,0.9-8,1.3l0.2,1c2.7-0.5,5.3-0.9,8-1.3L695.6-1441.7z M679.7-1439
	c-2.7,0.5-5.3,0.9-8,1.4l0.2,1c2.7-0.5,5.3-0.9,8-1.4L679.7-1439z M663.7-1436.2c-2.7,0.5-5.3,0.9-8,1.4l0.2,1
	c2.7-0.5,5.3-0.9,8-1.4L663.7-1436.2z M647.8-1433.4c-2.7,0.5-5.3,1-8,1.5l0.2,1c2.6-0.5,5.3-1,8-1.5L647.8-1433.4z M631.9-1430.5
	c-2.7,0.5-5.3,1-8,1.5l0.2,1c2.6-0.5,5.3-1,8-1.5L631.9-1430.5z M616-1427.5c-2.7,0.5-5.3,1-8,1.5l0.2,1c2.6-0.5,5.3-1,8-1.5
	L616-1427.5z M600.1-1424.4c-2.7,0.5-5.3,1-8,1.6l0.2,1c2.6-0.5,5.3-1,8-1.6L600.1-1424.4z M584.2-1421.3c-2.7,0.5-5.3,1.1-8,1.6
	l0.2,1c2.6-0.5,5.3-1.1,8-1.6L584.2-1421.3z M568.3-1418.1c-2.7,0.5-5.3,1.1-8,1.6l0.2,1c2.6-0.5,5.3-1.1,8-1.6L568.3-1418.1z
	 M552.5-1414.9c-2.7,0.6-5.3,1.1-7.9,1.7l0.2,1c2.6-0.5,5.3-1.1,7.9-1.7L552.5-1414.9z M536.7-1411.6c-2.7,0.6-5.3,1.1-7.9,1.7
	l0.2,1c2.6-0.6,5.3-1.1,7.9-1.7L536.7-1411.6z M520.8-1408.2c-2.7,0.6-5.3,1.1-7.9,1.7l0.2,1c2.6-0.6,5.3-1.1,7.9-1.7L520.8-1408.2z
	 M505-1404.7c-2.7,0.6-5.3,1.2-7.9,1.8l0.2,1c2.6-0.6,5.3-1.2,7.9-1.8L505-1404.7z M489.3-1401.2c-2.7,0.6-5.3,1.2-8,1.8l0.2,1
	c2.6-0.6,5.3-1.2,8-1.8L489.3-1401.2z M473.5-1397.6c-2.7,0.6-5.3,1.2-7.9,1.8l0.2,1c2.6-0.6,5.2-1.2,7.9-1.8L473.5-1397.6z
	 M457.7-1394c-2.7,0.6-5.3,1.2-7.8,1.9l0.2,1c2.6-0.6,5.2-1.2,7.8-1.9L457.7-1394z M441.9-1390.2c-2.7,0.7-5.3,1.3-7.8,1.9l0.2,1
	c2.5-0.6,5.2-1.3,7.8-1.9L441.9-1390.2z M426.3-1386.3c-2.7,0.7-5.4,1.4-7.9,2l0.3,1c2.5-0.7,5.2-1.3,7.9-2L426.3-1386.3z
	 M410.5-1382.2c-1.3,0.3-2.6,0.7-3.8,1l0.3,1c1.2-0.3,2.5-0.7,3.8-1L410.5-1382.2z M406.7-1381.2c-1.2,0.3-2.5,0.7-3.8,1l0.2,1
	c1.3-0.3,2.6-0.7,3.8-1L406.7-1381.2z M395-1378.3c-2.6,0.6-5.2,1.1-8.1,1.6l0.2,1c2.8-0.5,5.5-1.1,8.1-1.6L395-1378.3z
	 M379.1-1375.3c-2.6,0.5-5.3,0.9-8,1.3l0.2,1c2.8-0.4,5.4-0.9,8-1.3L379.1-1375.3z M363-1372.7c-2.6,0.4-5.2,0.8-7.9,1.1l0.1,1
	c2.7-0.4,5.4-0.8,8-1.1L363-1372.7z M347-1370.5c-2.6,0.3-5.3,0.7-8,1l0.1,1c2.7-0.3,5.4-0.7,8-1L347-1370.5z M330.9-1368.5
	c-2.6,0.3-5.3,0.6-8,0.9l0.1,1c2.7-0.3,5.4-0.6,8-0.9L330.9-1368.5z M314.7-1366.8c-2.7,0.3-5.3,0.6-8,0.8l0.1,1
	c2.7-0.3,5.4-0.5,8-0.8L314.7-1366.8z M298.6-1365.1c-2.7,0.3-5.3,0.5-8,0.8l0.1,1c2.7-0.2,5.4-0.5,8-0.8L298.6-1365.1z
	 M282.4-1363.6c-2.7,0.2-5.3,0.5-8,0.7l0.1,1c2.7-0.2,5.4-0.5,8-0.7L282.4-1363.6z M266.2-1362.3c-2.7,0.2-5.4,0.4-8.1,0.7l0.1,1
	c2.7-0.2,5.4-0.4,8.1-0.7L266.2-1362.3z M250.1-1361c-2.7,0.2-5.4,0.4-8.1,0.6l0.1,1c2.7-0.2,5.4-0.4,8.1-0.6L250.1-1361z
	 M233.9-1359.8c-2.7,0.2-5.4,0.4-8.1,0.6l0.1,1c2.7-0.2,5.4-0.4,8.1-0.6L233.9-1359.8z M217.7-1358.6c-2.7,0.2-5.4,0.4-8.1,0.5
	l0.1,1c2.7-0.2,5.4-0.4,8.1-0.5L217.7-1358.6z M201.5-1357.6c-2.7,0.2-5.4,0.3-8.1,0.5l0.1,1c2.7-0.2,5.4-0.3,8.1-0.5L201.5-1357.6z
	 M185.3-1356.5c-2.7,0.2-5.4,0.3-8.1,0.5l0.1,1c2.7-0.2,5.4-0.3,8.1-0.5L185.3-1356.5z M169.1-1355.6c-2.7,0.2-5.4,0.3-8.1,0.5
	l0.1,1c2.7-0.2,5.4-0.3,8.1-0.5L169.1-1355.6z M152.9-1354.7c-2.7,0.1-5.4,0.3-8.1,0.4l0.1,1c2.7-0.1,5.4-0.3,8.1-0.4L152.9-1354.7z
	 M136.7-1353.8c-2.7,0.1-5.5,0.3-8.2,0.4l0.1,1c2.7-0.1,5.4-0.3,8.2-0.4L136.7-1353.8z M120.4-1353c-2.7,0.1-5.4,0.3-8.1,0.4v1
	c2.7-0.1,5.4-0.3,8.1-0.4V-1353z M104.2-1352.2c-2.7,0.1-5.4,0.3-8.1,0.4v1c2.7-0.1,5.4-0.2,8.1-0.4V-1352.2z M88-1351.4
	c-2.7,0.1-5.4,0.2-8.1,0.4v1c2.7-0.1,5.4-0.2,8.1-0.4V-1351.4z M71.8-1350.7c-2.8,0.1-5.5,0.2-8.1,0.3v1c2.7-0.1,5.4-0.2,8.1-0.3
	V-1350.7z M55.6-1350.1c-2.8,0.1-5.5,0.2-8.2,0.3v1c2.7-0.1,5.4-0.2,8.2-0.3V-1350.1z M39.4-1349.4c-2.8,0.1-5.6,0.2-8.2,0.3v1
	c2.7-0.1,5.4-0.2,8.2-0.3V-1349.4z M23.1-1348.8c-2.8,0.1-5.5,0.2-8.1,0.3v1c2.6-0.1,5.3-0.2,8.1-0.3V-1348.8z M6.8-1348.2
	c-2.9,0.1-5.6,0.2-8.1,0.3v1c2.6-0.1,5.3-0.2,8.1-0.3V-1348.2z M-9.4-1347.7c-3,0.1-5.8,0.2-8.1,0.3v1c2.4-0.1,5.1-0.2,8.1-0.3
	V-1347.7z M-25.5-1347.2c-1.3,0-2.3,0.1-3,0.1c-0.3,0-0.6,0-0.8,0c-0.1,0-0.2,0-0.2,0l0,0l0,0l0,0l0,0l0,0l0,0c0,0,0,0,0,0.5
	s0,0.5,0,0.5l0,0l0,0l0,0l0,0l0,0l0,0c0,0,0.1,0,0.2,0c0.2,0,0.4,0,0.8,0c0.7,0,1.7,0,3-0.1V-1347.2z M406.9-1380.7l-0.3-1l0,0
	L406.9-1380.7z M1465-1486.5h1v-1.6l-1.5,0.8L1465-1486.5z M1465,14.3v1h1v-1H1465z M826.4,73.1l0.2,1L826.4,73.1z M-31.4,154.3
	c1.1-0.7,2.2-1.5,3.4-2.2l-1.1-1.7c-1.1,0.7-2.3,1.5-3.4,2.2L-31.4,154.3z M-21.3,147.8c2.3-1.4,4.5-2.8,6.8-4.2l-1-1.7
	c-2.3,1.4-4.5,2.8-6.8,4.2L-21.3,147.8z M-7.8,139.6c2.3-1.3,4.6-2.7,6.9-4l-1-1.8c-2.3,1.3-4.6,2.6-7,4L-7.8,139.6z M6.1,131.8
	c2.3-1.3,4.7-2.5,7-3.7l-0.9-1.8c-2.3,1.2-4.7,2.5-7,3.7L6.1,131.8z M20.2,124.5c2.4-1.2,4.8-2.4,7.2-3.5l-0.9-1.8
	c-2.4,1.2-4.8,2.3-7.2,3.5L20.2,124.5z M34.6,117.7c2.4-1.1,4.8-2.2,7.2-3.2l-0.8-1.8c-2.4,1.1-4.8,2.1-7.2,3.2L34.6,117.7z
	 M49.1,111.3c2.5-1,4.9-2,7.4-3l-0.7-1.9c-2.5,1-4.9,2-7.4,3L49.1,111.3z M63.9,105.4c2.5-0.9,5-1.9,7.4-2.8l-0.7-1.9
	c-2.5,0.9-5,1.8-7.5,2.8L63.9,105.4z M78.8,100c2.5-0.9,5-1.7,7.5-2.5l-0.6-1.9c-2.5,0.8-5,1.7-7.6,2.5L78.8,100z M93.9,95
	c2.5-0.8,5.1-1.6,7.6-2.3l-0.6-1.9c-2.6,0.8-5.1,1.5-7.7,2.3L93.9,95z M109.2,90.6c2.6-0.7,5.1-1.4,7.7-2.1l-0.5-1.9
	c-2.6,0.7-5.1,1.4-7.7,2.1L109.2,90.6z M124.6,86.6c2.6-0.6,5.2-1.2,7.7-1.8l-0.4-1.9c-2.6,0.6-5.2,1.2-7.8,1.8L124.6,86.6z
	 M140.1,83c2.6-0.6,5.2-1.1,7.8-1.6l-0.4-2c-2.6,0.5-5.2,1.1-7.8,1.6L140.1,83z M155.7,79.9c2.6-0.5,5.2-0.9,7.8-1.4l-0.3-2
	c-2.6,0.4-5.2,0.9-7.9,1.4L155.7,79.9z M171.4,77.2c2.6-0.4,5.2-0.8,7.9-1.2l-0.3-2c-2.6,0.4-5.3,0.8-7.9,1.2L171.4,77.2z
	 M187.1,74.9c2.6-0.3,5.3-0.7,7.9-1l-0.2-2c-2.6,0.3-5.3,0.7-7.9,1L187.1,74.9z M202.9,73c2.6-0.3,5.3-0.6,7.9-0.8l-0.2-2
	c-2.6,0.3-5.3,0.5-7.9,0.8L202.9,73z M218.7,71.4c2.6-0.2,5.3-0.4,7.9-0.6l-0.2-2c-2.7,0.2-5.3,0.4-8,0.6L218.7,71.4z M234.6,70.2
	c2.6-0.2,5.3-0.3,7.9-0.5l-0.1-2c-2.7,0.1-5.3,0.3-8,0.5L234.6,70.2z M250.5,69.4c2.6-0.1,5.3-0.2,7.9-0.3l-0.1-2
	c-2.7,0.1-5.3,0.2-8,0.3L250.5,69.4z M266.4,68.8c2.7-0.1,5.3-0.1,8-0.2v-2c-2.7,0.1-5.3,0.1-8,0.2V68.8z M282.3,68.5
	c2.6,0,5.3,0,8-0.1v-2c-2.7,0-5.3,0-8,0.1V68.5z M298.2,68.4c2.7,0,5.3,0,8,0.1v-2c-2.7,0-5.3,0-8-0.1V68.4z M314.2,68.6
	c2.7,0.1,5.3,0.1,8,0.2v-2c-2.7-0.1-5.3-0.1-8-0.2V68.6z M330.1,69c2.6,0.1,5.3,0.2,8,0.3l0.1-2c-2.7-0.1-5.3-0.2-8-0.3L330.1,69z
	 M346,69.6c2.7,0.1,5.3,0.2,8,0.3l0.1-2c-2.7-0.1-5.3-0.2-8-0.3L346,69.6z M361.9,70.3c2.6,0.1,5.3,0.3,7.9,0.4l0.1-2
	c-2.7-0.1-5.3-0.3-8-0.4V70.3z M377.8,71.2c2.7,0.2,5.3,0.3,8,0.5l0.1-2c-2.7-0.2-5.3-0.3-8-0.5L377.8,71.2z M393.7,72.2
	c2.6,0.2,5.3,0.3,7.9,0.5l0.1-2c-2.6-0.2-5.3-0.4-7.9-0.5L393.7,72.2z M409.6,73.3c2.6,0.2,5.3,0.4,7.9,0.6l0.1-2
	c-2.7-0.2-5.3-0.4-8-0.6V73.3z M425.5,74.5c2.6,0.2,5.3,0.4,7.9,0.6l0.2-2c-2.6-0.2-5.3-0.4-7.9-0.6L425.5,74.5z M441.4,75.7
	c2.6,0.2,5.3,0.4,7.9,0.6l0.2-2c-2.6-0.2-5.3-0.4-7.9-0.7L441.4,75.7z M457.3,77c2.6,0.2,5.3,0.4,7.9,0.7l0.2-2
	c-2.6-0.2-5.3-0.4-7.9-0.7L457.3,77z M473.1,78.3c2.6,0.2,5.3,0.4,7.9,0.7l0.2-2c-2.6-0.2-5.3-0.4-7.9-0.7L473.1,78.3z M489,79.7
	c2.6,0.2,5.3,0.4,7.9,0.7l0.2-2c-2.6-0.2-5.3-0.4-7.9-0.7L489,79.7z M504.9,81c2.6,0.2,5.3,0.4,7.9,0.7l0.2-2
	c-2.6-0.2-5.3-0.4-7.9-0.6L504.9,81z M520.8,82.3c2.6,0.2,5.3,0.4,7.9,0.6l0.2-2c-2.6-0.2-5.3-0.4-7.9-0.6L520.8,82.3z M536.7,83.5
	c2.6,0.2,5.3,0.4,7.9,0.6l0.1-2c-2.6-0.2-5.3-0.4-7.9-0.6L536.7,83.5z M552.6,84.7c2.7,0.2,5.3,0.4,8,0.5l0.1-2
	c-2.7-0.2-5.3-0.4-7.9-0.5L552.6,84.7z M568.5,85.7c2.7,0.2,5.3,0.3,8,0.5l0.1-2c-2.6-0.2-5.3-0.3-7.9-0.5L568.5,85.7z M584.4,86.7
	c2.7,0.2,5.3,0.3,8,0.4l0.1-2c-2.7-0.1-5.3-0.3-8-0.4L584.4,86.7z M600.3,87.5c2.7,0.1,5.3,0.2,8,0.4l0.1-2c-2.7-0.1-5.3-0.2-8-0.4
	L600.3,87.5z M616.2,88.2c2.7,0.1,5.3,0.2,8,0.3l0.1-2c-2.7-0.1-5.3-0.2-8-0.3L616.2,88.2z M632.2,88.7c2.7,0.1,5.3,0.1,8,0.2v-2
	c-2.7-0.1-5.3-0.1-8-0.2V88.7z M648.1,89.1c2.7,0,5.3,0.1,8,0.1v-2c-2.7,0-5.3-0.1-8-0.1V89.1z M664.1,89.2c2.7,0,5.3,0,8,0v-2
	c-2.7,0-5.3,0-8,0V89.2z M680,89.1c2.7,0,5.3-0.1,8-0.1v-2c-2.7,0.1-5.3,0.1-8,0.1V89.1z M696,88.8c2.7-0.1,5.3-0.2,8-0.3l-0.1-2
	c-2.7,0.1-5.3,0.2-8,0.3L696,88.8z M711.9,88.2c2.7-0.1,5.3-0.3,8-0.4l-0.1-2c-2.6,0.2-5.3,0.3-7.9,0.4V88.2z M727.8,87.3
	c2.7-0.2,5.3-0.4,8-0.6l-0.2-2c-2.6,0.2-5.3,0.4-7.9,0.6L727.8,87.3z M743.8,86.1c2.6-0.2,5.3-0.5,7.9-0.7l-0.2-2
	c-2.6,0.2-5.3,0.5-7.9,0.7L743.8,86.1z M759.6,84.6c2.6-0.3,5.3-0.6,7.9-0.9l-0.2-2c-2.6,0.3-5.3,0.6-7.9,0.9L759.6,84.6z
	 M775.5,82.7c2.6-0.3,5.3-0.7,7.9-1.1l-0.3-2c-2.6,0.4-5.3,0.7-7.9,1.1L775.5,82.7z M791.3,80.5c2.6-0.4,5.3-0.8,7.9-1.2l-0.3-2
	c-2.6,0.4-5.2,0.8-7.9,1.2L791.3,80.5z M807,77.9c2.6-0.5,5.2-1,7.8-1.5l-0.4-2c-2.6,0.5-5.2,1-7.8,1.4L807,77.9z M822.7,74.9
	c1.3-0.3,2.6-0.5,3.9-0.8l-0.4-2c-1.3,0.3-2.6,0.5-3.9,0.8L822.7,74.9z M826.6,74.1c1.3-0.3,2.6-0.5,3.9-0.8l-0.4-2
	c-1.3,0.3-2.6,0.6-3.9,0.8L826.6,74.1z M838.4,71.7c2.6-0.5,5.2-1.1,7.9-1.6l-0.4-2c-2.6,0.5-5.3,1.1-7.9,1.6L838.4,71.7z
	 M854.2,68.5c2.6-0.5,5.2-1,7.9-1.5l-0.4-2c-2.6,0.5-5.2,1-7.9,1.5L854.2,68.5z M869.9,65.5c2.6-0.5,5.3-1,7.9-1.5l-0.4-2
	c-2.6,0.5-5.3,1-7.9,1.5L869.9,65.5z M885.7,62.6c2.6-0.5,5.3-0.9,7.9-1.4l-0.3-2c-2.6,0.5-5.3,0.9-7.9,1.4L885.7,62.6z M901.5,59.9
	c2.6-0.4,5.3-0.9,7.9-1.3l-0.3-2c-2.6,0.4-5.3,0.9-7.9,1.3L901.5,59.9z M917.3,57.2c2.6-0.4,5.3-0.9,7.9-1.3l-0.3-2
	c-2.6,0.4-5.3,0.8-7.9,1.3L917.3,57.2z M933.2,54.7c2.6-0.4,5.3-0.8,7.9-1.2l-0.3-2c-2.6,0.4-5.3,0.8-7.9,1.2L933.2,54.7z
	 M949.1,52.3c2.6-0.4,5.3-0.8,7.9-1.2l-0.3-2c-2.6,0.4-5.3,0.8-7.9,1.2L949.1,52.3z M964.9,49.9c2.7-0.4,5.3-0.8,8-1.1l-0.3-2
	c-2.7,0.4-5.3,0.8-8,1.1L964.9,49.9z M980.8,47.7c2.7-0.4,5.3-0.7,7.9-1.1l-0.3-2c-2.6,0.3-5.3,0.7-8,1.1L980.8,47.7z M996.8,45.6
	c2.7-0.4,5.3-0.7,8-1l-0.2-2c-2.7,0.3-5.3,0.7-8,1L996.8,45.6z M1012.7,43.5c2.7-0.3,5.3-0.7,8-1l-0.2-2c-2.6,0.3-5.3,0.7-8,1
	L1012.7,43.5z M1028.6,41.6c2.7-0.3,5.3-0.6,8-1l-0.2-2c-2.7,0.3-5.3,0.6-8,1L1028.6,41.6z M1044.6,39.7c2.7-0.3,5.3-0.6,8-0.9
	l-0.2-2c-2.7,0.3-5.3,0.6-8,0.9L1044.6,39.7z M1060.5,37.9c2.7-0.3,5.3-0.6,8-0.9l-0.2-2c-2.7,0.3-5.3,0.6-8,0.9L1060.5,37.9z
	 M1076.4,36.2c2.7-0.3,5.4-0.6,8-0.8l-0.2-2c-2.7,0.3-5.3,0.6-8,0.8L1076.4,36.2z M1092.5,34.5c2.7-0.3,5.3-0.5,8-0.8l-0.2-2
	c-2.7,0.3-5.3,0.5-8,0.8L1092.5,34.5z M1108.4,33c2.7-0.3,5.3-0.5,8-0.8l-0.2-2c-2.7,0.2-5.3,0.5-8,0.8L1108.4,33z M1124.4,31.5
	c2.7-0.2,5.3-0.5,8-0.7l-0.2-2c-2.7,0.2-5.3,0.5-8,0.7L1124.4,31.5z M1140.4,30c2.7-0.2,5.3-0.5,8-0.7l-0.2-2
	c-2.7,0.2-5.3,0.5-8,0.7L1140.4,30z M1156.4,28.7c2.7-0.2,5.4-0.4,8.1-0.6l-0.2-2c-2.7,0.2-5.4,0.4-8.1,0.7L1156.4,28.7z
	 M1172.4,27.4c2.7-0.2,5.3-0.4,7.9-0.6l-0.2-2c-2.6,0.2-5.3,0.4-7.9,0.6L1172.4,27.4z M1188.4,26.2c2.7-0.2,5.4-0.4,8-0.6l-0.1-2
	c-2.7,0.2-5.3,0.4-8,0.6L1188.4,26.2z M1204.4,25c2.7-0.2,5.4-0.4,8-0.6l-0.1-2c-2.7,0.2-5.4,0.4-8.1,0.6L1204.4,25z M1220.5,24
	c2.7-0.2,5.3-0.3,8-0.5l-0.1-2c-2.6,0.2-5.3,0.3-8,0.5L1220.5,24z M1236.5,22.9c2.7-0.2,5.4-0.3,8-0.5l-0.1-2
	c-2.7,0.2-5.3,0.3-8,0.5L1236.5,22.9z M1252.5,22c2.7-0.2,5.4-0.3,8.1-0.5l-0.1-2c-2.7,0.2-5.4,0.3-8.1,0.5L1252.5,22z M1268.6,21.1
	c2.7-0.1,5.3-0.3,7.9-0.4l-0.1-2c-2.6,0.1-5.3,0.3-7.9,0.4L1268.6,21.1z M1284.6,20.3c2.7-0.1,5.4-0.3,8-0.4l-0.1-2
	c-2.7,0.1-5.3,0.3-8,0.4L1284.6,20.3z M1300.6,19.5c2.7-0.1,5.4-0.2,8.1-0.4l-0.1-2c-2.7,0.1-5.4,0.2-8.1,0.4L1300.6,19.5z
	 M1316.6,18.8c2.7-0.1,5.4-0.2,8.1-0.3l-0.1-2c-2.7,0.1-5.3,0.2-8.1,0.3L1316.6,18.8z M1332.7,18.1c2.7-0.1,5.3-0.2,7.9-0.3l-0.1-2
	c-2.6,0.1-5.3,0.2-7.9,0.3L1332.7,18.1z M1348.8,17.5c2.7-0.1,5.3-0.2,7.9-0.3l-0.1-2c-2.6,0.1-5.2,0.2-7.9,0.3L1348.8,17.5z
	 M1364.8,17c2.7-0.1,5.3-0.2,8-0.2l-0.1-2c-2.6,0.1-5.3,0.2-8,0.2L1364.8,17z M1380.9,16.5c2.7-0.1,5.4-0.1,8-0.2v-2
	c-2.6,0.1-5.2,0.1-8,0.2V16.5z M1396.9,16.1c2.7-0.1,5.4-0.1,7.9-0.2v-2c-2.6,0.1-5.2,0.1-7.9,0.2V16.1z M1413,15.8
	c2.7-0.1,5.4-0.1,7.9-0.1v-2c-2.6,0-5.2,0.1-7.9,0.1V15.8z M1429,15.5c2.9,0,5.6-0.1,8.1-0.1v-2c-2.5,0-5.3,0.1-8.1,0.1V15.5z
	 M1445.2,15.4c3,0,5.7,0,8-0.1v-2c-2.4,0-5,0-8.1,0.1L1445.2,15.4z M1461,15.3c1.3,0,2.3,0,3,0c0.3,0,0.6,0,0.8,0c0.1,0,0.2,0,0.2,0
	l0,0l0,0l0,0l0,0l0,0c0,0,0,0,0-1s0-1,0-1l0,0l0,0l0,0l0,0l0,0c0,0,0,0-0.1,0c0,0-0.1,0-0.2,0c-0.2,0-0.4,0-0.8,0c-0.7,0-1.7,0-3,0
	L1461,15.3L1461,15.3z M1466,14.3v-4h-2v4H1466z M1466,2.3v-8h-2v8C1464,2.3,1466,2.3,1466,2.3z M1466-13.6v-8h-2v8H1466z
	 M1466-29.6v-8h-2v8C1464-29.6,1466-29.6,1466-29.6z M1466-45.6v-8h-2v8H1466z M1466-61.5v-8h-2v8H1466z M1466-77.5v-8h-2v8H1466z
	 M1466-93.5v-8h-2v8H1466z M1466-109.4v-8h-2v8H1466z M1466-125.4v-8h-2v8C1464-125.4,1466-125.4,1466-125.4z M1466-141.4v-8h-2v8
	H1466z M1466-157.3v-8h-2v8H1466z M1466-173.3v-8h-2v8H1466z M1466-189.3v-8h-2v8H1466z M1466-205.2v-8h-2v8H1466z M1466-221.2v-8
	h-2v8H1466z M1466-237.1v-8h-2v8H1466z M1466-253.1v-8h-2v8H1466z M1466-269.1v-8h-2v8H1466z M1466-285v-8h-2v8H1466z M1466-301v-8
	h-2v8H1466z M1466-317v-8h-2v8H1466z M1466-332.9v-8h-2v8H1466z M1466-348.9v-8h-2v8H1466z M1466-364.9v-8h-2v8H1466z M1466-380.8
	v-8h-2v8H1466z M1466-396.8v-8h-2v8H1466z M1466-412.8v-8h-2v8H1466z M1466-428.7v-8h-2v8H1466z M1466-444.7v-8h-2v8H1466z
	 M1466-460.7v-8h-2v8H1466z M1466-476.6v-8h-2v8H1466z M1466-492.6v-8h-2v8H1466z M1466-508.6v-8h-2v8L1466-508.6L1466-508.6z
	 M1466-524.5v-8h-2v8H1466z M1466-540.5v-8h-2v8H1466z M1466-556.5v-8h-2v8H1466z M1466-572.4v-8h-2v8H1466z M1466-588.4v-8h-2v8
	H1466z M1466-604.4v-8h-2v8H1466z M1466-620.3v-8h-2v8H1466z M1466-636.3v-8h-2v8H1466z M1466-652.3v-8h-2v8H1466z M1466-668.2v-8
	h-2v8H1466z M1466-684.2v-8h-2v8H1466z M1466-700.2v-8h-2v8H1466z M1466-716.1v-8h-2v8H1466z M1466-732.1v-8h-2v8H1466z M1466-748.1
	v-8h-2v8H1466z M1466-764v-8h-2v8H1466z M1466-780v-8h-2v8H1466z M1466-796v-8h-2v8H1466z M1466-811.9v-8h-2v8H1466z M1466-827.9v-8
	h-2v8H1466z M1466-843.9v-8h-2v8H1466z M1466-859.8v-8h-2v8H1466z M1466-875.8v-8h-2v8H1466z M1466-891.8v-8h-2v8H1466z M1466-907.7
	v-8h-2v8H1466z M1466-923.7v-8h-2v8H1466z M1466-939.7v-8h-2v8H1466z M1466-955.6v-8h-2v8H1466z M1466-971.6v-8h-2v8H1466z
	 M1466-987.6v-8h-2v8H1466z M1466-1003.5v-8h-2v8H1466z M1466-1019.5v-8h-2v8H1466z M1466-1035.4v-8h-2v8H1466z M1466-1051.4v-8h-2
	v8H1466z M1466-1067.4v-8h-2v8H1466z M1466-1083.3v-8h-2v8H1466z M1466-1099.3v-8h-2v8H1466z M1466-1115.3v-8h-2v8H1466z
	 M1466-1131.2v-8h-2v8H1466z M1466-1147.2v-8h-2v8H1466z M1466-1163.2v-8h-2v8H1466z M1466-1179.1v-8h-2v8H1466z M1466-1195.1v-8h-2
	v8H1466z M1466-1211.1v-8h-2v8H1466z M1466-1227v-8h-2v8H1466z M1466-1243v-8h-2v8H1466z M1466-1259v-8h-2v8H1466z M1466-1274.9v-8
	h-2v8H1466z M1466-1290.9v-8h-2v8H1466z M1466-1306.9v-8h-2v8H1466z M1466-1322.8v-8h-2v8H1466z M1466-1338.8v-8h-2v8H1466z
	 M1466-1354.8v-8h-2v8H1466z M1466-1370.7v-8h-2v8H1466z M1466-1386.7v-8h-2v8H1466z M1466-1402.7v-8h-2v8H1466z M1466-1418.6v-8h-2
	v8H1466z M1466-1434.6v-8h-2v8H1466z M1466-1450.6v-8h-2v8H1466z M1466-1466.5v-8h-2v8H1466z M1466-1482.5v-4h-2v4H1466z
	 M1464.5-1487.4c-1.2,0.6-2.4,1.2-3.6,1.8l0.9,1.8c1.2-0.6,2.4-1.2,3.6-1.8L1464.5-1487.4z M1453.8-1482c-2.4,1.2-4.8,2.3-7.1,3.4
	l0.9,1.8c2.4-1.1,4.8-2.3,7.1-3.4L1453.8-1482z M1439.4-1475.2c-2.4,1.1-4.8,2.1-7.3,3.2l0.8,1.8c2.4-1,4.9-2.1,7.3-3.2
	L1439.4-1475.2z M1424.8-1469c-2.5,1-4.9,2-7.4,2.9l0.7,1.9c2.5-0.9,5-1.9,7.4-2.9L1424.8-1469z M1409.9-1463.4
	c-2.5,0.9-5,1.8-7.5,2.6l0.6,1.9c2.5-0.9,5-1.7,7.6-2.7L1409.9-1463.4z M1394.9-1458.2c-2.6,0.8-5.1,1.6-7.6,2.4l0.6,1.9
	c2.6-0.8,5.1-1.6,7.7-2.4L1394.9-1458.2z M1379.7-1453.6c-2.6,0.7-5.1,1.4-7.7,2.1l0.5,1.9c2.6-0.7,5.2-1.4,7.7-2.1L1379.7-1453.6z
	 M1364.3-1449.6c-2.6,0.6-5.2,1.2-7.8,1.8l0.4,2c2.6-0.6,5.2-1.2,7.8-1.8L1364.3-1449.6z M1348.8-1446.2c-2.6,0.5-5.2,1-7.8,1.5
	l0.4,2c2.6-0.5,5.2-1,7.8-1.5L1348.8-1446.2z M1333.1-1443.3c-2.6,0.4-5.2,0.8-7.8,1.2l0.3,2c2.6-0.4,5.2-0.8,7.9-1.2L1333.1-1443.3
	z M1317.4-1441c-2.6,0.3-5.3,0.7-7.9,1l0.2,2c2.6-0.3,5.3-0.6,7.9-1L1317.4-1441z M1301.6-1439.2c-2.6,0.3-5.3,0.5-7.9,0.7l0.2,2
	c2.6-0.2,5.3-0.5,7.9-0.7L1301.6-1439.2z M1285.7-1437.9c-2.6,0.2-5.3,0.3-7.9,0.5l0.1,2c2.7-0.1,5.3-0.3,8-0.5L1285.7-1437.9z
	 M1269.8-1437.1c-2.6,0.1-5.3,0.2-8,0.2l0.1,2c2.7-0.1,5.3-0.1,8-0.2L1269.8-1437.1z M1253.9-1436.7c-2.7,0-5.3,0-8,0v2
	c2.7,0,5.3,0,8,0V-1436.7z M1238-1436.7c-2.7,0-5.3-0.1-8-0.1v2c2.7,0.1,5.3,0.1,8,0.1V-1436.7z M1222.1-1437.1
	c-2.6-0.1-5.3-0.2-7.9-0.3l-0.1,2c2.7,0.1,5.3,0.2,8,0.3V-1437.1z M1206.2-1437.7c-2.6-0.1-5.3-0.3-7.9-0.4l-0.1,2
	c2.7,0.2,5.3,0.3,8,0.4V-1437.7z M1190.3-1438.7c-2.6-0.2-5.3-0.4-7.9-0.6l-0.1,2c2.6,0.2,5.3,0.4,7.9,0.6L1190.3-1438.7z
	 M1174.4-1439.8c-2.6-0.2-5.3-0.4-7.9-0.7l-0.2,2c2.7,0.2,5.3,0.4,7.9,0.7L1174.4-1439.8z M1158.5-1441.2c-2.6-0.2-5.3-0.5-7.9-0.7
	l-0.2,2c2.7,0.3,5.3,0.5,7.9,0.7L1158.5-1441.2z M1142.7-1442.7c-2.6-0.3-5.3-0.5-7.9-0.8l-0.2,2c2.7,0.3,5.3,0.5,7.9,0.8
	L1142.7-1442.7z M1126.8-1444.4c-2.6-0.3-5.3-0.6-7.9-0.8l-0.2,2c2.7,0.3,5.3,0.6,7.9,0.8L1126.8-1444.4z M1111-1446.1
	c-2.6-0.3-5.3-0.6-7.9-0.9l-0.2,2c2.6,0.3,5.3,0.6,7.9,0.9L1111-1446.1z M1095.1-1447.8c-2.6-0.3-5.3-0.6-7.9-0.9l-0.2,2
	c2.7,0.3,5.3,0.6,7.9,0.9L1095.1-1447.8z M1079.3-1449.6c-2.6-0.3-5.3-0.6-7.9-0.9l-0.2,2c2.7,0.3,5.3,0.6,7.9,0.9L1079.3-1449.6z
	 M1063.4-1451.3c-2.6-0.3-5.3-0.6-7.9-0.9l-0.2,2c2.6,0.3,5.3,0.6,7.9,0.9L1063.4-1451.3z M1047.5-1453c-2.6-0.3-5.3-0.6-7.9-0.8
	l-0.2,2c2.6,0.3,5.3,0.5,7.9,0.8L1047.5-1453z M1031.7-1454.7c-2.6-0.3-5.3-0.5-7.9-0.8l-0.2,2c2.6,0.3,5.3,0.5,7.9,0.8
	L1031.7-1454.7z M1015.8-1456.2c-2.7-0.2-5.3-0.5-8-0.7l-0.2,2c2.7,0.2,5.3,0.5,8,0.7L1015.8-1456.2z M999.9-1457.7
	c-2.6-0.2-5.3-0.5-8-0.7l-0.2,2c2.7,0.2,5.3,0.4,8,0.7L999.9-1457.7z M984-1459c-2.6-0.2-5.3-0.4-7.9-0.6l-0.1,2
	c2.7,0.2,5.3,0.4,7.9,0.6L984-1459z M968.1-1460.1c-2.6-0.2-5.3-0.3-7.9-0.5l-0.1,2c2.6,0.2,5.3,0.3,7.9,0.5L968.1-1460.1z
	 M952.2-1461.1c-2.6-0.1-5.3-0.3-8-0.4l-0.1,2c2.7,0.1,5.3,0.3,8,0.4L952.2-1461.1z M936.3-1461.9c-2.7-0.1-5.3-0.2-8-0.3l-0.1,2
	c2.7,0.1,5.3,0.2,8,0.3L936.3-1461.9z M920.3-1462.5c-2.6-0.1-5.3-0.2-8-0.2v2c2.7,0.1,5.3,0.1,8,0.2V-1462.5z M904.4-1462.9
	c-2.6,0-5.3-0.1-7.9-0.1v2c2.7,0,5.3,0.1,7.9,0.1V-1462.9z M888.4-1463c-1.3,0-2.7,0-4,0v2c1.3,0,2.7,0,4,0V-1463z M884.4-1463.1
	c-1.3,0-2.6,0-4,0v2c1.3,0,2.6,0,3.9,0L884.4-1463.1L884.4-1463.1z M872.3-1462.9c-2.6,0.1-5.3,0.2-8,0.3l0.1,2
	c2.7-0.1,5.4-0.2,8-0.3L872.3-1462.9z M856.1-1462.2c-2.7,0.2-5.4,0.3-8.2,0.5l0.1,2c2.8-0.2,5.5-0.4,8.1-0.5L856.1-1462.2z
	 M840-1461.1c-2.7,0.2-5.4,0.4-8.1,0.7l0.2,2c2.7-0.2,5.4-0.5,8.1-0.7L840-1461.1z M823.8-1459.7c-2.7,0.3-5.3,0.5-8.1,0.8l0.2,2
	c2.7-0.3,5.4-0.5,8.1-0.8L823.8-1459.7z M807.7-1458c-2.7,0.3-5.3,0.6-8,0.9l0.2,2c2.7-0.3,5.4-0.6,8-0.9L807.7-1458z M791.6-1456.2
	c-2.7,0.3-5.3,0.6-8,1l0.2,2c2.7-0.3,5.4-0.7,8-1L791.6-1456.2z M775.6-1454.2c-2.7,0.3-5.3,0.7-8,1.1l0.3,2c2.7-0.4,5.3-0.7,8-1.1
	L775.6-1454.2z M759.5-1452c-2.7,0.4-5.3,0.7-8,1.1l0.3,2c2.7-0.4,5.3-0.8,8-1.1L759.5-1452z M743.5-1449.7c-2.7,0.4-5.3,0.8-8,1.2
	l0.3,2c2.7-0.4,5.3-0.8,8-1.2L743.5-1449.7z M727.5-1447.3c-2.7,0.4-5.3,0.8-8,1.2l0.3,2c2.7-0.4,5.3-0.8,8-1.2L727.5-1447.3z
	 M711.5-1444.8c-2.7,0.4-5.3,0.9-8,1.3l0.3,2c2.7-0.4,5.3-0.9,8-1.3L711.5-1444.8z M695.5-1442.2c-2.7,0.4-5.3,0.9-8,1.3l0.3,2
	c2.7-0.5,5.3-0.9,8-1.3L695.5-1442.2z M679.6-1439.5c-2.7,0.5-5.3,0.9-8,1.4l0.3,2c2.7-0.5,5.3-0.9,8-1.4L679.6-1439.5z
	 M663.6-1436.7c-2.7,0.5-5.3,0.9-8,1.4l0.4,2c2.7-0.5,5.3-0.9,8-1.4L663.6-1436.7z M647.7-1433.9c-2.7,0.5-5.3,1-8,1.5l0.4,2
	c2.6-0.5,5.3-1,8-1.5L647.7-1433.9z M631.8-1430.9c-2.7,0.5-5.3,1-8,1.5l0.4,2c2.6-0.5,5.3-1,8-1.5L631.8-1430.9z M615.9-1428
	c-2.7,0.5-5.3,1-8,1.5l0.4,2c2.6-0.5,5.3-1,8-1.5L615.9-1428z M600-1424.9c-2.7,0.5-5.3,1-8,1.6l0.4,2c2.6-0.5,5.3-1,8-1.6
	L600-1424.9z M584.1-1421.8c-2.7,0.5-5.3,1.1-8,1.6l0.4,2c2.6-0.5,5.3-1.1,8-1.6L584.1-1421.8z M568.3-1418.6
	c-2.7,0.5-5.3,1.1-8,1.6l0.4,2c2.6-0.5,5.3-1.1,8-1.6L568.3-1418.6z M552.4-1415.4c-2.7,0.6-5.3,1.1-7.9,1.7l0.4,2
	c2.6-0.5,5.3-1.1,7.9-1.7L552.4-1415.4z M536.6-1412c-2.7,0.6-5.3,1.1-7.9,1.7l0.4,2c2.6-0.6,5.3-1.1,7.9-1.7L536.6-1412z
	 M520.7-1408.7c-2.7,0.6-5.3,1.1-7.9,1.7l0.4,2c2.6-0.6,5.3-1.1,7.9-1.7L520.7-1408.7z M504.9-1405.2c-2.7,0.6-5.3,1.2-7.9,1.8
	l0.4,2c2.6-0.6,5.3-1.2,7.9-1.8L504.9-1405.2z M489.1-1401.7c-2.7,0.6-5.3,1.2-8,1.8l0.4,2c2.6-0.6,5.3-1.2,8-1.8L489.1-1401.7z
	 M473.4-1398.1c-2.7,0.6-5.3,1.2-7.9,1.8l0.5,1.9c2.6-0.6,5.2-1.2,7.9-1.8L473.4-1398.1z M457.5-1394.4c-2.7,0.6-5.3,1.3-7.8,1.9
	l0.5,1.9c2.6-0.6,5.2-1.2,7.8-1.9L457.5-1394.4z M441.8-1390.7c-2.7,0.7-5.3,1.3-7.8,1.9l0.5,1.9c2.5-0.6,5.2-1.3,7.8-1.9
	L441.8-1390.7z M426.2-1386.8c-2.7,0.7-5.4,1.4-7.9,2l0.5,1.9c2.5-0.7,5.2-1.3,7.9-2L426.2-1386.8z M410.4-1382.7
	c-1.3,0.3-2.6,0.7-3.8,1l0.5,1.9c1.2-0.3,2.5-0.7,3.8-1L410.4-1382.7z M406.6-1381.7c-1.2,0.3-2.4,0.7-3.7,1l0.5,1.9
	c1.3-0.3,2.6-0.7,3.8-1L406.6-1381.7z M394.9-1378.8c-2.6,0.6-5.2,1.1-8,1.6l0.4,2c2.8-0.5,5.5-1.1,8.1-1.6L394.9-1378.8z
	 M379.1-1375.8c-2.6,0.4-5.3,0.9-8,1.3l0.3,2c2.8-0.4,5.4-0.9,8-1.3L379.1-1375.8z M363-1373.2c-2.6,0.4-5.2,0.8-7.9,1.1l0.3,2
	c2.7-0.4,5.4-0.8,8-1.1L363-1373.2z M346.9-1371c-2.6,0.3-5.3,0.7-8,1l0.2,2c2.7-0.3,5.4-0.7,8-1L346.9-1371z M330.8-1369
	c-2.6,0.3-5.3,0.6-8,0.9l0.2,2c2.7-0.3,5.4-0.6,8-0.9L330.8-1369z M314.7-1367.3c-2.6,0.3-5.3,0.6-8,0.8l0.2,2
	c2.7-0.3,5.4-0.5,8-0.8L314.7-1367.3z M298.5-1365.6c-2.7,0.3-5.3,0.5-8,0.8l0.2,2c2.7-0.2,5.4-0.5,8-0.8L298.5-1365.6z
	 M282.4-1364.1c-2.7,0.2-5.3,0.5-8,0.7l0.2,2c2.7-0.2,5.4-0.5,8-0.7L282.4-1364.1z M266.2-1362.8c-2.7,0.2-5.4,0.4-8.1,0.7l0.2,2
	c2.7-0.2,5.4-0.4,8.1-0.7L266.2-1362.8z M250-1361.5c-2.7,0.2-5.4,0.4-8.1,0.6l0.1,2c2.7-0.2,5.4-0.4,8.1-0.6L250-1361.5z
	 M233.8-1360.3c-2.7,0.2-5.4,0.4-8.1,0.6l0.1,2c2.7-0.2,5.4-0.4,8.1-0.6L233.8-1360.3z M217.7-1359.1c-2.7,0.2-5.4,0.4-8.1,0.5
	l0.1,2c2.7-0.2,5.4-0.4,8.1-0.5L217.7-1359.1z M201.4-1358.1c-2.7,0.2-5.4,0.3-8.1,0.5l0.1,2c2.7-0.2,5.4-0.3,8.1-0.5L201.4-1358.1z
	 M185.2-1357c-2.7,0.2-5.4,0.3-8.1,0.5l0.1,2c2.7-0.2,5.4-0.3,8.1-0.5L185.2-1357z M169-1356.1c-2.7,0.2-5.4,0.3-8.1,0.5l0.1,2
	c2.7-0.2,5.4-0.3,8.1-0.5L169-1356.1z M152.8-1355.2c-2.7,0.1-5.4,0.3-8.1,0.4l0.1,2c2.7-0.1,5.4-0.3,8.1-0.4L152.8-1355.2z
	 M136.6-1354.3c-2.7,0.1-5.5,0.3-8.2,0.4l0.1,2c2.7-0.1,5.4-0.3,8.2-0.4L136.6-1354.3z M120.4-1353.5c-2.7,0.1-5.4,0.3-8.1,0.4
	l0.1,2c2.7-0.1,5.4-0.3,8.1-0.4L120.4-1353.5z M104.2-1352.7c-2.7,0.1-5.4,0.3-8.1,0.4l0.1,2c2.7-0.1,5.4-0.3,8.1-0.4L104.2-1352.7z
	 M88-1351.9c-2.7,0.1-5.4,0.2-8.1,0.4l0.1,2c2.7-0.1,5.4-0.2,8.1-0.4L88-1351.9z M71.7-1351.2c-2.7,0.1-5.5,0.2-8.1,0.3l0.1,2
	c2.7-0.1,5.4-0.2,8.1-0.3L71.7-1351.2z M55.5-1350.6c-2.8,0.1-5.5,0.2-8.2,0.3l0.1,2c2.7-0.1,5.4-0.2,8.2-0.3L55.5-1350.6z
	 M39.4-1349.9c-2.8,0.1-5.6,0.2-8.2,0.3l0.1,2c2.7-0.1,5.4-0.2,8.2-0.3L39.4-1349.9z M23-1349.3c-2.8,0.1-5.5,0.2-8.1,0.3l0.1,2
	c2.6-0.1,5.3-0.2,8.1-0.3L23-1349.3z M6.8-1348.7c-2.9,0.1-5.6,0.2-8.1,0.3l0.1,2c2.6-0.1,5.3-0.2,8.1-0.3L6.8-1348.7z M-9.5-1348.2
	c-3,0.1-5.8,0.2-8.1,0.3l0.1,2c2.4-0.1,5.1-0.2,8.1-0.3L-9.5-1348.2z M-25.5-1347.7c-1.3,0-2.3,0.1-3,0.1c-0.3,0-0.6,0-0.8,0
	c-0.1,0-0.2,0-0.2,0l0,0l0,0l0,0l0,0l0,0l0,0c0,0,0,0,0,1s0,1,0,1l0,0l0,0l0,0l0,0l0,0l0,0c0,0,0.1,0,0.2,0c0.2,0,0.4,0,0.8,0
	c0.7,0,1.7,0,3-0.1V-1347.7z"/>
</svg>
