<?xml version="1.0" encoding="utf-8"?>
<!-- Generator: Adobe Illustrator 24.1.3, SVG Export Plug-In . SVG Version: 6.00 Build 0)  -->
<svg version="1.1" id="Layer_1" xmlns="http://www.w3.org/2000/svg" xmlns:xlink="http://www.w3.org/1999/xlink" x="0px" y="0px"
	 viewBox="0 0 1440 154.8" style="enable-background:new 0 0 1440 154.8;" xml:space="preserve">
<style type="text/css">
	.st0{fill:#F8F1EB;}
	.st1{fill:#FFFFFF;filter:url(#Adobe_OpacityMaskFilter);}
	.st2{mask:url(#path-1-inside-1_577_2781_1_);}
</style>
<path class="st0" d="M-29.5,139.9c0,0,345.6-9,436.4-34.1c90.8-24.7,360.1-81.3,477.5-81.3c232.4,0,392.4,73.3,580.6-24.4v1500.8
	c0,0-349.3-2.1-638.6,58.8c-289.3,60.9-594.6-93.9-858.4,80.4"/>
<defs>
	<filter id="Adobe_OpacityMaskFilter" filterUnits="userSpaceOnUse" x="-32.6" y="-1.6" width="1498.6" height="1642.5">
		<feColorMatrix  type="matrix" values="1 0 0 0 0  0 1 0 0 0  0 0 1 0 0  0 0 0 1 0"/>
	</filter>
</defs>
<mask maskUnits="userSpaceOnUse" x="-32.6" y="-1.6" width="1498.6" height="1642.5" id="path-1-inside-1_577_2781_1_">
	<path class="st1" d="M-29.5,139.9c0,0,345.6-9,436.4-34.1c90.8-24.7,360.1-81.3,477.5-81.3c232.4,0,392.4,73.3,580.6-24.4v1500.8
		c0,0-349.3-2.1-638.6,58.8c-289.3,60.9-594.6-93.9-858.4,80.4"/>
</mask>
<path class="st2" d="M406.9,105.8l-0.1-0.5h0L406.9,105.8z M1465,0h0.5v-0.8l-0.7,0.4L1465,0z M1465,1500.8v0.5h0.5v-0.5H1465z
	 M826.4,1559.6l0.1,0.5L826.4,1559.6z M-31.7,1640.4c1.1-0.7,2.2-1.5,3.4-2.2l-0.5-0.8c-1.1,0.7-2.3,1.5-3.4,2.2L-31.7,1640.4z
	 M-21.6,1633.9c2.3-1.4,4.5-2.8,6.8-4.2l-0.5-0.8c-2.3,1.4-4.5,2.8-6.8,4.2L-21.6,1633.9z M-8,1625.7c2.3-1.3,4.6-2.7,6.9-4
	l-0.5-0.9c-2.3,1.3-4.6,2.6-7,4L-8,1625.7z M5.9,1617.9c2.3-1.3,4.7-2.5,7-3.7l-0.5-0.9c-2.3,1.2-4.7,2.5-7,3.7L5.9,1617.9z
	 M20,1610.6c2.4-1.2,4.8-2.4,7.2-3.5l-0.4-0.9c-2.4,1.1-4.8,2.3-7.2,3.5L20,1610.6z M34.4,1603.7c2.4-1.1,4.8-2.2,7.2-3.2l-0.4-0.9
	c-2.4,1-4.8,2.1-7.2,3.2L34.4,1603.7z M48.9,1597.3c2.5-1,4.9-2,7.4-3l-0.4-0.9c-2.5,1-4.9,2-7.4,3L48.9,1597.3z M63.7,1591.4
	c2.5-1,5-1.9,7.4-2.8l-0.3-0.9c-2.5,0.9-5,1.8-7.5,2.8L63.7,1591.4z M78.7,1586c2.5-0.9,5-1.7,7.5-2.5l-0.3-0.9
	c-2.5,0.8-5,1.7-7.6,2.5L78.7,1586z M93.8,1581.1c2.5-0.8,5.1-1.6,7.6-2.3l-0.3-1c-2.6,0.8-5.1,1.5-7.7,2.3L93.8,1581.1z
	 M109.1,1576.6c2.6-0.7,5.1-1.4,7.7-2.1l-0.3-1c-2.6,0.7-5.1,1.4-7.7,2.1L109.1,1576.6z M124.5,1572.6c2.6-0.6,5.2-1.2,7.8-1.8
	l-0.2-1c-2.6,0.6-5.2,1.2-7.8,1.8L124.5,1572.6z M140,1569c2.6-0.6,5.2-1.1,7.8-1.6l-0.2-1c-2.6,0.5-5.2,1.1-7.8,1.6L140,1569z
	 M155.6,1565.9c2.6-0.5,5.2-1,7.8-1.4l-0.2-1c-2.6,0.4-5.2,0.9-7.9,1.4L155.6,1565.9z M171.3,1563.2c2.6-0.4,5.2-0.8,7.9-1.2l-0.1-1
	c-2.6,0.4-5.3,0.8-7.9,1.2L171.3,1563.2z M187.1,1560.9c2.6-0.3,5.3-0.7,7.9-1l-0.1-1c-2.6,0.3-5.3,0.7-7.9,1L187.1,1560.9z
	 M202.9,1559c2.6-0.3,5.3-0.6,7.9-0.8l-0.1-1c-2.6,0.3-5.3,0.5-7.9,0.8L202.9,1559z M218.7,1557.4c2.6-0.2,5.3-0.4,7.9-0.6l-0.1-1
	c-2.7,0.2-5.3,0.4-8,0.6L218.7,1557.4z M234.6,1556.2c2.6-0.2,5.3-0.3,7.9-0.5l-0.1-1c-2.7,0.1-5.3,0.3-8,0.5L234.6,1556.2z
	 M250.5,1555.4c2.6-0.1,5.3-0.2,8-0.3l0-1c-2.7,0.1-5.3,0.2-8,0.3L250.5,1555.4z M266.4,1554.8c2.7-0.1,5.3-0.1,8-0.2l0-1
	c-2.7,0.1-5.3,0.1-8,0.2L266.4,1554.8z M282.3,1554.5c2.7,0,5.3,0,8-0.1l0-1c-2.7,0-5.3,0-8,0.1L282.3,1554.5z M298.2,1554.4
	c2.7,0,5.3,0,8,0.1l0-1c-2.7,0-5.3,0-8-0.1L298.2,1554.4z M314.2,1554.6c2.7,0.1,5.3,0.1,8,0.2l0-1c-2.7-0.1-5.3-0.1-8-0.2
	L314.2,1554.6z M330.1,1555c2.7,0.1,5.3,0.2,8,0.3l0-1c-2.7-0.1-5.3-0.2-8-0.3L330.1,1555z M346,1555.6c2.7,0.1,5.3,0.2,8,0.3l0-1
	c-2.7-0.1-5.3-0.2-8-0.3L346,1555.6z M361.9,1556.3c2.6,0.1,5.3,0.3,7.9,0.4l0.1-1c-2.7-0.1-5.3-0.3-7.9-0.4L361.9,1556.3z
	 M377.8,1557.2c2.7,0.2,5.3,0.3,8,0.5l0.1-1c-2.7-0.2-5.3-0.3-8-0.5L377.8,1557.2z M393.7,1558.2c2.6,0.2,5.3,0.3,7.9,0.5l0.1-1
	c-2.6-0.2-5.3-0.4-7.9-0.5L393.7,1558.2z M409.6,1559.3c2.6,0.2,5.3,0.4,7.9,0.6l0.1-1c-2.7-0.2-5.3-0.4-8-0.6L409.6,1559.3z
	 M425.5,1560.5c2.6,0.2,5.3,0.4,7.9,0.6l0.1-1c-2.6-0.2-5.3-0.4-7.9-0.6L425.5,1560.5z M441.4,1561.7c2.6,0.2,5.3,0.4,7.9,0.6l0.1-1
	c-2.6-0.2-5.3-0.4-7.9-0.7L441.4,1561.7z M457.3,1563c2.6,0.2,5.3,0.4,7.9,0.7l0.1-1c-2.6-0.2-5.3-0.4-7.9-0.7L457.3,1563z
	 M473.2,1564.3c2.6,0.2,5.3,0.4,7.9,0.7l0.1-1c-2.6-0.2-5.3-0.4-7.9-0.7L473.2,1564.3z M489.1,1565.7c2.6,0.2,5.3,0.4,7.9,0.7l0.1-1
	c-2.6-0.2-5.3-0.4-7.9-0.7L489.1,1565.7z M504.9,1567c2.6,0.2,5.3,0.4,7.9,0.7l0.1-1c-2.6-0.2-5.3-0.4-7.9-0.7L504.9,1567z
	 M520.8,1568.3c2.6,0.2,5.3,0.4,7.9,0.6l0.1-1c-2.6-0.2-5.3-0.4-7.9-0.6L520.8,1568.3z M536.7,1569.5c2.6,0.2,5.3,0.4,7.9,0.6l0.1-1
	c-2.6-0.2-5.3-0.4-7.9-0.6L536.7,1569.5z M552.6,1570.7c2.7,0.2,5.3,0.4,8,0.5l0.1-1c-2.7-0.2-5.3-0.4-7.9-0.5L552.6,1570.7z
	 M568.5,1571.7c2.7,0.2,5.3,0.3,8,0.5l0.1-1c-2.6-0.2-5.3-0.3-7.9-0.5L568.5,1571.7z M584.4,1572.7c2.7,0.2,5.3,0.3,8,0.4l0.1-1
	c-2.7-0.1-5.3-0.3-8-0.4L584.4,1572.7z M600.3,1573.5c2.7,0.1,5.3,0.2,8,0.4l0-1c-2.7-0.1-5.3-0.2-8-0.4L600.3,1573.5z
	 M616.3,1574.2c2.7,0.1,5.3,0.2,8,0.3l0-1c-2.7-0.1-5.3-0.2-8-0.3L616.3,1574.2z M632.2,1574.7c2.7,0.1,5.3,0.1,8,0.2l0-1
	c-2.7-0.1-5.3-0.1-8-0.2L632.2,1574.7z M648.1,1575.1c2.7,0,5.3,0.1,8,0.1l0-1c-2.7,0-5.3-0.1-8-0.1L648.1,1575.1z M664.1,1575.2
	c2.7,0,5.3,0,8,0l0-1c-2.7,0-5.3,0-8,0L664.1,1575.2z M680,1575.1c2.7,0,5.3-0.1,8-0.1l0-1c-2.7,0.1-5.3,0.1-8,0.1L680,1575.1z
	 M696,1574.8c2.7-0.1,5.3-0.2,8-0.3l0-1c-2.7,0.1-5.3,0.2-8,0.3L696,1574.8z M711.9,1574.2c2.7-0.1,5.3-0.3,8-0.4l-0.1-1
	c-2.6,0.2-5.3,0.3-8,0.4L711.9,1574.2z M727.8,1573.3c2.7-0.2,5.3-0.4,8-0.6l-0.1-1c-2.6,0.2-5.3,0.4-7.9,0.6L727.8,1573.3z
	 M743.7,1572.1c2.6-0.2,5.3-0.5,7.9-0.7l-0.1-1c-2.6,0.2-5.3,0.5-7.9,0.7L743.7,1572.1z M759.6,1570.6c2.6-0.3,5.3-0.6,7.9-0.9
	l-0.1-1c-2.6,0.3-5.3,0.6-7.9,0.9L759.6,1570.6z M775.4,1568.7c2.6-0.3,5.3-0.7,7.9-1.1l-0.1-1c-2.6,0.4-5.3,0.7-7.9,1.1
	L775.4,1568.7z M791.2,1566.5c2.6-0.4,5.3-0.8,7.9-1.2l-0.2-1c-2.6,0.4-5.2,0.8-7.9,1.2L791.2,1566.5z M806.9,1563.9
	c2.6-0.5,5.2-0.9,7.8-1.4l-0.2-1c-2.6,0.5-5.2,1-7.8,1.4L806.9,1563.9z M822.6,1560.9c1.3-0.3,2.6-0.5,3.9-0.8l-0.2-1
	c-1.3,0.3-2.6,0.5-3.9,0.8L822.6,1560.9z M826.5,1560.1c1.3-0.3,2.6-0.5,3.9-0.8l-0.2-1c-1.3,0.3-2.6,0.5-3.9,0.8L826.5,1560.1z
	 M838.3,1557.7c2.6-0.5,5.2-1.1,7.9-1.6l-0.2-1c-2.6,0.5-5.3,1.1-7.9,1.6L838.3,1557.7z M854.1,1554.5c2.6-0.5,5.2-1,7.9-1.5l-0.2-1
	c-2.6,0.5-5.2,1-7.9,1.5L854.1,1554.5z M869.8,1551.5c2.6-0.5,5.3-1,7.9-1.5l-0.2-1c-2.6,0.5-5.3,1-7.9,1.5L869.8,1551.5z
	 M885.6,1548.7c2.6-0.5,5.3-0.9,7.9-1.4l-0.2-1c-2.6,0.5-5.3,0.9-7.9,1.4L885.6,1548.7z M901.4,1545.9c2.6-0.5,5.3-0.9,7.9-1.3
	l-0.2-1c-2.6,0.4-5.3,0.9-7.9,1.3L901.4,1545.9z M917.3,1543.2c2.6-0.4,5.3-0.9,7.9-1.3l-0.2-1c-2.6,0.4-5.3,0.8-7.9,1.3
	L917.3,1543.2z M933.1,1540.7c2.6-0.4,5.3-0.8,7.9-1.2l-0.2-1c-2.6,0.4-5.3,0.8-7.9,1.2L933.1,1540.7z M949,1538.3
	c2.6-0.4,5.3-0.8,7.9-1.2l-0.1-1c-2.6,0.4-5.3,0.8-7.9,1.2L949,1538.3z M964.9,1535.9c2.7-0.4,5.3-0.8,8-1.1l-0.1-1
	c-2.7,0.4-5.3,0.8-8,1.1L964.9,1535.9z M980.8,1533.7c2.7-0.4,5.3-0.7,7.9-1.1l-0.1-1c-2.6,0.4-5.3,0.7-8,1.1L980.8,1533.7z
	 M996.7,1531.6c2.7-0.3,5.3-0.7,8-1l-0.1-1c-2.7,0.3-5.3,0.7-8,1L996.7,1531.6z M1012.6,1529.5c2.7-0.3,5.3-0.7,8-1l-0.1-1
	c-2.7,0.3-5.3,0.7-8,1L1012.6,1529.5z M1028.6,1527.6c2.7-0.3,5.3-0.6,8-1l-0.1-1c-2.7,0.3-5.3,0.6-8,1L1028.6,1527.6z
	 M1044.5,1525.7c2.7-0.3,5.3-0.6,8-0.9l-0.1-1c-2.7,0.3-5.3,0.6-8,0.9L1044.5,1525.7z M1060.5,1523.9c2.7-0.3,5.3-0.6,8-0.9l-0.1-1
	c-2.7,0.3-5.3,0.6-8,0.9L1060.5,1523.9z M1076.4,1522.2c2.7-0.3,5.3-0.6,8-0.8l-0.1-1c-2.7,0.3-5.3,0.6-8,0.8L1076.4,1522.2z
	 M1092.4,1520.5c2.7-0.3,5.3-0.5,8-0.8l-0.1-1c-2.7,0.3-5.3,0.5-8,0.8L1092.4,1520.5z M1108.4,1518.9c2.7-0.2,5.3-0.5,8-0.8l-0.1-1
	c-2.7,0.2-5.3,0.5-8,0.8L1108.4,1518.9z M1124.4,1517.5c2.7-0.2,5.3-0.5,8-0.7l-0.1-1c-2.7,0.2-5.3,0.5-8,0.7L1124.4,1517.5z
	 M1140.4,1516c2.7-0.2,5.3-0.5,8-0.7l-0.1-1c-2.7,0.2-5.3,0.5-8,0.7L1140.4,1516z M1156.3,1514.7c2.7-0.2,5.4-0.4,8.1-0.6l-0.1-1
	c-2.7,0.2-5.4,0.4-8.1,0.7L1156.3,1514.7z M1172.4,1513.4c2.7-0.2,5.3-0.4,7.9-0.6l-0.1-1c-2.6,0.2-5.3,0.4-7.9,0.6L1172.4,1513.4z
	 M1188.4,1512.2c2.7-0.2,5.3-0.4,8-0.6l-0.1-1c-2.7,0.2-5.3,0.4-8,0.6L1188.4,1512.2z M1204.4,1511.1c2.7-0.2,5.4-0.4,8.1-0.6
	l-0.1-1c-2.7,0.2-5.3,0.4-8,0.6L1204.4,1511.1z M1220.4,1510c2.7-0.2,5.3-0.3,8-0.5l-0.1-1c-2.6,0.2-5.3,0.3-7.9,0.5L1220.4,1510z
	 M1236.5,1508.9c2.7-0.2,5.4-0.3,8-0.5l-0.1-1c-2.7,0.2-5.3,0.3-8,0.5L1236.5,1508.9z M1252.4,1508c2.7-0.2,5.4-0.3,8.1-0.5l-0.1-1
	c-2.7,0.2-5.4,0.3-8.1,0.5L1252.4,1508z M1268.5,1507.1c2.7-0.1,5.3-0.3,7.9-0.4l0-1c-2.6,0.1-5.3,0.3-7.9,0.4L1268.5,1507.1z
	 M1284.6,1506.2c2.7-0.1,5.4-0.3,8-0.4l0-1c-2.7,0.1-5.3,0.3-8,0.4L1284.6,1506.2z M1300.6,1505.5c2.7-0.1,5.4-0.2,8.1-0.4l-0.1-1
	c-2.7,0.1-5.4,0.2-8.1,0.4L1300.6,1505.5z M1316.6,1504.8c2.7-0.1,5.4-0.2,8.1-0.3l0-1c-2.7,0.1-5.3,0.2-8.1,0.3L1316.6,1504.8z
	 M1332.7,1504.1c2.7-0.1,5.3-0.2,7.9-0.3l0-1c-2.6,0.1-5.3,0.2-7.9,0.3L1332.7,1504.1z M1348.8,1503.5c2.7-0.1,5.3-0.2,7.9-0.3l0-1
	c-2.6,0.1-5.2,0.2-7.9,0.3L1348.8,1503.5z M1364.8,1503c2.7-0.1,5.4-0.2,8-0.2l0-1c-2.6,0.1-5.3,0.2-7.9,0.2L1364.8,1503z
	 M1380.9,1502.5c2.7-0.1,5.4-0.1,8-0.2l0-1c-2.6,0.1-5.2,0.1-8,0.2L1380.9,1502.5z M1396.9,1502.1c2.7-0.1,5.4-0.1,7.9-0.2l0-1
	c-2.6,0.1-5.2,0.1-7.9,0.2L1396.9,1502.1z M1413,1501.8c2.8-0.1,5.4-0.1,7.9-0.1l0-1c-2.5,0-5.2,0.1-7.9,0.1L1413,1501.8z
	 M1429,1501.5c2.9,0,5.6-0.1,8.1-0.1l0-1c-2.5,0-5.2,0.1-8.1,0.1L1429,1501.5z M1445.2,1501.4c3,0,5.7,0,8-0.1v-1c-2.4,0-5,0-8,0.1
	L1445.2,1501.4z M1461,1501.3c1.3,0,2.3,0,3,0c0.3,0,0.6,0,0.8,0c0.1,0,0.2,0,0.2,0c0,0,0,0,0,0s0,0,0,0h0l0,0l0,0c0,0,0,0,0-0.5
	s0-0.5,0-0.5l0,0l0,0l0,0h0c0,0,0,0-0.1,0c0,0-0.1,0-0.2,0c-0.2,0-0.4,0-0.8,0c-0.7,0-1.7,0-3,0V1501.3z M1465.5,1500.8v-4h-1v4
	H1465.5z M1465.5,1488.8v-8h-1v8H1465.5z M1465.5,1472.9v-8h-1v8H1465.5z M1465.5,1456.9v-8h-1v8H1465.5z M1465.5,1440.9v-8h-1v8
	H1465.5z M1465.5,1425v-8h-1v8H1465.5z M1465.5,1409v-8h-1v8H1465.5z M1465.5,1393v-8h-1v8H1465.5z M1465.5,1377.1v-8h-1v8H1465.5z
	 M1465.5,1361.1v-8h-1v8H1465.5z M1465.5,1345.1v-8h-1v8H1465.5z M1465.5,1329.2v-8h-1v8H1465.5z M1465.5,1313.2v-8h-1v8H1465.5z
	 M1465.5,1297.2v-8h-1v8H1465.5z M1465.5,1281.3v-8h-1v8H1465.5z M1465.5,1265.3v-8h-1v8H1465.5z M1465.5,1249.3v-8h-1v8H1465.5z
	 M1465.5,1233.4v-8h-1v8H1465.5z M1465.5,1217.4v-8h-1v8H1465.5z M1465.5,1201.4v-8h-1v8H1465.5z M1465.5,1185.5v-8h-1v8H1465.5z
	 M1465.5,1169.5v-8h-1v8H1465.5z M1465.5,1153.6v-8h-1v8H1465.5z M1465.5,1137.6v-8h-1v8H1465.5z M1465.5,1121.6v-8h-1v8H1465.5z
	 M1465.5,1105.7v-8h-1v8H1465.5z M1465.5,1089.7v-8h-1v8H1465.5z M1465.5,1073.7v-8h-1v8H1465.5z M1465.5,1057.8v-8h-1v8H1465.5z
	 M1465.5,1041.8v-8h-1v8H1465.5z M1465.5,1025.8v-8h-1v8H1465.5z M1465.5,1009.8v-8h-1v8H1465.5z M1465.5,993.9v-8h-1v8H1465.5z
	 M1465.5,977.9v-8h-1v8H1465.5z M1465.5,962v-8h-1v8H1465.5z M1465.5,946v-8h-1v8H1465.5z M1465.5,930v-8h-1v8H1465.5z
	 M1465.5,914.1v-8h-1v8H1465.5z M1465.5,898.1v-8h-1v8H1465.5z M1465.5,882.1v-8h-1v8H1465.5z M1465.5,866.2v-8h-1v8H1465.5z
	 M1465.5,850.2v-8h-1v8H1465.5z M1465.5,834.2v-8h-1v8H1465.5z M1465.5,818.3v-8h-1v8H1465.5z M1465.5,802.3v-8h-1v8H1465.5z
	 M1465.5,786.3v-8h-1v8H1465.5z M1465.5,770.4v-8h-1v8H1465.5z M1465.5,754.4v-8h-1v8H1465.5z M1465.5,738.4v-8h-1v8H1465.5z
	 M1465.5,722.5v-8h-1v8H1465.5z M1465.5,706.5v-8h-1v8H1465.5z M1465.5,690.5v-8h-1v8H1465.5z M1465.5,674.6v-8h-1v8H1465.5z
	 M1465.5,658.6v-8h-1v8H1465.5z M1465.5,642.6v-8h-1v8H1465.5z M1465.5,626.7v-8h-1v8H1465.5z M1465.5,610.7v-8h-1v8H1465.5z
	 M1465.5,594.7v-8h-1v8H1465.5z M1465.5,578.8v-8h-1v8H1465.5z M1465.5,562.8v-8h-1v8H1465.5z M1465.5,546.8v-8h-1v8H1465.5z
	 M1465.5,530.9v-8h-1v8H1465.5z M1465.5,514.9v-8h-1v8H1465.5z M1465.5,498.9v-8h-1v8H1465.5z M1465.5,483v-8h-1v8H1465.5z
	 M1465.5,467v-8h-1v8H1465.5z M1465.5,451v-8h-1v8H1465.5z M1465.5,435.1v-8h-1v8H1465.5z M1465.5,419.1v-8h-1v8H1465.5z
	 M1465.5,403.1v-8h-1v8H1465.5z M1465.5,387.2v-8h-1v8H1465.5z M1465.5,371.2v-8h-1v8H1465.5z M1465.5,355.2v-8h-1v8H1465.5z
	 M1465.5,339.3v-8h-1v8H1465.5z M1465.5,323.3v-8h-1v8H1465.5z M1465.5,307.3v-8h-1v8H1465.5z M1465.5,291.4v-8h-1v8H1465.5z
	 M1465.5,275.4v-8h-1v8H1465.5z M1465.5,259.4v-8h-1v8H1465.5z M1465.5,243.5v-8h-1v8H1465.5z M1465.5,227.5v-8h-1v8H1465.5z
	 M1465.5,211.6v-8h-1v8H1465.5z M1465.5,195.6v-8h-1v8H1465.5z M1465.5,179.6v-8h-1v8H1465.5z M1465.5,163.7v-8h-1v8H1465.5z
	 M1465.5,147.7v-8h-1v8H1465.5z M1465.5,131.7v-8h-1v8H1465.5z M1465.5,115.8v-8h-1v8H1465.5z M1465.5,99.8v-8h-1v8H1465.5z
	 M1465.5,83.8v-8h-1v8H1465.5z M1465.5,67.9v-8h-1v8H1465.5z M1465.5,51.9v-8h-1v8H1465.5z M1465.5,35.9v-8h-1v8H1465.5z M1465.5,20
	v-8h-1v8H1465.5z M1465.5,4V0h-1v4H1465.5z M1464.8-0.4c-1.2,0.6-2.4,1.2-3.6,1.8l0.5,0.9c1.2-0.6,2.4-1.2,3.6-1.8L1464.8-0.4z
	 M1454,5c-2.4,1.2-4.8,2.3-7.1,3.4l0.4,0.9c2.4-1.1,4.8-2.2,7.2-3.4L1454,5z M1439.6,11.7c-2.4,1.1-4.8,2.1-7.3,3.2l0.4,0.9
	c2.4-1,4.9-2.1,7.3-3.2L1439.6,11.7z M1425,17.9c-2.5,1-4.9,2-7.4,2.9l0.4,0.9c2.5-0.9,4.9-1.9,7.4-2.9L1425,17.9z M1410.1,23.6
	c-2.5,0.9-5,1.8-7.5,2.7l0.3,0.9c2.5-0.9,5-1.7,7.5-2.7L1410.1,23.6z M1395.1,28.8c-2.5,0.8-5.1,1.6-7.6,2.4l0.3,1
	c2.6-0.8,5.1-1.6,7.7-2.4L1395.1,28.8z M1379.8,33.3c-2.6,0.7-5.1,1.4-7.7,2.1l0.2,1c2.6-0.7,5.2-1.4,7.7-2.1L1379.8,33.3z
	 M1364.4,37.4c-2.6,0.6-5.2,1.2-7.8,1.8l0.2,1c2.6-0.6,5.2-1.2,7.8-1.8L1364.4,37.4z M1348.8,40.8c-2.6,0.5-5.2,1-7.8,1.5l0.2,1
	c2.6-0.5,5.2-1,7.8-1.5L1348.8,40.8z M1333.2,43.7c-2.6,0.4-5.2,0.8-7.9,1.2l0.1,1c2.6-0.4,5.2-0.8,7.9-1.2L1333.2,43.7z M1317.4,46
	c-2.6,0.3-5.3,0.7-7.9,1l0.1,1c2.6-0.3,5.3-0.6,7.9-1L1317.4,46z M1301.6,47.8c-2.6,0.3-5.3,0.5-7.9,0.7l0.1,1
	c2.7-0.2,5.3-0.5,7.9-0.7L1301.6,47.8z M1285.7,49.1c-2.7,0.2-5.3,0.3-7.9,0.5l0,1c2.7-0.1,5.3-0.3,8-0.5L1285.7,49.1z M1269.8,49.9
	c-2.7,0.1-5.3,0.2-8,0.2l0,1c2.7-0.1,5.3-0.1,8-0.2L1269.8,49.9z M1253.9,50.3c-2.7,0-5.3,0-8,0v1c2.7,0,5.3,0,8,0L1253.9,50.3z
	 M1238,50.3c-2.7,0-5.3-0.1-8-0.1l0,1c2.7,0.1,5.3,0.1,8,0.1L1238,50.3z M1222.1,49.9c-2.7-0.1-5.3-0.2-8-0.3l0,1
	c2.7,0.1,5.3,0.2,8,0.3L1222.1,49.9z M1206.1,49.3c-2.7-0.1-5.3-0.3-8-0.4l-0.1,1c2.7,0.2,5.3,0.3,8,0.4L1206.1,49.3z M1190.2,48.3
	c-2.6-0.2-5.3-0.4-7.9-0.6l-0.1,1c2.7,0.2,5.3,0.4,7.9,0.6L1190.2,48.3z M1174.3,47.1c-2.6-0.2-5.3-0.4-7.9-0.7l-0.1,1
	c2.7,0.2,5.3,0.4,7.9,0.7L1174.3,47.1z M1158.5,45.8c-2.6-0.2-5.3-0.5-7.9-0.7l-0.1,1c2.7,0.3,5.3,0.5,7.9,0.7L1158.5,45.8z
	 M1142.6,44.3c-2.6-0.3-5.3-0.5-7.9-0.8l-0.1,1c2.7,0.3,5.3,0.5,7.9,0.8L1142.6,44.3z M1126.8,42.6c-2.6-0.3-5.3-0.6-7.9-0.8l-0.1,1
	c2.7,0.3,5.3,0.6,7.9,0.8L1126.8,42.6z M1110.9,40.9c-2.6-0.3-5.3-0.6-8-0.9l-0.1,1c2.7,0.3,5.3,0.6,8,0.9L1110.9,40.9z
	 M1095.1,39.2c-2.6-0.3-5.3-0.6-7.9-0.9l-0.1,1c2.7,0.3,5.3,0.6,7.9,0.9L1095.1,39.2z M1079.2,37.4c-2.6-0.3-5.3-0.6-7.9-0.9l-0.1,1
	c2.6,0.3,5.3,0.6,7.9,0.9L1079.2,37.4z M1063.3,35.7c-2.6-0.3-5.3-0.6-7.9-0.9l-0.1,1c2.7,0.3,5.3,0.6,7.9,0.9L1063.3,35.7z
	 M1047.5,33.9c-2.6-0.3-5.3-0.6-7.9-0.8l-0.1,1c2.6,0.3,5.3,0.5,7.9,0.8L1047.5,33.9z M1031.6,32.3c-2.6-0.3-5.3-0.5-7.9-0.8l-0.1,1
	c2.7,0.3,5.3,0.5,7.9,0.8L1031.6,32.3z M1015.8,30.8c-2.7-0.2-5.3-0.5-8-0.7l-0.1,1c2.7,0.2,5.3,0.5,8,0.7L1015.8,30.8z M999.9,29.3
	c-2.6-0.2-5.3-0.5-8-0.7l-0.1,1c2.7,0.2,5.3,0.4,8,0.7L999.9,29.3z M984,28c-2.6-0.2-5.3-0.4-7.9-0.6l-0.1,1
	c2.7,0.2,5.3,0.4,7.9,0.6L984,28z M968.1,26.9c-2.6-0.2-5.3-0.3-7.9-0.5l-0.1,1c2.6,0.2,5.3,0.3,7.9,0.5L968.1,26.9z M952.2,25.9
	c-2.6-0.1-5.3-0.3-8-0.4l0,1c2.7,0.1,5.3,0.3,8,0.4L952.2,25.9z M936.3,25.1c-2.7-0.1-5.3-0.2-8-0.3l0,1c2.7,0.1,5.3,0.2,8,0.3
	L936.3,25.1z M920.3,24.5c-2.6-0.1-5.3-0.2-8-0.2l0,1c2.7,0.1,5.3,0.1,8,0.2L920.3,24.5z M904.3,24.1c-2.6,0-5.3-0.1-7.9-0.1l0,1
	c2.7,0,5.3,0.1,7.9,0.1L904.3,24.1z M888.4,23.9c-1.3,0-2.7,0-4,0v1c1.3,0,2.7,0,4,0L888.4,23.9z M884.4,23.9c-1.3,0-2.6,0-4,0l0,1
	c1.3,0,2.6,0,3.9,0V23.9z M872.3,24.1c-2.6,0.1-5.3,0.2-8,0.3l0,1c2.7-0.1,5.4-0.2,8-0.3L872.3,24.1z M856.2,24.8
	c-2.7,0.2-5.4,0.3-8.2,0.5l0.1,1c2.8-0.2,5.5-0.4,8.1-0.5L856.2,24.8z M840,25.9c-2.7,0.2-5.4,0.4-8.1,0.7l0.1,1
	c2.7-0.2,5.4-0.5,8.1-0.7L840,25.9z M823.9,27.3c-2.7,0.3-5.3,0.5-8.1,0.8l0.1,1c2.7-0.3,5.4-0.5,8.1-0.8L823.9,27.3z M807.8,29
	c-2.7,0.3-5.3,0.6-8,0.9l0.1,1c2.7-0.3,5.4-0.6,8-0.9L807.8,29z M791.7,30.8c-2.7,0.3-5.3,0.6-8,1l0.1,1c2.7-0.3,5.4-0.7,8-1
	L791.7,30.8z M775.6,32.8c-2.7,0.3-5.3,0.7-8,1.1l0.1,1c2.7-0.4,5.4-0.7,8-1.1L775.6,32.8z M759.6,35c-2.7,0.4-5.3,0.7-8,1.1l0.1,1
	c2.7-0.4,5.3-0.8,8-1.1L759.6,35z M743.6,37.3c-2.7,0.4-5.3,0.8-8,1.2l0.1,1c2.7-0.4,5.3-0.8,8-1.2L743.6,37.3z M727.6,39.7
	c-2.7,0.4-5.3,0.8-8,1.2l0.2,1c2.7-0.4,5.3-0.8,8-1.2L727.6,39.7z M711.6,42.2c-2.7,0.4-5.3,0.9-8,1.3l0.2,1c2.7-0.4,5.3-0.9,8-1.3
	L711.6,42.2z M695.6,44.8c-2.7,0.4-5.3,0.9-8,1.3l0.2,1c2.7-0.5,5.3-0.9,8-1.3L695.6,44.8z M679.7,47.5c-2.7,0.5-5.3,0.9-8,1.4
	l0.2,1c2.7-0.5,5.3-0.9,8-1.4L679.7,47.5z M663.7,50.3c-2.7,0.5-5.3,0.9-8,1.4l0.2,1c2.7-0.5,5.3-0.9,8-1.4L663.7,50.3z M647.8,53.1
	c-2.7,0.5-5.3,1-8,1.5l0.2,1c2.6-0.5,5.3-1,8-1.5L647.8,53.1z M631.9,56c-2.7,0.5-5.3,1-8,1.5l0.2,1c2.6-0.5,5.3-1,8-1.5L631.9,56z
	 M616,59c-2.7,0.5-5.3,1-8,1.5l0.2,1c2.6-0.5,5.3-1,8-1.5L616,59z M600.1,62.1c-2.7,0.5-5.3,1-8,1.6l0.2,1c2.6-0.5,5.3-1,8-1.6
	L600.1,62.1z M584.2,65.2c-2.7,0.5-5.3,1.1-8,1.6l0.2,1c2.6-0.5,5.3-1.1,8-1.6L584.2,65.2z M568.3,68.4c-2.7,0.5-5.3,1.1-8,1.6
	l0.2,1c2.6-0.5,5.3-1.1,8-1.6L568.3,68.4z M552.5,71.6c-2.7,0.6-5.3,1.1-7.9,1.7l0.2,1c2.6-0.5,5.3-1.1,7.9-1.7L552.5,71.6z
	 M536.7,74.9c-2.7,0.6-5.3,1.1-7.9,1.7l0.2,1c2.6-0.6,5.3-1.1,7.9-1.7L536.7,74.9z M520.8,78.3c-2.7,0.6-5.3,1.1-7.9,1.7l0.2,1
	c2.6-0.6,5.3-1.1,7.9-1.7L520.8,78.3z M505,81.8c-2.7,0.6-5.3,1.2-7.9,1.8l0.2,1c2.6-0.6,5.3-1.2,7.9-1.8L505,81.8z M489.3,85.3
	c-2.7,0.6-5.3,1.2-8,1.8l0.2,1c2.6-0.6,5.3-1.2,8-1.8L489.3,85.3z M473.5,88.8c-2.7,0.6-5.3,1.2-7.9,1.8l0.2,1
	c2.6-0.6,5.2-1.2,7.9-1.8L473.5,88.8z M457.7,92.5c-2.7,0.6-5.3,1.2-7.8,1.9l0.2,1c2.6-0.6,5.2-1.2,7.8-1.9L457.7,92.5z M441.9,96.3
	c-2.7,0.7-5.3,1.3-7.8,1.9l0.2,1c2.5-0.6,5.2-1.3,7.8-1.9L441.9,96.3z M426.3,100.2c-2.7,0.7-5.4,1.4-7.9,2l0.3,1
	c2.5-0.7,5.2-1.3,7.9-2L426.3,100.2z M410.5,104.3c-1.3,0.3-2.6,0.7-3.8,1l0.3,1c1.2-0.3,2.5-0.7,3.8-1L410.5,104.3z M406.7,105.3
	c-1.2,0.3-2.5,0.7-3.8,1l0.2,1c1.3-0.3,2.6-0.7,3.8-1L406.7,105.3z M395,108.1c-2.6,0.6-5.2,1.1-8.1,1.6l0.2,1
	c2.8-0.5,5.5-1.1,8.1-1.6L395,108.1z M379.1,111.2c-2.6,0.5-5.3,0.9-8,1.3l0.2,1c2.8-0.4,5.4-0.9,8-1.3L379.1,111.2z M363,113.8
	c-2.6,0.4-5.2,0.8-7.9,1.1l0.1,1c2.7-0.4,5.4-0.8,8-1.1L363,113.8z M347,116c-2.6,0.3-5.3,0.7-8,1l0.1,1c2.7-0.3,5.4-0.7,8-1
	L347,116z M330.9,118c-2.6,0.3-5.3,0.6-8,0.9l0.1,1c2.7-0.3,5.4-0.6,8-0.9L330.9,118z M314.7,119.7c-2.7,0.3-5.3,0.6-8,0.8l0.1,1
	c2.7-0.3,5.4-0.5,8-0.8L314.7,119.7z M298.6,121.4c-2.7,0.3-5.3,0.5-8,0.8l0.1,1c2.7-0.2,5.4-0.5,8-0.8L298.6,121.4z M282.4,122.8
	c-2.7,0.2-5.3,0.5-8,0.7l0.1,1c2.7-0.2,5.4-0.5,8-0.7L282.4,122.8z M266.2,124.2c-2.7,0.2-5.4,0.4-8.1,0.7l0.1,1
	c2.7-0.2,5.4-0.4,8.1-0.7L266.2,124.2z M250.1,125.5c-2.7,0.2-5.4,0.4-8.1,0.6l0.1,1c2.7-0.2,5.4-0.4,8.1-0.6L250.1,125.5z
	 M233.9,126.7c-2.7,0.2-5.4,0.4-8.1,0.6l0.1,1c2.7-0.2,5.4-0.4,8.1-0.6L233.9,126.7z M217.7,127.9c-2.7,0.2-5.4,0.4-8.1,0.5l0.1,1
	c2.7-0.2,5.4-0.4,8.1-0.5L217.7,127.9z M201.5,128.9c-2.7,0.2-5.4,0.3-8.1,0.5l0.1,1c2.7-0.2,5.4-0.3,8.1-0.5L201.5,128.9z
	 M185.3,130c-2.7,0.2-5.4,0.3-8.1,0.5l0.1,1c2.7-0.2,5.4-0.3,8.1-0.5L185.3,130z M169.1,130.9c-2.7,0.2-5.4,0.3-8.1,0.5l0.1,1
	c2.7-0.2,5.4-0.3,8.1-0.5L169.1,130.9z M152.9,131.8c-2.7,0.2-5.4,0.3-8.1,0.4l0.1,1c2.7-0.1,5.4-0.3,8.1-0.4L152.9,131.8z
	 M136.7,132.7c-2.7,0.1-5.5,0.3-8.2,0.4l0.1,1c2.7-0.1,5.4-0.3,8.2-0.4L136.7,132.7z M120.4,133.5c-2.7,0.1-5.4,0.3-8.1,0.4l0,1
	c2.7-0.1,5.4-0.3,8.1-0.4L120.4,133.5z M104.2,134.3c-2.7,0.1-5.4,0.3-8.1,0.4l0,1c2.7-0.1,5.4-0.2,8.1-0.4L104.2,134.3z M88,135.1
	c-2.7,0.1-5.4,0.2-8.1,0.4l0,1c2.7-0.1,5.4-0.2,8.1-0.4L88,135.1z M71.8,135.8c-2.8,0.1-5.5,0.2-8.1,0.3l0,1
	c2.7-0.1,5.4-0.2,8.1-0.3L71.8,135.8z M55.6,136.4c-2.8,0.1-5.5,0.2-8.2,0.3l0,1c2.7-0.1,5.4-0.2,8.2-0.3L55.6,136.4z M39.4,137.1
	c-2.8,0.1-5.6,0.2-8.2,0.3l0,1c2.7-0.1,5.4-0.2,8.2-0.3L39.4,137.1z M23.1,137.7c-2.8,0.1-5.5,0.2-8.1,0.3l0,1
	c2.6-0.1,5.3-0.2,8.1-0.3L23.1,137.7z M6.8,138.3c-2.9,0.1-5.6,0.2-8.1,0.3l0,1c2.6-0.1,5.3-0.2,8.1-0.3L6.8,138.3z M-9.4,138.8
	c-3,0.1-5.8,0.2-8.1,0.3l0,1c2.4-0.1,5.1-0.2,8.1-0.3L-9.4,138.8z M-25.5,139.3c-1.3,0-2.3,0.1-3,0.1c-0.3,0-0.6,0-0.8,0
	c-0.1,0-0.2,0-0.2,0c0,0,0,0,0,0c0,0,0,0,0,0c0,0,0,0,0,0c0,0,0,0,0,0c0,0,0,0,0,0l0,0c0,0,0,0,0,0.5c0,0.5,0,0.5,0,0.5l0,0
	c0,0,0,0,0,0c0,0,0,0,0,0c0,0,0,0,0,0c0,0,0,0,0,0c0,0,0,0,0,0c0,0,0.1,0,0.2,0c0.2,0,0.4,0,0.8,0c0.7,0,1.7,0,3-0.1L-25.5,139.3z
	 M406.9,105.8l-0.3-1l0,0L406.9,105.8z M1465,0h1v-1.6l-1.5,0.8L1465,0z M1465,1500.8l0,1l1,0v-1H1465z M826.4,1559.6l0.2,1
	L826.4,1559.6z M-31.4,1640.8c1.1-0.7,2.2-1.5,3.4-2.2l-1.1-1.7c-1.1,0.7-2.3,1.5-3.4,2.2L-31.4,1640.8z M-21.3,1634.3
	c2.3-1.4,4.5-2.8,6.8-4.2l-1-1.7c-2.3,1.4-4.5,2.8-6.8,4.2L-21.3,1634.3z M-7.8,1626.1c2.3-1.3,4.6-2.7,6.9-4l-1-1.8
	c-2.3,1.3-4.6,2.6-7,4L-7.8,1626.1z M6.1,1618.3c2.3-1.3,4.7-2.5,7-3.7l-0.9-1.8c-2.3,1.2-4.7,2.5-7,3.7L6.1,1618.3z M20.2,1611
	c2.4-1.2,4.8-2.4,7.2-3.5l-0.9-1.8c-2.4,1.2-4.8,2.3-7.2,3.5L20.2,1611z M34.6,1604.2c2.4-1.1,4.8-2.2,7.2-3.2l-0.8-1.8
	c-2.4,1.1-4.8,2.1-7.2,3.2L34.6,1604.2z M49.1,1597.8c2.5-1,4.9-2,7.4-3l-0.7-1.9c-2.5,1-4.9,2-7.4,3L49.1,1597.8z M63.9,1591.9
	c2.5-0.9,5-1.9,7.4-2.8l-0.7-1.9c-2.5,0.9-5,1.8-7.5,2.8L63.9,1591.9z M78.8,1586.5c2.5-0.9,5-1.7,7.5-2.5l-0.6-1.9
	c-2.5,0.8-5,1.7-7.6,2.5L78.8,1586.5z M93.9,1581.5c2.5-0.8,5.1-1.6,7.6-2.3l-0.6-1.9c-2.6,0.8-5.1,1.5-7.7,2.3L93.9,1581.5z
	 M109.2,1577.1c2.6-0.7,5.1-1.4,7.7-2.1l-0.5-1.9c-2.6,0.7-5.1,1.4-7.7,2.1L109.2,1577.1z M124.6,1573.1c2.6-0.6,5.2-1.2,7.7-1.8
	l-0.4-1.9c-2.6,0.6-5.2,1.2-7.8,1.8L124.6,1573.1z M140.1,1569.5c2.6-0.6,5.2-1.1,7.8-1.6l-0.4-2c-2.6,0.5-5.2,1.1-7.8,1.6
	L140.1,1569.5z M155.7,1566.4c2.6-0.5,5.2-0.9,7.8-1.4l-0.3-2c-2.6,0.4-5.2,0.9-7.9,1.4L155.7,1566.4z M171.4,1563.7
	c2.6-0.4,5.2-0.8,7.9-1.2l-0.3-2c-2.6,0.4-5.3,0.8-7.9,1.2L171.4,1563.7z M187.1,1561.4c2.6-0.3,5.3-0.7,7.9-1l-0.2-2
	c-2.6,0.3-5.3,0.7-7.9,1L187.1,1561.4z M202.9,1559.5c2.6-0.3,5.3-0.6,7.9-0.8l-0.2-2c-2.6,0.3-5.3,0.5-7.9,0.8L202.9,1559.5z
	 M218.7,1557.9c2.6-0.2,5.3-0.4,7.9-0.6l-0.2-2c-2.7,0.2-5.3,0.4-8,0.6L218.7,1557.9z M234.6,1556.7c2.6-0.2,5.3-0.3,7.9-0.5l-0.1-2
	c-2.7,0.1-5.3,0.3-8,0.5L234.6,1556.7z M250.5,1555.9c2.6-0.1,5.3-0.2,7.9-0.3l-0.1-2c-2.7,0.1-5.3,0.2-8,0.3L250.5,1555.9z
	 M266.4,1555.3c2.7-0.1,5.3-0.1,8-0.2l0-2c-2.7,0.1-5.3,0.1-8,0.2L266.4,1555.3z M282.3,1555c2.6,0,5.3,0,8-0.1l0-2
	c-2.7,0-5.3,0-8,0.1L282.3,1555z M298.2,1554.9c2.7,0,5.3,0,8,0.1l0-2c-2.7,0-5.3,0-8-0.1L298.2,1554.9z M314.2,1555.1
	c2.7,0.1,5.3,0.1,8,0.2l0-2c-2.7-0.1-5.3-0.1-8-0.2L314.2,1555.1z M330.1,1555.5c2.6,0.1,5.3,0.2,8,0.3l0.1-2
	c-2.7-0.1-5.3-0.2-8-0.3L330.1,1555.5z M346,1556.1c2.7,0.1,5.3,0.2,8,0.3l0.1-2c-2.7-0.1-5.3-0.2-8-0.3L346,1556.1z M361.9,1556.8
	c2.6,0.1,5.3,0.3,7.9,0.4l0.1-2c-2.7-0.1-5.3-0.3-8-0.4L361.9,1556.8z M377.8,1557.7c2.7,0.2,5.3,0.3,8,0.5l0.1-2
	c-2.7-0.2-5.3-0.3-8-0.5L377.8,1557.7z M393.7,1558.7c2.6,0.2,5.3,0.3,7.9,0.5l0.1-2c-2.6-0.2-5.3-0.4-7.9-0.5L393.7,1558.7z
	 M409.6,1559.8c2.6,0.2,5.3,0.4,7.9,0.6l0.1-2c-2.7-0.2-5.3-0.4-8-0.6L409.6,1559.8z M425.5,1561c2.6,0.2,5.3,0.4,7.9,0.6l0.2-2
	c-2.6-0.2-5.3-0.4-7.9-0.6L425.5,1561z M441.4,1562.2c2.6,0.2,5.3,0.4,7.9,0.6l0.2-2c-2.6-0.2-5.3-0.4-7.9-0.7L441.4,1562.2z
	 M457.3,1563.5c2.6,0.2,5.3,0.4,7.9,0.7l0.2-2c-2.6-0.2-5.3-0.4-7.9-0.7L457.3,1563.5z M473.1,1564.8c2.6,0.2,5.3,0.4,7.9,0.7l0.2-2
	c-2.6-0.2-5.3-0.4-7.9-0.7L473.1,1564.8z M489,1566.2c2.6,0.2,5.3,0.4,7.9,0.7l0.2-2c-2.6-0.2-5.3-0.4-7.9-0.7L489,1566.2z
	 M504.9,1567.5c2.6,0.2,5.3,0.4,7.9,0.7l0.2-2c-2.6-0.2-5.3-0.4-7.9-0.6L504.9,1567.5z M520.8,1568.8c2.6,0.2,5.3,0.4,7.9,0.6l0.2-2
	c-2.6-0.2-5.3-0.4-7.9-0.6L520.8,1568.8z M536.7,1570c2.6,0.2,5.3,0.4,7.9,0.6l0.1-2c-2.6-0.2-5.3-0.4-7.9-0.6L536.7,1570z
	 M552.6,1571.2c2.7,0.2,5.3,0.4,8,0.5l0.1-2c-2.7-0.2-5.3-0.4-7.9-0.5L552.6,1571.2z M568.5,1572.2c2.7,0.2,5.3,0.3,8,0.5l0.1-2
	c-2.6-0.2-5.3-0.3-7.9-0.5L568.5,1572.2z M584.4,1573.2c2.7,0.2,5.3,0.3,8,0.4l0.1-2c-2.7-0.1-5.3-0.3-8-0.4L584.4,1573.2z
	 M600.3,1574c2.7,0.1,5.3,0.2,8,0.4l0.1-2c-2.7-0.1-5.3-0.2-8-0.4L600.3,1574z M616.2,1574.7c2.7,0.1,5.3,0.2,8,0.3l0.1-2
	c-2.7-0.1-5.3-0.2-8-0.3L616.2,1574.7z M632.2,1575.2c2.7,0.1,5.3,0.1,8,0.2l0-2c-2.7-0.1-5.3-0.1-8-0.2L632.2,1575.2z
	 M648.1,1575.6c2.7,0,5.3,0.1,8,0.1l0-2c-2.7,0-5.3-0.1-8-0.1L648.1,1575.6z M664.1,1575.7c2.7,0,5.3,0,8,0l0-2c-2.7,0-5.3,0-8,0
	L664.1,1575.7z M680,1575.6c2.7,0,5.3-0.1,8-0.1l0-2c-2.7,0.1-5.3,0.1-8,0.1L680,1575.6z M696,1575.3c2.7-0.1,5.3-0.2,8-0.3l-0.1-2
	c-2.7,0.1-5.3,0.2-8,0.3L696,1575.3z M711.9,1574.7c2.7-0.1,5.3-0.3,8-0.4l-0.1-2c-2.6,0.2-5.3,0.3-7.9,0.4L711.9,1574.7z
	 M727.8,1573.8c2.7-0.2,5.3-0.4,8-0.6l-0.2-2c-2.6,0.2-5.3,0.4-7.9,0.6L727.8,1573.8z M743.8,1572.6c2.6-0.2,5.3-0.5,7.9-0.7l-0.2-2
	c-2.6,0.2-5.3,0.5-7.9,0.7L743.8,1572.6z M759.6,1571.1c2.6-0.3,5.3-0.6,7.9-0.9l-0.2-2c-2.6,0.3-5.3,0.6-7.9,0.9L759.6,1571.1z
	 M775.5,1569.2c2.6-0.3,5.3-0.7,7.9-1.1l-0.3-2c-2.6,0.4-5.3,0.7-7.9,1.1L775.5,1569.2z M791.3,1567c2.6-0.4,5.3-0.8,7.9-1.2l-0.3-2
	c-2.6,0.4-5.2,0.8-7.9,1.2L791.3,1567z M807,1564.4c2.6-0.5,5.2-1,7.8-1.5l-0.4-2c-2.6,0.5-5.2,1-7.8,1.4L807,1564.4z M822.7,1561.4
	c1.3-0.3,2.6-0.5,3.9-0.8l-0.4-2c-1.3,0.3-2.6,0.5-3.9,0.8L822.7,1561.4z M826.6,1560.6c1.3-0.3,2.6-0.5,3.9-0.8l-0.4-2
	c-1.3,0.3-2.6,0.6-3.9,0.8L826.6,1560.6z M838.4,1558.2c2.6-0.5,5.2-1.1,7.9-1.6l-0.4-2c-2.6,0.5-5.3,1.1-7.9,1.6L838.4,1558.2z
	 M854.2,1555c2.6-0.5,5.2-1,7.9-1.5l-0.4-2c-2.6,0.5-5.2,1-7.9,1.5L854.2,1555z M869.9,1552c2.6-0.5,5.3-1,7.9-1.5l-0.4-2
	c-2.6,0.5-5.3,1-7.9,1.5L869.9,1552z M885.7,1549.1c2.6-0.5,5.3-0.9,7.9-1.4l-0.3-2c-2.6,0.5-5.3,0.9-7.9,1.4L885.7,1549.1z
	 M901.5,1546.4c2.6-0.4,5.3-0.9,7.9-1.3l-0.3-2c-2.6,0.4-5.3,0.9-7.9,1.3L901.5,1546.4z M917.3,1543.7c2.6-0.4,5.3-0.9,7.9-1.3
	l-0.3-2c-2.6,0.4-5.3,0.8-7.9,1.3L917.3,1543.7z M933.2,1541.2c2.6-0.4,5.3-0.8,7.9-1.2l-0.3-2c-2.6,0.4-5.3,0.8-7.9,1.2
	L933.2,1541.2z M949.1,1538.8c2.6-0.4,5.3-0.8,7.9-1.2l-0.3-2c-2.6,0.4-5.3,0.8-7.9,1.2L949.1,1538.8z M964.9,1536.4
	c2.7-0.4,5.3-0.8,8-1.1l-0.3-2c-2.7,0.4-5.3,0.8-8,1.1L964.9,1536.4z M980.8,1534.2c2.7-0.4,5.3-0.7,7.9-1.1l-0.3-2
	c-2.6,0.3-5.3,0.7-8,1.1L980.8,1534.2z M996.8,1532.1c2.7-0.4,5.3-0.7,8-1l-0.2-2c-2.7,0.3-5.3,0.7-8,1L996.8,1532.1z M1012.7,1530
	c2.7-0.3,5.3-0.7,8-1l-0.2-2c-2.6,0.3-5.3,0.7-8,1L1012.7,1530z M1028.6,1528.1c2.7-0.3,5.3-0.6,8-1l-0.2-2c-2.7,0.3-5.3,0.6-8,1
	L1028.6,1528.1z M1044.6,1526.2c2.7-0.3,5.3-0.6,8-0.9l-0.2-2c-2.7,0.3-5.3,0.6-8,0.9L1044.6,1526.2z M1060.5,1524.4
	c2.7-0.3,5.3-0.6,8-0.9l-0.2-2c-2.7,0.3-5.3,0.6-8,0.9L1060.5,1524.4z M1076.4,1522.7c2.7-0.3,5.4-0.6,8-0.8l-0.2-2
	c-2.7,0.3-5.3,0.6-8,0.8L1076.4,1522.7z M1092.5,1521c2.7-0.3,5.3-0.5,8-0.8l-0.2-2c-2.7,0.3-5.3,0.5-8,0.8L1092.5,1521z
	 M1108.4,1519.4c2.7-0.3,5.3-0.5,8-0.8l-0.2-2c-2.7,0.2-5.3,0.5-8,0.8L1108.4,1519.4z M1124.4,1518c2.7-0.2,5.3-0.5,8-0.7l-0.2-2
	c-2.7,0.2-5.3,0.5-8,0.7L1124.4,1518z M1140.4,1516.5c2.7-0.2,5.3-0.5,8-0.7l-0.2-2c-2.7,0.2-5.3,0.5-8,0.7L1140.4,1516.5z
	 M1156.4,1515.2c2.7-0.2,5.4-0.4,8.1-0.6l-0.2-2c-2.7,0.2-5.4,0.4-8.1,0.7L1156.4,1515.2z M1172.4,1513.9c2.7-0.2,5.3-0.4,7.9-0.6
	l-0.2-2c-2.6,0.2-5.3,0.4-7.9,0.6L1172.4,1513.9z M1188.4,1512.7c2.7-0.2,5.4-0.4,8-0.6l-0.1-2c-2.7,0.2-5.3,0.4-8,0.6
	L1188.4,1512.7z M1204.4,1511.5c2.7-0.2,5.4-0.4,8-0.6l-0.1-2c-2.7,0.2-5.4,0.4-8.1,0.6L1204.4,1511.5z M1220.5,1510.4
	c2.7-0.2,5.3-0.3,8-0.5l-0.1-2c-2.6,0.2-5.3,0.3-8,0.5L1220.5,1510.4z M1236.5,1509.4c2.7-0.2,5.4-0.3,8-0.5l-0.1-2
	c-2.7,0.2-5.3,0.3-8,0.5L1236.5,1509.4z M1252.5,1508.5c2.7-0.2,5.4-0.3,8.1-0.5l-0.1-2c-2.7,0.2-5.4,0.3-8.1,0.5L1252.5,1508.5z
	 M1268.6,1507.6c2.7-0.1,5.3-0.3,7.9-0.4l-0.1-2c-2.6,0.1-5.3,0.3-7.9,0.4L1268.6,1507.6z M1284.6,1506.8c2.7-0.1,5.4-0.3,8-0.4
	l-0.1-2c-2.7,0.1-5.3,0.3-8,0.4L1284.6,1506.8z M1300.6,1506c2.7-0.1,5.4-0.2,8.1-0.4l-0.1-2c-2.7,0.1-5.4,0.2-8.1,0.4L1300.6,1506z
	 M1316.6,1505.3c2.7-0.1,5.4-0.2,8.1-0.3l-0.1-2c-2.7,0.1-5.3,0.2-8.1,0.3L1316.6,1505.3z M1332.7,1504.6c2.7-0.1,5.3-0.2,7.9-0.3
	l-0.1-2c-2.6,0.1-5.3,0.2-7.9,0.3L1332.7,1504.6z M1348.8,1504c2.7-0.1,5.3-0.2,7.9-0.3l-0.1-2c-2.6,0.1-5.2,0.2-7.9,0.3
	L1348.8,1504z M1364.8,1503.5c2.7-0.1,5.3-0.2,8-0.2l-0.1-2c-2.6,0.1-5.3,0.2-8,0.2L1364.8,1503.5z M1380.9,1503
	c2.7-0.1,5.4-0.1,8-0.2l0-2c-2.6,0.1-5.2,0.1-8,0.2L1380.9,1503z M1396.9,1502.6c2.7-0.1,5.4-0.1,7.9-0.2l0-2
	c-2.6,0.1-5.2,0.1-7.9,0.2L1396.9,1502.6z M1413,1502.3c2.7-0.1,5.4-0.1,7.9-0.1l0-2c-2.6,0-5.2,0.1-7.9,0.1L1413,1502.3z
	 M1429,1502c2.9,0,5.6-0.1,8.1-0.1l0-2c-2.5,0-5.3,0.1-8.1,0.1L1429,1502z M1445.2,1501.9c3,0,5.7,0,8-0.1v-2c-2.4,0-5,0-8.1,0.1
	L1445.2,1501.9z M1461,1501.8c1.3,0,2.3,0,3,0c0.3,0,0.6,0,0.8,0c0.1,0,0.2,0,0.2,0c0,0,0,0,0,0h0l0,0l0,0l0,0c0,0,0,0,0-1s0-1,0-1
	l0,0l0,0c0,0,0,0,0,0l0,0h0c0,0,0,0-0.1,0c0,0-0.1,0-0.2,0c-0.2,0-0.4,0-0.8,0c-0.7,0-1.7,0-3,0V1501.8z M1466,1500.8v-4h-2v4H1466z
	 M1466,1488.8v-8h-2v8H1466z M1466,1472.9v-8h-2v8H1466z M1466,1456.9v-8h-2v8H1466z M1466,1440.9v-8h-2v8H1466z M1466,1425v-8h-2v8
	H1466z M1466,1409v-8h-2v8H1466z M1466,1393v-8h-2v8H1466z M1466,1377.1v-8h-2v8H1466z M1466,1361.1v-8h-2v8H1466z M1466,1345.1v-8
	h-2v8H1466z M1466,1329.2v-8h-2v8H1466z M1466,1313.2v-8h-2v8H1466z M1466,1297.2v-8h-2v8H1466z M1466,1281.3v-8h-2v8H1466z
	 M1466,1265.3v-8h-2v8H1466z M1466,1249.3v-8h-2v8H1466z M1466,1233.4v-8h-2v8H1466z M1466,1217.4v-8h-2v8H1466z M1466,1201.4v-8h-2
	v8H1466z M1466,1185.5v-8h-2v8H1466z M1466,1169.5v-8h-2v8H1466z M1466,1153.6v-8h-2v8H1466z M1466,1137.6v-8h-2v8H1466z
	 M1466,1121.6v-8h-2v8H1466z M1466,1105.7v-8h-2v8H1466z M1466,1089.7v-8h-2v8H1466z M1466,1073.7v-8h-2v8H1466z M1466,1057.8v-8h-2
	v8H1466z M1466,1041.8v-8h-2v8H1466z M1466,1025.8v-8h-2v8H1466z M1466,1009.8v-8h-2v8H1466z M1466,993.9v-8h-2v8H1466z M1466,977.9
	v-8h-2v8H1466z M1466,962v-8h-2v8H1466z M1466,946v-8h-2v8H1466z M1466,930v-8h-2v8H1466z M1466,914.1v-8h-2v8H1466z M1466,898.1v-8
	h-2v8H1466z M1466,882.1v-8h-2v8H1466z M1466,866.2v-8h-2v8H1466z M1466,850.2v-8h-2v8H1466z M1466,834.2v-8h-2v8H1466z M1466,818.3
	v-8h-2v8H1466z M1466,802.3v-8h-2v8H1466z M1466,786.3v-8h-2v8H1466z M1466,770.4v-8h-2v8H1466z M1466,754.4v-8h-2v8H1466z
	 M1466,738.4v-8h-2v8H1466z M1466,722.5v-8h-2v8H1466z M1466,706.5v-8h-2v8H1466z M1466,690.5v-8h-2v8H1466z M1466,674.6v-8h-2v8
	H1466z M1466,658.6v-8h-2v8H1466z M1466,642.6v-8h-2v8H1466z M1466,626.7v-8h-2v8H1466z M1466,610.7v-8h-2v8H1466z M1466,594.7v-8
	h-2v8H1466z M1466,578.8v-8h-2v8H1466z M1466,562.8v-8h-2v8H1466z M1466,546.8v-8h-2v8H1466z M1466,530.9v-8h-2v8H1466z M1466,514.9
	v-8h-2v8H1466z M1466,498.9v-8h-2v8H1466z M1466,483v-8h-2v8H1466z M1466,467v-8h-2v8H1466z M1466,451v-8h-2v8H1466z M1466,435.1v-8
	h-2v8H1466z M1466,419.1v-8h-2v8H1466z M1466,403.1v-8h-2v8H1466z M1466,387.2v-8h-2v8H1466z M1466,371.2v-8h-2v8H1466z M1466,355.2
	v-8h-2v8H1466z M1466,339.3v-8h-2v8H1466z M1466,323.3v-8h-2v8H1466z M1466,307.3v-8h-2v8H1466z M1466,291.4v-8h-2v8H1466z
	 M1466,275.4v-8h-2v8H1466z M1466,259.4v-8h-2v8H1466z M1466,243.5v-8h-2v8H1466z M1466,227.5v-8h-2v8H1466z M1466,211.6v-8h-2v8
	H1466z M1466,195.6v-8h-2v8H1466z M1466,179.6v-8h-2v8H1466z M1466,163.7v-8h-2v8H1466z M1466,147.7v-8h-2v8H1466z M1466,131.7v-8
	h-2v8H1466z M1466,115.8v-8h-2v8H1466z M1466,99.8v-8h-2v8H1466z M1466,83.8v-8h-2v8H1466z M1466,67.9v-8h-2v8H1466z M1466,51.9v-8
	h-2v8H1466z M1466,35.9v-8h-2v8H1466z M1466,20v-8h-2v8H1466z M1466,4V0h-2v4H1466z M1464.5-0.9c-1.2,0.6-2.4,1.2-3.6,1.8l0.9,1.8
	c1.2-0.6,2.4-1.2,3.6-1.8L1464.5-0.9z M1453.8,4.5c-2.4,1.2-4.8,2.3-7.1,3.4l0.9,1.8c2.4-1.1,4.8-2.3,7.1-3.4L1453.8,4.5z
	 M1439.4,11.2c-2.4,1.1-4.8,2.1-7.3,3.2l0.8,1.8c2.4-1,4.9-2.1,7.3-3.2L1439.4,11.2z M1424.8,17.5c-2.5,1-4.9,2-7.4,2.9l0.7,1.9
	c2.5-0.9,5-1.9,7.4-2.9L1424.8,17.5z M1409.9,23.1c-2.5,0.9-5,1.8-7.5,2.6l0.6,1.9c2.5-0.9,5-1.7,7.6-2.7L1409.9,23.1z M1394.9,28.3
	c-2.6,0.8-5.1,1.6-7.6,2.4l0.6,1.9c2.6-0.8,5.1-1.6,7.7-2.4L1394.9,28.3z M1379.7,32.9c-2.6,0.7-5.1,1.4-7.7,2.1l0.5,1.9
	c2.6-0.7,5.2-1.4,7.7-2.1L1379.7,32.9z M1364.3,36.9c-2.6,0.6-5.2,1.2-7.8,1.8l0.4,2c2.6-0.6,5.2-1.2,7.8-1.8L1364.3,36.9z
	 M1348.8,40.3c-2.6,0.5-5.2,1-7.8,1.5l0.4,2c2.6-0.5,5.2-1,7.8-1.5L1348.8,40.3z M1333.1,43.2c-2.6,0.4-5.2,0.8-7.8,1.2l0.3,2
	c2.6-0.4,5.2-0.8,7.9-1.2L1333.1,43.2z M1317.4,45.5c-2.6,0.3-5.3,0.7-7.9,1l0.2,2c2.6-0.3,5.3-0.6,7.9-1L1317.4,45.5z M1301.6,47.3
	c-2.6,0.3-5.3,0.5-7.9,0.7l0.2,2c2.6-0.2,5.3-0.5,7.9-0.7L1301.6,47.3z M1285.7,48.6c-2.6,0.2-5.3,0.3-7.9,0.5l0.1,2
	c2.7-0.1,5.3-0.3,8-0.5L1285.7,48.6z M1269.8,49.4c-2.6,0.1-5.3,0.2-8,0.2l0.1,2c2.7-0.1,5.3-0.1,8-0.2L1269.8,49.4z M1253.9,49.8
	c-2.7,0-5.3,0-8,0v2c2.7,0,5.3,0,8,0L1253.9,49.8z M1238,49.8c-2.7,0-5.3-0.1-8-0.1l0,2c2.7,0.1,5.3,0.1,8,0.1L1238,49.8z
	 M1222.1,49.4c-2.6-0.1-5.3-0.2-7.9-0.3l-0.1,2c2.7,0.1,5.3,0.2,8,0.3L1222.1,49.4z M1206.2,48.8c-2.6-0.1-5.3-0.3-7.9-0.4l-0.1,2
	c2.7,0.2,5.3,0.3,8,0.4L1206.2,48.8z M1190.3,47.8c-2.6-0.2-5.3-0.4-7.9-0.6l-0.1,2c2.6,0.2,5.3,0.4,7.9,0.6L1190.3,47.8z
	 M1174.4,46.6c-2.6-0.2-5.3-0.4-7.9-0.7l-0.2,2c2.7,0.2,5.3,0.4,7.9,0.7L1174.4,46.6z M1158.5,45.3c-2.6-0.2-5.3-0.5-7.9-0.7l-0.2,2
	c2.7,0.3,5.3,0.5,7.9,0.7L1158.5,45.3z M1142.7,43.8c-2.6-0.3-5.3-0.5-7.9-0.8l-0.2,2c2.7,0.3,5.3,0.5,7.9,0.8L1142.7,43.8z
	 M1126.8,42.1c-2.6-0.3-5.3-0.6-7.9-0.8l-0.2,2c2.7,0.3,5.3,0.6,7.9,0.8L1126.8,42.1z M1111,40.4c-2.6-0.3-5.3-0.6-7.9-0.9l-0.2,2
	c2.6,0.3,5.3,0.6,7.9,0.9L1111,40.4z M1095.1,38.7c-2.6-0.3-5.3-0.6-7.9-0.9l-0.2,2c2.7,0.3,5.3,0.6,7.9,0.9L1095.1,38.7z
	 M1079.3,36.9c-2.6-0.3-5.3-0.6-7.9-0.9l-0.2,2c2.7,0.3,5.3,0.6,7.9,0.9L1079.3,36.9z M1063.4,35.2c-2.6-0.3-5.3-0.6-7.9-0.9l-0.2,2
	c2.6,0.3,5.3,0.6,7.9,0.9L1063.4,35.2z M1047.5,33.5c-2.6-0.3-5.3-0.6-7.9-0.8l-0.2,2c2.6,0.3,5.3,0.5,7.9,0.8L1047.5,33.5z
	 M1031.7,31.8c-2.6-0.3-5.3-0.5-7.9-0.8l-0.2,2c2.6,0.3,5.3,0.5,7.9,0.8L1031.7,31.8z M1015.8,30.3c-2.7-0.2-5.3-0.5-8-0.7l-0.2,2
	c2.7,0.2,5.3,0.5,8,0.7L1015.8,30.3z M999.9,28.8c-2.6-0.2-5.3-0.5-8-0.7l-0.2,2c2.7,0.2,5.3,0.4,8,0.7L999.9,28.8z M984,27.5
	c-2.6-0.2-5.3-0.4-7.9-0.6l-0.1,2c2.7,0.2,5.3,0.4,7.9,0.6L984,27.5z M968.1,26.4c-2.6-0.2-5.3-0.3-7.9-0.5l-0.1,2
	c2.6,0.2,5.3,0.3,7.9,0.5L968.1,26.4z M952.2,25.4c-2.6-0.1-5.3-0.3-8-0.4l-0.1,2c2.7,0.1,5.3,0.3,8,0.4L952.2,25.4z M936.3,24.6
	c-2.7-0.1-5.3-0.2-8-0.3l-0.1,2c2.7,0.1,5.3,0.2,8,0.3L936.3,24.6z M920.3,24c-2.6-0.1-5.3-0.2-8-0.2l0,2c2.7,0.1,5.3,0.1,8,0.2
	L920.3,24z M904.4,23.6c-2.6,0-5.3-0.1-7.9-0.1l0,2c2.7,0,5.3,0.1,7.9,0.1L904.4,23.6z M888.4,23.4c-1.3,0-2.7,0-4,0v2
	c1.3,0,2.7,0,4,0L888.4,23.4z M884.4,23.4c-1.3,0-2.6,0-4,0l0,2c1.3,0,2.6,0,3.9,0V23.4z M872.3,23.6c-2.6,0.1-5.3,0.2-8,0.3l0.1,2
	c2.7-0.1,5.4-0.2,8-0.3L872.3,23.6z M856.1,24.3c-2.7,0.2-5.4,0.3-8.2,0.5l0.1,2c2.8-0.2,5.5-0.4,8.1-0.5L856.1,24.3z M840,25.4
	c-2.7,0.2-5.4,0.4-8.1,0.7l0.2,2c2.7-0.2,5.4-0.5,8.1-0.7L840,25.4z M823.8,26.8c-2.7,0.3-5.3,0.5-8.1,0.8l0.2,2
	c2.7-0.3,5.4-0.5,8.1-0.8L823.8,26.8z M807.7,28.5c-2.7,0.3-5.3,0.6-8,0.9l0.2,2c2.7-0.3,5.4-0.6,8-0.9L807.7,28.5z M791.6,30.3
	c-2.7,0.3-5.3,0.6-8,1l0.2,2c2.7-0.3,5.4-0.7,8-1L791.6,30.3z M775.6,32.3c-2.7,0.3-5.3,0.7-8,1.1l0.3,2c2.7-0.4,5.3-0.7,8-1.1
	L775.6,32.3z M759.5,34.5c-2.7,0.4-5.3,0.7-8,1.1l0.3,2c2.7-0.4,5.3-0.8,8-1.1L759.5,34.5z M743.5,36.8c-2.7,0.4-5.3,0.8-8,1.2
	l0.3,2c2.7-0.4,5.3-0.8,8-1.2L743.5,36.8z M727.5,39.2c-2.7,0.4-5.3,0.8-8,1.2l0.3,2c2.7-0.4,5.3-0.8,8-1.2L727.5,39.2z M711.5,41.7
	c-2.7,0.4-5.3,0.9-8,1.3l0.3,2c2.7-0.4,5.3-0.9,8-1.3L711.5,41.7z M695.5,44.3c-2.7,0.4-5.3,0.9-8,1.3l0.3,2c2.7-0.5,5.3-0.9,8-1.3
	L695.5,44.3z M679.6,47c-2.7,0.5-5.3,0.9-8,1.4l0.3,2c2.7-0.5,5.3-0.9,8-1.4L679.6,47z M663.6,49.8c-2.7,0.5-5.3,0.9-8,1.4l0.4,2
	c2.7-0.5,5.3-0.9,8-1.4L663.6,49.8z M647.7,52.6c-2.7,0.5-5.3,1-8,1.5l0.4,2c2.6-0.5,5.3-1,8-1.5L647.7,52.6z M631.8,55.5
	c-2.7,0.5-5.3,1-8,1.5l0.4,2c2.6-0.5,5.3-1,8-1.5L631.8,55.5z M615.9,58.5c-2.7,0.5-5.3,1-8,1.5l0.4,2c2.6-0.5,5.3-1,8-1.5
	L615.9,58.5z M600,61.6c-2.7,0.5-5.3,1-8,1.6l0.4,2c2.6-0.5,5.3-1,8-1.6L600,61.6z M584.1,64.7c-2.7,0.5-5.3,1.1-8,1.6l0.4,2
	c2.6-0.5,5.3-1.1,8-1.6L584.1,64.7z M568.3,67.9c-2.7,0.5-5.3,1.1-8,1.6l0.4,2c2.6-0.5,5.3-1.1,8-1.6L568.3,67.9z M552.4,71.1
	c-2.7,0.6-5.3,1.1-7.9,1.7l0.4,2c2.6-0.5,5.3-1.1,7.9-1.7L552.4,71.1z M536.6,74.5c-2.7,0.6-5.3,1.1-7.9,1.7l0.4,2
	c2.6-0.6,5.3-1.1,7.9-1.7L536.6,74.5z M520.7,77.8c-2.7,0.6-5.3,1.1-7.9,1.7l0.4,2c2.6-0.6,5.3-1.1,7.9-1.7L520.7,77.8z M504.9,81.3
	c-2.7,0.6-5.3,1.2-7.9,1.8l0.4,2c2.6-0.6,5.3-1.2,7.9-1.8L504.9,81.3z M489.1,84.8c-2.7,0.6-5.3,1.2-8,1.8l0.4,2
	c2.6-0.6,5.3-1.2,8-1.8L489.1,84.8z M473.4,88.4c-2.7,0.6-5.3,1.2-7.9,1.8l0.5,1.9c2.6-0.6,5.2-1.2,7.9-1.8L473.4,88.4z M457.5,92
	c-2.7,0.6-5.3,1.3-7.8,1.9l0.5,1.9c2.6-0.6,5.2-1.2,7.8-1.9L457.5,92z M441.8,95.8c-2.7,0.7-5.3,1.3-7.8,1.9l0.5,1.9
	c2.5-0.6,5.2-1.3,7.8-1.9L441.8,95.8z M426.2,99.7c-2.7,0.7-5.4,1.4-7.9,2l0.5,1.9c2.5-0.7,5.2-1.3,7.9-2L426.2,99.7z M410.4,103.8
	c-1.3,0.3-2.6,0.7-3.8,1l0.5,1.9c1.2-0.3,2.5-0.7,3.8-1L410.4,103.8z M406.6,104.8c-1.2,0.3-2.4,0.7-3.7,1l0.5,1.9
	c1.3-0.3,2.6-0.7,3.8-1L406.6,104.8z M394.9,107.7c-2.6,0.6-5.2,1.1-8,1.6l0.4,2c2.8-0.5,5.5-1.1,8.1-1.6L394.9,107.7z M379.1,110.7
	c-2.6,0.5-5.3,0.9-8,1.3l0.3,2c2.8-0.4,5.4-0.9,8-1.3L379.1,110.7z M363,113.3c-2.6,0.4-5.2,0.8-7.9,1.1l0.3,2
	c2.7-0.4,5.4-0.8,8-1.1L363,113.3z M346.9,115.5c-2.6,0.3-5.3,0.7-8,1l0.2,2c2.7-0.3,5.4-0.7,8-1L346.9,115.5z M330.8,117.5
	c-2.6,0.3-5.3,0.6-8,0.9l0.2,2c2.7-0.3,5.4-0.6,8-0.9L330.8,117.5z M314.7,119.2c-2.6,0.3-5.3,0.6-8,0.8l0.2,2
	c2.7-0.3,5.4-0.5,8-0.8L314.7,119.2z M298.5,120.9c-2.7,0.3-5.3,0.5-8,0.8l0.2,2c2.7-0.2,5.4-0.5,8-0.8L298.5,120.9z M282.4,122.3
	c-2.7,0.2-5.3,0.5-8,0.7l0.2,2c2.7-0.2,5.4-0.5,8-0.7L282.4,122.3z M266.2,123.7c-2.7,0.2-5.4,0.4-8.1,0.7l0.2,2
	c2.7-0.2,5.4-0.4,8.1-0.7L266.2,123.7z M250,125c-2.7,0.2-5.4,0.4-8.1,0.6l0.1,2c2.7-0.2,5.4-0.4,8.1-0.6L250,125z M233.8,126.2
	c-2.7,0.2-5.4,0.4-8.1,0.6l0.1,2c2.7-0.2,5.4-0.4,8.1-0.6L233.8,126.2z M217.7,127.4c-2.7,0.2-5.4,0.4-8.1,0.5l0.1,2
	c2.7-0.2,5.4-0.4,8.1-0.5L217.7,127.4z M201.4,128.4c-2.7,0.2-5.4,0.3-8.1,0.5l0.1,2c2.7-0.2,5.4-0.3,8.1-0.5L201.4,128.4z
	 M185.2,129.5c-2.7,0.2-5.4,0.3-8.1,0.5l0.1,2c2.7-0.2,5.4-0.3,8.1-0.5L185.2,129.5z M169,130.4c-2.7,0.2-5.4,0.3-8.1,0.5l0.1,2
	c2.7-0.2,5.4-0.3,8.1-0.5L169,130.4z M152.8,131.3c-2.7,0.1-5.4,0.3-8.1,0.4l0.1,2c2.7-0.1,5.4-0.3,8.1-0.4L152.8,131.3z
	 M136.6,132.2c-2.7,0.1-5.5,0.3-8.2,0.4l0.1,2c2.7-0.1,5.4-0.3,8.2-0.4L136.6,132.2z M120.4,133c-2.7,0.1-5.4,0.3-8.1,0.4l0.1,2
	c2.7-0.1,5.4-0.3,8.1-0.4L120.4,133z M104.2,133.8c-2.7,0.1-5.4,0.3-8.1,0.4l0.1,2c2.7-0.1,5.4-0.3,8.1-0.4L104.2,133.8z M88,134.6
	c-2.7,0.1-5.4,0.2-8.1,0.4l0.1,2c2.7-0.1,5.4-0.2,8.1-0.4L88,134.6z M71.7,135.3c-2.7,0.1-5.5,0.2-8.1,0.3l0.1,2
	c2.7-0.1,5.4-0.2,8.1-0.3L71.7,135.3z M55.5,135.9c-2.8,0.1-5.5,0.2-8.2,0.3l0.1,2c2.7-0.1,5.4-0.2,8.2-0.3L55.5,135.9z M39.4,136.6
	c-2.8,0.1-5.6,0.2-8.2,0.3l0.1,2c2.7-0.1,5.4-0.2,8.2-0.3L39.4,136.6z M23,137.2c-2.8,0.1-5.5,0.2-8.1,0.3l0.1,2
	c2.6-0.1,5.3-0.2,8.1-0.3L23,137.2z M6.8,137.8c-2.9,0.1-5.6,0.2-8.1,0.3l0.1,2c2.6-0.1,5.3-0.2,8.1-0.3L6.8,137.8z M-9.5,138.3
	c-3,0.1-5.8,0.2-8.1,0.3l0.1,2c2.4-0.1,5.1-0.2,8.1-0.3L-9.5,138.3z M-25.5,138.8c-1.3,0-2.3,0.1-3,0.1c-0.3,0-0.6,0-0.8,0
	c-0.1,0-0.2,0-0.2,0c0,0,0,0,0,0c0,0,0,0,0,0c0,0,0,0,0,0c0,0,0,0,0,0c0,0,0,0,0,0l0,0c0,0,0,0,0,1c0,1,0,1,0,1c0,0,0,0,0,0s0,0,0,0
	c0,0,0,0,0,0c0,0,0,0,0,0c0,0,0,0,0,0c0,0,0,0,0,0c0,0,0.1,0,0.2,0c0.2,0,0.4,0,0.8,0c0.7,0,1.7,0,3-0.1L-25.5,138.8z"/>
</svg>
